<svg width="777" height="150" viewBox="0 0 777 150" fill="none" xmlns="http://www.w3.org/2000/svg">
<g clip-path="url(#clip0_134_29)">
<path d="M568.449 96.41V91.2993H623.091V58.8059H568.449V45.4764H623.091V2.7666H502.109V147.244H568.449H623.096V104.614H568.449" fill="#FEFEFE"/>
<path d="M197.45 2.7666H124.002V147.24H190.337V115.956H197.45C204.972 116.054 212.439 114.667 219.424 111.874C226.409 109.08 232.774 104.936 238.154 99.6787C243.534 94.4212 247.823 88.1535 250.776 81.235C253.73 74.3165 255.288 66.8832 255.363 59.3611C255.363 25.1278 228.595 2.7666 197.45 2.7666Z" fill="#FEFEFE"/>
<path d="M29.6142 96.6624H0.000797592C-0.186432 103.701 1.05874 110.705 3.66074 117.248C6.26273 123.791 10.1673 129.737 15.1373 134.726C20.1074 139.714 26.0392 143.64 32.5729 146.265C39.1065 148.891 46.1056 150.162 53.1452 150C61.9664 150.047 70.6963 148.213 78.7533 144.622C87.7023 140.794 95.3428 134.443 100.742 126.344C106.14 118.245 109.064 108.75 109.155 99.017V98.4271C109.214 92.5686 107.978 86.7693 105.535 81.4442C103.092 76.1191 99.5022 71.3999 95.0223 67.6241L80.3495 53.3676H109.17C109.36 46.3255 108.117 39.3181 105.516 32.7711C102.915 26.2241 99.0106 20.2743 94.0392 15.2829C89.0678 10.2916 83.1336 6.36302 76.5971 3.73582C70.0606 1.10862 63.0582 -0.162333 56.0153 0.000156598C47.3685 -0.0747455 38.8108 1.75119 30.9476 5.3488C22.2496 9.36567 14.9003 15.8145 9.78702 23.9167C4.67377 32.0189 2.01521 41.428 2.13232 51.0081V51.598C2.00498 57.2206 3.07503 62.806 5.27146 67.9834C7.46789 73.1608 10.7405 77.8118 14.8719 81.6277C23.6756 90.6099 29.6786 96.6624 29.6786 96.6624H29.6142Z" fill="#FEFEFE"/>
<path d="M333.673 73.0863V73.1111L333.713 73.0715L333.673 73.0268V2.75586H264.646V147.234H333.673V73.0863Z" fill="#FEFEFE"/>
<path d="M702.637 2.76623H703.43C713.004 2.62886 722.509 4.39583 731.393 7.9644C740.278 11.533 748.365 16.832 755.183 23.5534C762.002 30.2748 767.416 38.2845 771.112 47.1169C774.807 55.9493 776.711 65.4283 776.711 75.0027C776.711 84.5771 774.807 94.056 771.112 102.888C767.416 111.721 762.002 119.731 755.183 126.452C748.365 133.173 740.278 138.472 731.393 142.041C722.509 145.61 713.004 147.376 703.43 147.239H636.287V2.76623H702.637Z" fill="#FEFEFE"/>
<path d="M408.793 64.8493C411.392 62.5855 414.737 61.3629 418.183 61.4169C421.63 61.4709 424.934 62.7976 427.461 65.1418C428.435 66.0641 429.27 67.1227 429.94 68.2845H493.484C492.023 49.8295 483.622 32.614 469.973 20.1071C455.842 7.19706 437.396 0.0345707 418.256 0.0253994C399.115 0.0162282 380.663 7.16104 366.519 20.0575C358.859 26.9983 352.735 35.4643 348.54 44.9119C344.345 54.3595 342.172 64.5798 342.16 74.9169C342.149 85.2539 344.299 95.4792 348.472 104.936C352.646 114.393 358.751 122.873 366.396 129.831C380.555 142.793 399.057 149.98 418.253 149.973C437.449 149.967 455.946 142.768 470.097 129.796C483.711 117.269 492.079 100.053 493.519 81.6091H429.989C429.348 82.7698 428.539 83.8303 427.59 84.7568C425.044 87.1612 421.69 88.5245 418.188 88.5777C414.687 88.6309 411.292 87.3703 408.674 85.0443C407.214 83.7932 406.045 82.2391 405.246 80.4901C404.448 78.7411 404.04 76.8393 404.052 74.9167C404.063 72.9942 404.493 71.0973 405.312 69.3578C406.131 67.6183 407.319 66.0831 408.793 64.8493Z" fill="#FEFEFE"/>
</g>
<defs>
<clipPath id="clip0_134_29">
<rect width="776.738" height="150" fill="white"/>
</clipPath>
</defs>
</svg>
