<svg width="1050" height="200" viewBox="0 0 1050 200" fill="none" xmlns="http://www.w3.org/2000/svg">
<g clip-path="url(#clip0_134_10)">
<path d="M438.194 171.429C438.194 180.64 438.194 189.56 438.194 198.608C428.64 198.608 419.343 198.608 409.832 198.608C409.832 160.706 409.832 122.778 409.832 84.6981C419.613 84.6981 429.387 84.6981 439.487 84.6981C439.487 88.6579 439.487 92.6648 439.487 97.4389C449.51 86.6745 461.353 81.9497 475.232 82.1351C489.794 82.3297 500.252 89.3143 507.698 102.028C508.176 101.352 508.503 100.881 508.838 100.414C518.387 87.1169 531.704 81.825 547.658 82.177C559.71 82.4428 569.742 86.9025 577.078 96.6838C581.123 102.076 582.705 108.477 583.035 114.986C583.692 127.978 583.966 140.995 584.121 154.005C584.294 168.578 584.161 183.154 584.161 197.942C574.745 197.942 565.382 197.942 555.587 197.942C555.587 197.001 555.587 195.984 555.587 194.966C555.587 177.572 555.743 160.176 555.507 142.785C555.417 136.21 554.774 129.591 553.746 123.093C552.619 115.971 548.679 110.67 541.315 108.887C534.323 107.193 527.781 108.372 522.257 113.255C515.551 119.183 512.276 126.845 512.025 135.655C511.635 149.344 511.539 163.043 511.385 176.738C511.306 183.731 511.371 190.726 511.371 197.938C501.923 197.938 492.567 197.938 482.894 197.938C482.894 196.958 482.895 195.924 482.894 194.89C482.866 175.845 482.992 156.796 482.71 137.754C482.634 132.576 481.805 127.294 480.505 122.271C476.194 105.62 457.791 106.387 449.212 113.794C442.555 119.542 439.578 126.965 439.122 135.321C438.471 147.241 438.471 159.197 438.194 171.429Z" fill="#FEFEFE"/>
<path d="M858.407 138.776C858.407 158.476 858.407 177.884 858.407 197.432C848.857 197.432 839.558 197.432 829.952 197.432C829.952 193.808 829.952 190.085 829.952 185.831C828.774 186.719 827.994 187.214 827.321 187.826C805.885 207.297 774.843 203.485 756.475 182.954C746.149 171.412 741.414 157.817 741.128 142.501C740.765 123.092 746.992 106.534 762.044 93.7008C780.56 77.9132 808.544 78.2097 826.613 94.4745C827.519 95.2897 828.431 96.0975 829.705 97.234C829.705 78.3519 829.705 59.9513 829.705 41.3291C839.289 41.3291 848.648 41.3291 858.407 41.3291C858.407 73.6831 858.407 106.084 858.407 138.776ZM812.005 171.576C815.761 168.895 820.178 166.795 823.144 163.419C830.942 154.546 832.375 143.696 830.237 132.477C825.208 106.094 795.601 101.045 780.602 114.556C772.281 122.051 769.226 131.854 769.73 142.913C770.774 165.824 790.316 179.315 812.005 171.576Z" fill="#FEFEFE"/>
<path d="M934.982 160.626C930.291 142.533 930.969 125.067 940.403 108.853C952.373 88.2787 974.686 77.1709 998.952 83.9071C1006.18 85.9136 1012.48 89.6558 1018.01 94.7058C1018.78 95.4097 1019.58 96.0804 1020.86 97.192C1020.86 92.7523 1020.86 88.8579 1020.86 84.7799C1030.5 84.7799 1039.78 84.7799 1049.28 84.7799C1049.28 122.157 1049.28 159.599 1049.28 197.463C1048.21 197.463 1047.08 197.463 1045.95 197.463C1038.47 197.463 1030.99 197.395 1023.51 197.509C1021.43 197.54 1020.78 196.859 1020.89 194.839C1021.04 192.148 1020.93 189.443 1020.93 186.08C1019.81 186.927 1019.06 187.413 1018.41 188C998.372 205.97 967.278 205.029 947.567 182.932C941.799 176.465 937.467 169.209 934.982 160.626ZM1001.35 109.048C987.187 104.439 973.194 109.384 965.707 121.863C960.787 130.062 960.015 138.992 961.51 148.307C964.484 166.843 982.903 178.41 1000.7 172.555C1013.63 168.3 1020.28 158.644 1021.87 145.557C1023.79 129.746 1018.12 115.54 1001.35 109.048Z" fill="#FEFEFE"/>
<path d="M676.557 173.413C682.168 171.972 686.734 169.149 690.923 165.57C691.671 164.931 693.156 164.286 693.867 164.607C701.279 167.945 708.603 171.479 716.169 175.063C709.303 184.965 700.813 192.503 689.52 196.092C670.134 202.251 650.924 201.98 632.977 191.522C616.985 182.203 607.924 167.94 605.738 149.415C604.15 135.955 605.576 122.942 612.398 111.091C623.903 91.1065 641.43 81.3105 664.532 81.5199C677.06 81.6334 688.723 84.5622 699.135 91.7871C710.649 99.7773 717.835 110.722 721.307 124.2C723.402 132.332 723.984 140.598 723.53 149.201C693.375 149.201 663.387 149.201 633.381 149.201C634.43 162.271 645.681 173.727 659.015 174.653C664.733 175.05 670.557 173.924 676.557 173.413ZM634.78 126.013C635.706 126.264 636.631 126.734 637.557 126.736C655.919 126.78 674.281 126.771 692.643 126.773C693.553 126.773 694.463 126.773 695.473 126.773C692.878 115.703 680.653 106.123 668.419 105.196C652.948 104.024 640.526 111.554 634.78 126.013Z" fill="#FEFEFE"/>
<path d="M384.03 127.367C384.625 132.119 385.165 136.63 385.757 141.565C351.946 141.565 318.602 141.565 285.295 141.565C283.952 156.182 292.968 175.998 311.176 183.305C322.569 187.877 333.733 186.585 344.966 182.673C356.52 178.648 363.333 169.518 370.059 159.819C373.708 161.575 377.379 163.264 380.945 165.151C381.401 165.393 381.705 166.873 381.414 167.435C372.774 184.092 360.122 195.701 341.001 198.81C327.326 201.034 313.854 200.473 301.188 194.19C284.503 185.914 274.345 172.195 270.787 154.209C266.128 130.656 272.483 110.176 290.632 93.9404C298.615 86.7997 308.263 83.0692 318.822 81.8982C334.6 80.1485 349.404 82.7875 362.331 92.6426C373.837 101.414 380.889 113.039 384.03 127.367ZM347.812 129.248C355.028 129.248 362.244 129.248 369.559 129.248C365.03 106.444 344.88 93.8687 324.478 95.2412C301.803 96.7667 289.247 111.615 286.142 128.944C286.317 129.025 286.49 129.178 286.665 129.178C306.853 129.208 327.041 129.228 347.812 129.248Z" fill="#FEFEFE"/>
<path d="M164.425 197.705C147.98 201.457 131.972 201.298 117.423 192.469C98.8794 181.215 89.0861 164.425 88.1937 142.506C86.9613 112.232 108.197 89.6233 130.15 83.7769C156.897 76.6539 181.422 84.7657 197.197 108.74C206.391 122.712 208.156 138.539 204.389 154.654C200.025 173.325 188.837 186.894 171.495 195.225C169.327 196.266 166.942 196.855 164.425 197.705ZM156.513 185.478C161.391 183.672 166.798 182.68 171.054 179.916C187.418 169.288 194.1 153.82 191.762 134.529C188.487 107.507 159.45 89.2106 133.624 97.8183C118.027 103.017 102.474 120.523 103.03 142.526C103.739 170.563 128.508 190.962 156.513 185.478Z" fill="#FEFEFE"/>
<path d="M895.045 84.5352C900.946 84.5352 906.555 84.5352 912.303 84.5352C912.303 122.228 912.303 159.678 912.303 197.334C903.006 197.334 893.65 197.334 884.09 197.334C884.09 159.855 884.09 122.344 884.09 84.5352C887.629 84.5352 891.191 84.5352 895.045 84.5352Z" fill="#FEFEFE"/>
<path d="M65.1564 94.0616C66.2824 94.9963 67.258 95.7836 68.4527 96.7477C65.0986 100.335 62.1398 103.499 59.212 106.631C55.6457 104.141 52.3223 101.429 48.6428 99.3462C43.3182 96.3323 37.5976 94.6252 31.3524 96.2802C22.9938 98.4954 17.6633 106.025 18.8276 114.146C19.3725 117.947 20.9522 121.236 24.3536 123.3C32.5544 128.274 40.8308 133.125 49.005 138.142C51.6417 139.761 54.0663 141.728 56.5684 143.562C72.134 154.972 71.9913 182.25 52.535 194.82C39.6739 203.129 20.7566 202.13 8.04117 192.117C5.24721 189.916 2.72565 187.37 -0.162109 184.767C3.29276 181.008 6.42269 177.602 9.78889 173.94C11.6249 175.578 13.2985 177.136 15.0384 178.615C22.1445 184.655 30.1886 187.955 39.4974 185.332C49.8722 182.408 57.603 173.918 53.4081 161.737C52.3503 158.665 49.7327 155.642 47.03 153.729C41.597 149.884 35.6595 146.736 29.8425 143.455C22.8736 139.525 16.2066 135.338 11.414 128.645C-0.183127 112.449 8.28533 88.4695 27.5553 83.3831C40.1099 80.0693 51.3581 82.874 61.378 90.9888C62.5852 91.9665 63.7965 92.9391 65.1564 94.0616Z" fill="#FEFEFE"/>
<path d="M230.295 131.196C230.295 101.082 230.295 71.26 230.295 41.2461C235.033 41.2461 239.639 41.2461 244.38 41.2461C244.38 93.2584 244.38 145.209 244.38 197.35C239.765 197.35 235.168 197.35 230.295 197.35C230.295 175.347 230.295 153.417 230.295 131.196Z" fill="#FEFEFE"/>
<path d="M925.882 35.401C920.148 56.8181 896.165 62.8856 880.968 51.7831C870.902 44.4301 866.845 30.4167 871.347 18.3959C875.735 6.68111 887.671 -0.912434 899.964 0.190001C913.381 1.39324 923.848 10.5018 925.929 23.3265C926.553 27.1701 925.963 31.2106 925.882 35.401ZM878.53 39.4604C882.691 46.8455 889.078 50.7229 897.48 50.891C906.735 51.0762 913.843 47.0436 917.999 38.709C922.074 30.5387 921.267 22.4339 915.826 15.1537C910.247 7.68962 902.459 4.954 893.426 6.85257C878.721 9.94316 871.808 24.9394 878.53 39.4604Z" fill="#FEFEFE"/>
<path d="M903.234 35.6828C899.541 38.0326 896.021 37.9873 892.75 35.4597C889.887 33.2467 888.836 30.1748 889.7 26.6308C890.594 22.9614 893.054 20.8098 896.727 20.0814C900.338 19.3653 904.234 21.4012 905.918 24.8077C907.727 28.4661 906.827 32.3192 903.234 35.6828Z" fill="#FEFEFE"/>
</g>
<defs>
<clipPath id="clip0_134_10">
<rect width="1049.56" height="200" fill="white"/>
</clipPath>
</defs>
</svg>
