<svg width="1179" height="154" viewBox="0 0 1179 154" fill="none" xmlns="http://www.w3.org/2000/svg">
<g clip-path="url(#clip0_123_12)">
<path d="M246.975 150.151C220.875 158.192 197.682 149.468 183.767 126.417C179.473 119.304 177.396 111.374 177.368 103.078C177.264 72.4438 177.499 41.8071 177.159 11.1764C177.083 4.36728 182.629 -0.605541 187.728 -0.318238C193.883 0.0285603 197.798 4.34362 197.829 11.6573C197.89 26.4945 197.881 41.332 197.901 56.1694C197.902 57.3773 197.901 58.5853 197.901 60.4387C208.545 53.0307 219.854 49.924 232.248 50.3514C255.764 51.1625 276.92 70.9756 280.363 93.9566C283.611 115.638 271.613 140.802 246.975 150.151ZM247.735 126.874C265.804 112.844 263.662 88.6592 248.004 76.7693C237.934 69.1226 222.436 68.4048 212.013 75.4162C200.218 83.3512 195.15 97.0912 198.818 110.186C204.311 129.798 228.257 140.2 247.735 126.874Z" fill="#FEFEFE"/>
<path d="M772.344 132.805C755.034 154.85 724.446 159.638 701.697 144.065C679.793 129.07 672.989 99.2544 686.01 76.3009C698.417 54.431 730.836 39.5041 762.628 60.2821C762.628 58.5256 762.628 57.0656 762.628 55.6056C762.628 40.6754 762.597 25.7451 762.642 10.815C762.662 4.14177 766.582 -0.165917 772.53 -0.263884C778.67 -0.365024 783.134 3.94799 783.155 10.6603C783.254 40.987 783.382 71.3159 783.103 101.64C782.999 112.93 779.616 123.457 772.344 132.805ZM711.586 126.246C718.882 131.523 726.846 133.893 735.945 132.581C752.836 130.145 765.512 113.722 762.158 96.1645C758.63 77.6986 740.172 66.4917 722.611 71.6679C710.957 75.103 703.308 82.8726 700.545 94.5467C697.634 106.845 701.559 117.416 711.586 126.246Z" fill="#FEFEFE"/>
<path d="M998.879 132.446C992.218 123.879 988.697 114.373 988.615 103.966C988.371 72.7022 988.477 41.4357 988.5 10.1703C988.504 3.89846 992.463 -0.141958 998.42 -0.25898C1004.48 -0.377965 1008.5 3.3864 1008.57 9.86756C1008.72 24.9543 1008.63 40.0436 1008.63 55.1318C1008.63 56.7856 1008.63 58.4394 1008.63 60.7209C1019.21 53.3542 1030.15 50.0574 1042.27 50.3242C1066.97 50.8679 1088.19 70.3652 1091.54 94.8366C1094.99 120.019 1078.76 145.401 1052.21 151.864C1032.94 156.555 1010.48 148.592 998.879 132.446ZM1066.98 118.02C1073.73 106.69 1073.62 95.1705 1066.33 84.4399C1059.11 73.8096 1048.62 69.1227 1035.54 70.9184C1022.54 72.7034 1011.37 83.2559 1009.22 95.9844C1006.93 109.514 1013.28 122.817 1025.13 129.14C1038.78 136.434 1056.04 133.708 1066.98 118.02Z" fill="#FEFEFE"/>
<path d="M920.546 152.498C892.88 156.886 867.593 142.154 860.275 116.261C852.265 87.9212 872.085 56.4829 901.14 52.0475C919.361 49.2661 935.172 53.6333 947.915 67.1491C956.733 76.5014 961.067 88.017 961.42 100.765C961.798 114.431 961.546 128.115 961.53 141.791C961.523 148.029 958.409 152.359 953.492 153.136C948.033 153.998 943.751 151.039 941.727 145.024C941.594 144.629 941.353 144.27 941.623 144.802C934.562 147.4 927.755 149.904 920.546 152.498ZM930.188 78.4101C922.461 71.9586 913.731 69.6979 903.831 71.8959C890.57 74.8402 880.152 86.2446 878.729 100.129C877.552 111.613 883.622 124.082 896.294 130.125C908.814 136.096 923.119 133.761 932.737 124.432C944.238 113.278 944.923 91.3536 930.188 78.4101Z" fill="#FEFEFE"/>
<path d="M312.787 69.6585C304.501 41.1447 320.835 12.2945 349.167 4.84645C377.463 -2.59192 406.149 14.5543 412.693 43.2284C420.03 75.3774 396.414 103.354 366.98 105.81C342.977 107.813 320.492 93.5923 312.787 69.6585ZM343.117 79.2974C358.471 90.8581 377.294 86.3135 386.95 73.9896C397.65 60.3348 395.385 40.66 382.417 30.5025C367.967 19.1842 348.468 21.3434 337.213 35.9565C327.044 49.1603 328.848 67.5609 343.117 79.2974Z" fill="#FEFEFE"/>
<path d="M67.2655 124.134C67.2652 130.667 67.3023 136.733 67.2539 142.799C67.2063 148.759 63.7692 152.842 58.5055 153.323C52.3512 153.885 48.643 151.117 47.2383 144.862C46.9699 143.667 46.686 142.434 46.7018 141.223C46.8941 126.467 46.6892 111.687 47.4775 96.9617C48.7324 73.5175 69.8805 53.153 93.3608 51.013C119.924 48.5921 142.927 65.4849 148.812 89.2061C149.548 92.172 150.257 95.2396 150.293 98.2682C150.472 113.354 150.471 128.443 150.42 143.53C150.405 148.141 148.224 151.593 143.718 153.04C139.347 154.444 134.2 152.95 132.173 149.307C130.975 147.153 130.514 144.348 130.483 141.826C130.321 128.918 130.533 116.004 130.376 103.096C130.145 84.1141 115.942 70.4747 97.1562 70.9661C81.4106 71.378 67.7438 84.9585 67.3311 100.803C67.1328 108.419 67.2766 116.045 67.2655 124.134Z" fill="#FEFEFE"/>
<path d="M650.123 149.457C646.554 153.826 642.129 154.357 637.683 152.68C633.076 150.944 631.757 146.833 631.784 142.108C631.858 129.051 631.9 115.994 631.787 102.938C631.6 81.4457 612.84 66.8835 592.012 71.9536C578.795 75.1712 568.853 87.7395 568.679 101.872C568.508 115.704 568.638 129.54 568.607 143.373C568.597 147.807 566.615 151.176 562.527 152.898C558.49 154.598 553.181 153.262 550.784 149.777C549.555 147.991 548.675 145.557 548.661 143.409C548.563 127.714 548.291 111.999 548.916 96.3238C549.695 76.7727 566.808 57.4429 586.967 52.2878C616.589 44.7129 646.285 63.8827 651.467 94.0305C651.989 97.0667 651.854 100.232 651.864 103.337C651.903 116.083 651.96 128.83 651.813 141.574C651.784 144.12 650.893 146.655 650.123 149.457Z" fill="#FEFEFE"/>
<path d="M480.639 133.465C492.717 132.641 501.179 123.836 501.256 112.129C501.364 95.6492 501.276 79.1678 501.289 62.687C501.294 55.4685 505.188 51.0892 511.557 51.0764C517.88 51.0637 521.815 55.4902 521.82 62.6865C521.833 79.0119 521.842 95.3373 521.82 111.663C521.79 134.865 503.662 153.738 480.357 153.894C457.987 154.044 439.708 137.511 438.657 116.278C437.751 97.9754 438.224 79.5988 438.302 61.2556C438.329 54.7314 442.365 51.1201 448.413 51.038C454.149 50.9601 458.617 56.1651 458.52 61.8827C458.24 78.5143 458.314 95.1547 458.463 111.79C458.577 124.399 467.676 133.299 480.639 133.465Z" fill="#FEFEFE"/>
<path d="M1119 91.47C1113.57 76.0355 1121.96 59.8891 1134.91 53.9173C1148.49 47.6582 1165.77 51.8586 1174.58 64.2738C1176.37 66.7946 1177.4 70.093 1177.97 73.1822C1178.83 77.8605 1175.46 82.6817 1171.14 83.9491C1166.04 85.4452 1161.45 83.3882 1158.75 78.3875C1155.53 72.4315 1150.84 69.8945 1145.83 71.3843C1140.16 73.0666 1137.34 77.3291 1137.94 83.3242C1138.42 88.235 1142.82 92.0708 1148.73 92.2227C1158.29 92.4687 1166.09 96.2787 1172.15 103.524C1179.37 112.16 1181.05 122.191 1177.53 132.634C1173.77 143.772 1165.84 150.725 1154.07 153.222C1137.7 156.697 1122.1 144.726 1118.04 131.762C1116.55 127.005 1118.47 123.913 1121.77 121.347C1125.49 118.447 1130.03 118.574 1133.19 121.573C1135.07 123.352 1136.57 125.576 1138.02 127.749C1141.72 133.311 1146.32 135.078 1151.85 132.878C1156.89 130.874 1159.32 126.548 1158.46 121.137C1157.6 115.682 1153.68 112.561 1147.24 112.181C1133.54 111.373 1124.17 104.58 1119 91.47Z" fill="#FEFEFE"/>
<path d="M830.931 69.9998C830.931 94.3939 830.894 118.321 830.962 142.249C830.975 146.97 829.628 150.786 825.134 152.867C818.698 155.847 811.565 151.613 810.927 144.505C810.83 143.425 810.828 142.333 810.828 141.246C810.823 98.2078 810.857 55.1694 810.777 12.1313C810.769 7.30692 811.699 3.23494 816.41 0.992625C823.368 -2.31949 830.863 2.446 830.897 10.3361C830.981 30.0682 830.928 49.8008 830.931 69.9998Z" fill="#FEFEFE"/>
<path d="M18.9161 56.1046C19.5573 59.0003 20.4617 61.5503 20.4723 64.1039C20.5781 89.5717 20.5234 115.04 20.5476 140.508C20.5525 145.558 19.4589 150.192 14.7455 152.802C8.19542 156.427 0.108101 151.436 0.00331158 143.712C-0.152571 132.223 -0.0469199 120.729 -0.0485293 109.238C-0.0507053 93.7082 -0.0605193 78.1788 -0.0430098 62.6494C-0.0366032 56.9676 2.33565 53.0553 6.60163 51.534C10.9928 49.9681 15.027 51.37 18.9161 56.1046Z" fill="#FEFEFE"/>
<path d="M345.394 133.321C365.136 133.328 384.412 133.3 403.688 133.367C408.276 133.384 412.686 136.954 413.537 140.987C414.489 145.501 412.423 150.225 408.283 152.311C406.839 153.038 405.059 153.411 403.432 153.415C375.917 153.483 348.402 153.512 320.887 153.433C315.529 153.417 312.108 150.667 310.895 146.096C309.765 141.835 311.491 137.111 315.454 134.841C317.099 133.898 319.224 133.429 321.144 133.391C329.069 133.233 336.999 133.322 345.394 133.321Z" fill="#FEFEFE"/>
<path d="M4.02631 12.2111C8.3783 9.29745 12.8406 9.14881 16.2069 12.3564C18.3442 14.3929 19.7896 18.0287 19.9663 21.0401C20.2192 25.3468 17.4341 28.7161 13.1169 29.7711C8.629 30.8678 4.51933 29.7933 1.72823 25.6583C-0.803344 21.9077 -0.527709 18.1686 1.88727 14.5006C2.38982 13.7373 3.11567 13.121 4.02631 12.2111Z" fill="#FEFEFE"/>
</g>
<defs>
<clipPath id="clip0_123_12">
<rect width="1179" height="154" fill="white"/>
</clipPath>
</defs>
</svg>
