<svg width="600" height="285" viewBox="0 0 600 285" fill="none" xmlns="http://www.w3.org/2000/svg">
<path d="M34.6789 214.064C15.5505 214.064 0 229.6 0 248.71C0 267.821 15.5505 283.357 34.6789 283.357C53.8073 283.357 69.3578 267.821 69.3578 248.71C69.3578 229.6 53.945 214.064 34.6789 214.064ZM34.6789 274.558C20.5046 274.558 8.94495 263.009 8.94495 248.848C8.94495 234.687 20.5046 223.138 34.6789 223.138C48.8532 223.138 60.5505 234.549 60.5505 248.71C60.5505 262.871 48.9908 274.558 34.6789 274.558ZM161.972 216.539H160.321V218.189V259.572C160.321 267.821 153.578 274.558 145.321 274.558C137.064 274.558 130.321 267.821 130.321 259.572V218.189V216.539H128.67H123.165H121.514V218.189V259.572C121.514 267.821 114.771 274.558 106.514 274.558C98.2569 274.558 91.5138 267.821 91.5138 259.572V218.189V216.539H89.8624H84.3578H82.5688V218.189V259.572C82.5688 272.77 93.3028 283.494 106.514 283.494C114.495 283.494 121.651 279.507 125.917 273.458C130.321 279.507 137.339 283.494 145.321 283.494C158.532 283.494 169.266 272.77 169.266 259.572V218.189V216.539H167.615H161.972ZM217.844 213.789C198.716 213.789 183.165 229.325 183.165 248.435V278.957V280.607H184.817H190.321H191.972V278.957V248.435C191.972 234.274 203.532 222.588 217.844 222.588C232.018 222.588 243.716 234.137 243.716 248.435V278.957V280.607H245.367H250.872H252.523V278.957V248.435C252.523 229.325 236.972 213.789 217.844 213.789Z" fill="#FEFEFE"/>
<path d="M402.935 214.064C383.807 214.064 368.118 229.6 368.118 248.848C368.118 268.096 383.669 283.632 402.935 283.632C422.201 283.632 437.751 268.096 437.751 248.848C437.614 229.6 422.063 214.064 402.935 214.064ZM402.935 274.558C388.761 274.558 377.063 263.009 377.063 248.711C377.063 234.412 388.623 222.863 402.935 222.863C417.247 222.863 428.807 234.412 428.807 248.711C428.669 262.872 417.109 274.558 402.935 274.558ZM510.962 216.539H509.173V218.189V248.711C509.173 262.872 497.614 274.42 483.302 274.42C469.128 274.42 457.43 262.872 457.43 248.711V218.189V216.539H455.779H450.274H448.623V218.189V248.711C448.623 267.821 464.173 283.357 483.302 283.357C502.43 283.357 518.118 267.821 518.118 248.711V218.189V216.539H516.467H510.962ZM599.724 163.195V161.545H598.073H592.568H590.917V163.195V213.927H564.77C545.641 213.927 530.091 229.463 530.091 248.573C530.091 267.684 545.641 283.219 564.77 283.219H575.504C586.238 283.219 599.449 272.633 599.724 259.434V163.195ZM590.779 259.434C590.641 267.134 582.109 274.42 575.504 274.42H564.77C550.596 274.42 538.898 262.872 538.898 248.711C538.898 234.55 550.458 222.863 564.77 222.863H590.917C590.779 231.25 590.917 251.46 590.779 259.434ZM345.137 259.572V191.104C341.972 189.592 339.082 187.805 336.192 185.742V259.434C336.192 272.633 346.926 283.357 360.137 283.357H361.788V281.707V276.208V274.558H360.137C351.742 274.42 345.137 267.821 345.137 259.572ZM274.128 230.563C274.128 217.226 280.183 205.265 289.54 197.291C286.513 196.191 283.761 194.541 281.421 192.617C271.513 202.241 265.32 215.714 265.32 230.563C265.32 259.709 288.99 283.357 318.164 283.357H319.816V281.707V276.208V274.558H318.164C293.807 274.558 274.128 254.76 274.128 230.563Z" fill="#FEFEFE"/>
<path d="M275.917 60.0811C273.853 56.369 272.615 52.1069 272.615 47.7074C272.615 33.8214 283.899 22.5476 297.798 22.5476C302.89 22.5476 307.706 24.0599 311.697 26.8096C308.67 33.5464 307.018 40.8331 307.018 48.6698C307.018 50.0447 307.156 51.557 307.156 52.9318C306.192 52.9318 305.229 52.7944 304.128 52.7944C294.082 52.6569 284.312 55.2691 275.917 60.0811ZM270.413 157.833C255.826 147.247 246.192 130.061 246.192 110.676C246.192 105.726 246.881 100.914 247.981 96.3772C247.431 96.3772 247.018 96.3772 246.468 96.3772C219.77 96.3772 198.027 118.1 198.027 144.772C198.027 171.444 219.77 193.167 246.468 193.167C256.651 193.167 266.147 190.005 273.991 184.643C270.826 179.693 268.899 173.644 268.899 167.32C268.899 164.02 269.449 160.858 270.413 157.833ZM272.477 152.609C276.881 144.222 284.725 138.035 294.22 136.11C295.046 135.973 296.009 135.835 296.972 135.698C297.936 135.561 298.761 135.561 299.725 135.423C300.137 135.423 300.55 135.423 300.963 135.423C302.477 135.423 303.853 135.561 305.367 135.698C304.954 132.398 304.679 129.099 304.679 125.662C304.679 109.438 310.046 94.3149 318.991 82.0787C316.926 79.604 315.137 76.8543 313.624 73.9671C313.211 73.1422 312.798 72.3173 312.385 71.4924C311.972 70.6675 311.559 69.8425 311.284 69.0176C309.908 65.5805 308.807 62.0059 308.119 58.2938C306.881 58.1563 305.642 58.1563 304.403 58.1563C295.321 58.1563 286.651 60.4935 279.22 64.6181C278.394 65.0306 277.569 65.5805 276.743 65.993C275.917 66.5429 275.229 66.9553 274.403 67.5053C265.871 73.4172 259.128 81.8038 255.275 91.5652C255 92.3901 254.587 93.3525 254.312 94.1774C254.037 95.0024 253.761 95.9648 253.486 96.7897C252.248 101.189 251.559 105.864 251.559 110.676C251.697 127.724 259.954 142.985 272.477 152.609ZM442.431 90.6028C449.449 86.8907 457.293 84.691 465.688 84.141C463.486 59.3937 442.706 39.8707 417.385 39.8707C416.422 39.8707 415.459 39.8707 414.495 40.0082C414.908 42.7579 415.183 45.6451 415.183 48.5323C415.183 53.0693 414.633 57.4689 413.532 61.5934C425.642 68.3302 435.825 78.3666 442.431 90.6028ZM313.211 56.094C313.348 57.0564 313.624 58.0188 313.761 58.9812C314.312 61.181 314.862 63.3807 315.688 65.443C316.101 66.4054 316.376 67.2303 316.789 68.1927C317.202 69.0176 317.615 69.98 318.027 70.8049C319.266 73.2797 320.78 75.6169 322.431 77.8167C325.871 73.9671 329.587 70.3925 333.715 67.2303C334.541 66.6804 335.229 66.1304 336.055 65.5805C336.881 65.0306 337.706 64.4806 338.532 63.9307C349.679 56.7814 362.89 52.6569 376.926 52.5194C377.202 52.5194 377.615 52.5194 377.89 52.5194C378.853 52.5194 379.679 52.5194 380.642 52.6569C381.881 52.6569 383.119 52.7944 384.358 52.9318C392.89 53.6193 400.871 55.819 408.303 59.2562C408.991 55.819 409.403 52.3819 409.403 48.6698C409.403 45.9201 409.128 43.3079 408.715 40.8331C408.578 39.8707 408.44 39.0458 408.165 38.0834C408.027 37.121 407.752 36.2961 407.477 35.4712C401.972 14.8484 383.257 0 361.101 0C342.798 0 326.835 10.1739 318.578 25.0223C318.165 25.8472 317.614 26.6722 317.202 27.4971C316.789 28.4595 316.376 29.2844 315.963 30.2468C313.761 35.8837 312.385 41.933 312.385 48.3948C312.385 50.0447 312.523 51.557 312.66 53.2068C312.936 54.1692 313.073 55.1316 313.211 56.094ZM531.743 138.035C530.229 138.035 528.853 138.173 527.477 138.448C527.614 139.685 527.614 140.922 527.614 142.022C527.614 157.421 521.559 171.444 511.651 181.893C516.468 187.53 523.761 191.105 531.743 191.105C546.33 191.105 558.303 179.143 558.303 164.57C558.303 149.996 546.33 138.035 531.743 138.035ZM521.972 139.823C521.972 138.86 521.835 137.898 521.835 136.935C521.697 135.973 521.697 135.011 521.559 134.186C517.844 109.438 496.926 90.3278 471.468 89.5029C470.78 89.5029 470.229 89.5029 469.541 89.5029C469.266 89.5029 468.991 89.5029 468.715 89.5029C467.752 89.5029 466.926 89.5029 465.963 89.6404C458.394 90.1904 451.376 92.2526 445.046 95.5523C448.899 103.939 451.101 113.15 451.514 122.774C451.514 123.737 451.651 124.699 451.651 125.662C451.651 125.937 451.651 126.212 451.651 126.486C451.651 127.724 451.651 128.961 451.514 130.199C450.413 148.484 442.569 164.845 430.459 177.081C440.092 187.805 454.128 194.542 469.679 194.542C483.027 194.542 495.275 189.455 504.633 181.206C505.321 180.518 506.009 179.968 506.697 179.281C507.385 178.593 508.073 177.906 508.624 177.219C517.156 167.87 522.248 155.496 522.248 141.885C522.11 141.335 521.972 140.647 521.972 139.823ZM316.101 164.845C315.55 164.02 315.137 163.195 314.587 162.37C310.871 155.908 308.119 148.897 306.468 141.472C304.679 141.06 302.89 140.922 301.101 140.922C300.963 140.922 300.688 140.922 300.55 140.922C299.587 140.922 298.761 141.06 297.798 141.06C296.835 141.197 296.009 141.335 295.046 141.61C287.202 143.397 280.734 148.759 277.293 155.771C276.881 156.596 276.468 157.421 276.192 158.383C275.917 159.208 275.642 160.17 275.367 160.995C274.816 163.058 274.541 165.257 274.541 167.457C274.541 172.544 276.055 177.356 278.532 181.343C279.082 182.168 279.495 182.855 280.183 183.68C280.734 184.368 281.284 185.055 281.972 185.743C286.789 190.83 293.67 193.992 301.238 193.992C312.523 193.992 322.156 186.98 326.009 177.081C323.119 174.056 320.367 170.894 318.027 167.32C317.064 166.495 316.514 165.67 316.101 164.845ZM445.734 130.886C445.871 129.786 445.871 128.549 445.871 127.311C445.871 126.761 445.871 126.212 445.871 125.524C445.871 115.763 443.807 106.551 440.092 98.1645C439.679 97.3396 439.266 96.5147 438.853 95.6898C438.44 94.8649 438.027 94.04 437.614 93.215C431.559 82.2162 422.615 73.0047 411.743 66.8179C410.917 66.4054 410.092 65.8555 409.266 65.443C408.44 65.0306 407.614 64.6181 406.789 64.2056C398.394 60.2186 389.174 58.0188 379.404 57.7438C378.853 57.7438 378.303 57.7438 377.89 57.7438C377.202 57.7438 376.651 57.7438 375.963 57.7438C374.725 57.7438 373.624 57.8813 372.523 57.8813C361.789 58.7062 351.881 62.0059 343.073 67.3678C342.248 67.9177 341.422 68.3302 340.734 68.8801C339.908 69.4301 339.22 69.98 338.394 70.53C333.853 73.8296 329.725 77.5417 326.147 81.8038C325.596 82.4912 324.908 83.1786 324.358 84.0035C323.807 84.691 323.257 85.5159 322.706 86.2033C314.725 97.3396 310.046 110.813 310.046 125.524C310.046 129.374 310.321 133.223 311.009 136.798C311.147 137.898 311.422 138.86 311.559 139.96C311.835 141.06 312.11 142.16 312.385 143.397C314.037 149.584 316.651 155.358 319.954 160.72C320.504 161.545 320.917 162.37 321.468 163.058C322.018 163.882 322.569 164.57 323.119 165.395C324.358 167.182 325.734 168.832 327.11 170.344C327.936 171.169 328.624 172.132 329.449 172.957C330.137 173.781 330.963 174.469 331.789 175.156C343.899 186.293 360.137 193.167 377.89 193.167C394.954 193.167 410.642 186.843 422.614 176.394C423.303 175.844 423.991 175.156 424.679 174.606C425.367 173.919 426.055 173.369 426.743 172.682C436.651 162.37 443.394 149.034 445.321 134.186C445.459 133.223 445.596 132.123 445.734 130.886Z" fill="#FEFEFE"/>
</svg>
