<svg width="971" height="207" viewBox="0 0 971 207" fill="none" xmlns="http://www.w3.org/2000/svg">
<g clip-path="url(#clip0_124_77)">
<path d="M237.412 123.24C240.933 125.961 244.851 128.132 249.031 129.676C253.198 131.288 257.626 132.125 262.097 132.146C266.391 132.416 270.673 131.455 274.434 129.375C275.723 128.628 276.792 127.556 277.531 126.268C278.271 124.979 278.656 123.519 278.648 122.035C278.691 120.597 278.314 119.176 277.56 117.947C276.766 116.756 275.724 115.749 274.505 114.993C273.037 114.064 271.484 113.277 269.867 112.641C268.076 111.916 266.116 111.194 263.988 110.476L250.922 105.772C248.548 104.948 246.243 103.942 244.027 102.761C241.796 101.589 239.729 100.131 237.879 98.4237C236.044 96.7533 234.542 94.7531 233.453 92.5286C232.307 90.124 231.736 87.4883 231.785 84.8275C231.772 81.7565 232.599 78.74 234.177 76.1006C235.862 73.313 238.119 70.9088 240.798 69.0438C243.865 66.913 247.276 65.3218 250.884 64.3393C255.066 63.1825 259.392 62.6168 263.733 62.6595C269.174 62.6451 274.577 63.562 279.707 65.3695C284.511 66.9961 288.986 69.4622 292.92 72.652L284.356 81.5575C281.375 79.532 278.157 77.875 274.774 76.6226C271.232 75.3756 267.495 74.7638 263.737 74.8159C259.953 74.6358 256.191 75.4901 252.86 77.2859C251.622 77.9385 250.589 78.9172 249.872 80.1154C249.156 81.3137 248.784 82.685 248.799 84.0792C248.758 85.4824 249.191 86.8591 250.028 87.9889C250.946 89.1575 252.081 90.1397 253.372 90.8821C254.918 91.7906 256.546 92.5544 258.234 93.1638C260.075 93.8444 261.966 94.5061 263.908 95.1491L276.836 99.6044C279.493 100.502 282.066 101.629 284.526 102.973C286.732 104.169 288.761 105.668 290.551 107.423C292.238 109.103 293.591 111.084 294.542 113.261C295.551 115.683 296.043 118.286 295.989 120.906C296.007 124.062 295.209 127.169 293.672 129.93C292.003 132.868 289.694 135.399 286.914 137.335C283.647 139.609 280.016 141.316 276.175 142.383C271.526 143.694 266.711 144.327 261.88 144.264C255.584 144.278 249.33 143.263 243.366 141.258C237.641 139.374 232.305 136.478 227.613 132.71L237.478 123.212L237.412 123.24Z" fill="#FEFEFE"/>
<path d="M342.387 131.064H384.196V142.858H325.557V64.1602H382.753V75.9548H342.392V96.0525H376.507V107.842H342.392L342.387 131.064Z" fill="#FEFEFE"/>
<path d="M432.824 64.1602V131.064H472.31V142.858H415.984V64.1602H432.824Z" fill="#FEFEFE"/>
<path d="M518.058 64.1602V131.064H557.544V142.858H501.223V64.1602H518.058Z" fill="#FEFEFE"/>
<path d="M568.583 64.1599H585.858L594.138 103.867C594.904 108.119 595.675 112.33 596.451 116.498C597.226 120.666 598.001 124.839 598.777 129.017H599.363C600.426 124.842 601.466 120.651 602.484 116.442C603.501 112.236 604.528 108.044 605.601 103.867L617.215 64.1553H631.875L643.489 103.867C644.558 107.955 645.617 112.109 646.691 116.315C647.764 120.521 648.818 124.783 649.877 129.017H650.459C651.238 124.77 651.987 120.56 652.706 116.385C653.425 112.211 654.175 108.039 654.957 103.871L663.233 64.1599H679.344L661.194 142.853H640.292L628.531 101.453C627.759 98.4011 627.012 95.3714 626.29 92.3636C625.568 89.3558 624.913 86.3261 624.323 83.2744H623.741C623.063 86.3198 622.362 89.3495 621.637 92.3636C620.911 95.3776 620.162 98.4074 619.39 101.453L607.914 142.853H587.451L568.578 64.165L568.583 64.1599Z" fill="#FEFEFE"/>
<path d="M723.332 131.064H765.144V142.858H706.506V64.1602H763.697V75.9548H723.346V96.0525H757.46V107.842H723.346L723.332 131.064Z" fill="#FEFEFE"/>
<path d="M813.797 100.983H827.298C832.482 101.297 837.648 100.127 842.184 97.6101C843.862 96.5264 845.222 95.0207 846.126 93.2461C847.03 91.4715 847.447 89.4909 847.335 87.5044C847.512 85.5919 847.118 83.6698 846.202 81.9792C845.286 80.2886 843.888 78.9047 842.184 78.0011C837.492 75.9927 832.399 75.0865 827.298 75.3525H813.797V100.983ZM848.791 142.853L828.324 112.053H813.802V142.853H796.957V64.1557H829.047C833.673 64.1274 838.291 64.5291 842.841 65.3554C846.716 66.0229 850.447 67.3454 853.874 69.2651C856.886 70.9956 859.408 73.4575 861.204 76.4207C863.1 79.8006 864.031 83.6317 863.895 87.4998C864.142 92.8344 862.292 98.0552 858.736 102.056C854.998 105.923 850.248 108.673 845.022 109.997L867.663 142.849L848.791 142.853Z" fill="#FEFEFE"/>
<path d="M952.424 142.858L926.722 105.796L913.074 119.872V142.858H896.234V64.1602H913.074V99.9152H913.514L947.34 64.1602H966.067L936.885 94.8436L970.999 142.853L952.424 142.858Z" fill="#FEFEFE"/>
<path d="M146.658 119.853C140.217 126.688 124.242 135.025 107.36 141.31C124.242 135.03 140.193 126.688 146.658 119.853Z" fill="#FEFEFE"/>
<path d="M46.0538 154.257C44.8527 154.294 43.6896 154.304 42.6445 154.285C43.6896 154.304 44.8432 154.294 46.0538 154.257Z" fill="#FEFEFE"/>
<path d="M46.3248 77.8691C36.5265 83.4864 30.0146 89.1177 30.5679 93.2341C30.0241 89.1177 36.5312 83.4864 46.3248 77.8691Z" fill="#FEFEFE"/>
<path d="M112.671 29.2998C112.671 29.2998 112.056 29.4222 111.006 29.6622C112.065 29.4222 112.671 29.2998 112.671 29.2998Z" fill="#FEFEFE"/>
<path d="M74.943 39.8708C80.0786 38.1301 84.9166 36.6245 89.3145 35.3213C89.5368 35.2649 89.7876 35.1896 89.9957 35.1238C94.3558 33.8441 98.2428 32.7715 101.529 31.9388L102.003 31.821C106.159 30.7531 109.252 30.0382 111.016 29.6571C112.071 29.4172 112.681 29.2948 112.681 29.2948L143.088 53.189C131.076 50.912 96.7434 56.7882 72.8718 65.6798C63.7146 69.0306 54.8423 73.1051 46.3386 77.8644C36.545 83.4816 30.0378 89.1176 30.5816 93.2294C30.6426 93.7177 30.804 94.1888 31.055 94.6128C34.9232 101.03 49.1619 100.888 65.1977 95.8544C81.2335 90.8206 120.643 76.4437 147.007 73.7433C150.119 73.4234 153.183 73.2211 156.172 73.1552C164.339 72.755 172.507 73.9389 180.219 76.6411V51.7637L90.1042 0.0136719L-0.00976562 51.7637V78.8946C15.7331 66.0931 33.3929 55.8228 52.3294 48.4564C60.1416 45.1397 67.8213 42.2842 74.943 39.8708Z" fill="#FEFEFE"/>
<path d="M127.889 158.557C109.292 166.307 90.0785 172.499 70.4467 177.069C69.203 177.352 68.3374 177.54 67.8929 177.634L67.5581 177.7L37.1549 153.796C37.9839 153.951 38.8206 154.063 39.6613 154.13C40.5756 154.212 41.5678 154.263 42.6365 154.285C43.7005 154.285 44.8401 154.285 46.0412 154.257C66.9886 152.814 87.6296 148.458 107.361 141.315C124.248 135.025 140.212 126.684 146.658 119.853C149.325 117.03 150.403 114.433 149.164 112.373C145.296 105.965 131.057 106.101 115.022 111.14C98.9859 116.178 59.5748 130.546 33.211 133.252C27.2772 133.907 21.2957 134.026 15.3401 133.609C10.8964 133.295 6.50626 132.458 2.26056 131.116C1.4992 130.871 0.728255 130.645 0 130.353V155.24L90.114 206.99L180.229 155.24V128.114C164.485 140.915 146.825 151.187 127.889 158.557Z" fill="#FEFEFE"/>
<path d="M70.4498 177.069C69.1967 177.352 68.3371 177.54 67.8926 177.634C68.3371 177.54 69.2156 177.352 70.4498 177.069Z" fill="#FEFEFE"/>
<path d="M127.895 158.547C146.828 151.178 164.488 140.914 180.234 128.118C164.49 140.915 146.83 151.183 127.895 158.547Z" fill="#FEFEFE"/>
<path d="M149.169 112.378C145.301 105.961 131.062 106.101 115.027 111.14C98.9907 116.179 59.5749 130.547 33.2159 133.252C27.2836 133.907 21.3036 134.026 15.3496 133.609C21.3067 134.026 27.2897 133.907 33.2251 133.252C59.5936 130.533 99.0094 116.164 115.036 111.14C131.062 106.116 145.301 105.965 149.178 112.378C150.422 114.438 149.339 117.016 146.672 119.853C149.325 117.016 150.408 114.438 149.169 112.378Z" fill="#FEFEFE"/>
<path d="M42.6408 154.285C41.572 154.285 40.5795 154.215 39.6621 154.13C40.5795 154.215 41.572 154.261 42.6408 154.285Z" fill="#FEFEFE"/>
<path d="M143.078 53.1944C131.071 50.9127 96.735 56.7976 72.8586 65.6845C96.735 56.7976 131.066 50.9174 143.078 53.1944Z" fill="#FEFEFE"/>
<path d="M147.021 73.7248C120.653 76.444 81.2321 90.8162 65.2105 95.8359C49.1889 100.856 34.9456 101.011 31.0632 94.5989C34.9315 101.011 49.1747 100.874 65.2105 95.8359C81.2463 90.7974 120.657 76.4252 147.021 73.7248C150.128 73.4049 153.169 73.2026 156.172 73.1367C153.197 73.212 150.133 73.4096 147.021 73.7248Z" fill="#FEFEFE"/>
<path d="M2.26056 131.129C1.4992 130.885 0.728255 130.659 0 130.367C0.728255 130.645 1.4992 130.885 2.26056 131.129Z" fill="#FEFEFE"/>
<path d="M111.006 29.6572C109.242 30.043 106.154 30.7537 101.992 31.8263C106.149 30.7584 109.242 30.043 111.006 29.6572Z" fill="#FEFEFE"/>
<path d="M101.539 31.9434C98.2292 32.7902 94.3553 33.8253 90 35.1238C94.3553 33.8441 98.2481 32.7902 101.539 31.9434Z" fill="#FEFEFE"/>
<path d="M89.3195 35.3262C84.9169 36.6246 80.079 38.149 74.9434 39.8803C80.079 38.1349 84.9263 36.6246 89.3195 35.3262Z" fill="#FEFEFE"/>
</g>
<defs>
<clipPath id="clip0_124_77">
<rect width="971" height="207" fill="white"/>
</clipPath>
</defs>
</svg>
