<svg width="700" height="114" viewBox="0 0 700 114" fill="none" xmlns="http://www.w3.org/2000/svg">
<g clip-path="url(#clip0_124_63)">
<path d="M64.6638 0.000562443C57.5557 -0.0321407 50.5133 1.36161 43.9533 4.09934C37.3933 6.83707 31.449 10.8631 26.4723 15.9393L22.6257 6.04629C22.3052 5.06736 21.6777 4.21786 20.8363 3.62383C19.9949 3.0298 18.9844 2.72288 17.9548 2.74862H7.78877C7.10321 2.74862 6.42437 2.88366 5.791 3.14606C5.15764 3.40845 4.58214 3.79304 4.09738 4.27789C3.61262 4.76273 3.22809 5.33834 2.96574 5.97182C2.70339 6.6053 2.56836 7.28425 2.56836 7.96992V105.801C2.61428 107.171 3.17903 108.473 4.14827 109.442C5.11751 110.411 6.41882 110.976 7.78877 111.022H27.8461C33.0665 111.022 34.7151 109.648 34.7151 105.801V46.4428C36.7083 41.377 40.1922 37.0359 44.7058 33.9935C49.2194 30.9512 54.5502 29.3511 59.9929 29.4048C72.9065 29.4048 80.325 38.1986 80.325 52.4885V106.076C80.325 107.46 80.875 108.789 81.854 109.768C82.833 110.747 84.1609 111.297 85.5454 111.297H107.801C109.171 111.251 110.472 110.686 111.441 109.717C112.411 108.747 112.975 107.446 113.021 106.076V54.1374C112.746 25.8323 98.7338 0.000562443 64.6638 0.000562443Z" fill="#FEFEFE"/>
<path d="M177.041 -2.7409e-06C144.894 -2.7409e-06 121.814 26.1066 121.814 56.61C121.814 87.6631 144.894 113.22 177.316 113.22C192.087 113.554 206.431 108.248 217.43 98.3806C217.991 97.9787 218.453 97.454 218.78 96.8465C219.106 96.239 219.29 95.5648 219.317 94.8754C219.343 94.186 219.212 93.4996 218.932 92.8688C218.653 92.238 218.233 91.6794 217.705 91.2356L206.715 78.5945C204.791 76.3961 202.319 76.9457 199.571 78.5945C193.382 82.9844 186.001 85.3811 178.415 85.4647C171.917 85.532 165.636 83.1293 160.841 78.7421C156.047 74.355 153.097 68.3107 152.587 61.8314H221.827C223.115 61.8182 224.355 61.3371 225.315 60.4777C226.276 59.6182 226.891 58.4391 227.047 57.1596C227.367 54.6984 227.55 52.2214 227.596 49.7399C227.597 43.138 226.284 36.602 223.734 30.5129C221.183 24.4238 217.446 18.9035 212.74 14.2738C208.035 9.64405 202.455 5.99758 196.325 3.54695C190.196 1.09632 183.641 -0.109426 177.041 -2.7409e-06ZM154.785 43.4193C155.499 38.3146 158.033 33.6398 161.921 30.2563C165.809 26.8729 170.788 25.0087 175.942 25.0073C180.929 25.0952 185.708 27.0238 189.36 30.4226C193.012 33.8213 195.279 38.4502 195.724 43.4193H154.785Z" fill="#FEFEFE"/>
<path d="M298.208 55.511L332.278 10.7175C335.026 7.14505 333.652 2.74817 328.981 2.74817H304.802C303.243 2.53348 301.655 2.78405 300.238 3.46848C298.82 4.15291 297.636 5.2407 296.835 6.59544L278.975 31.8776H278.7L261.116 6.59544C260.148 5.20507 258.814 4.1097 257.263 3.43066C255.711 2.75162 254.001 2.51543 252.324 2.74817H229.793C228.827 2.63974 227.851 2.82703 226.994 3.28532C226.137 3.74362 225.438 4.45134 224.992 5.31492C224.545 6.1785 224.371 7.15729 224.493 8.12194C224.614 9.08658 225.025 9.99165 225.672 10.7175L259.742 55.7857L224.573 103.052C222.1 106.625 223.199 111.022 227.87 111.022H253.697C255.386 110.864 256.954 110.08 258.094 108.823L278.7 79.6939H278.975L298.208 106.625C298.985 107.975 300.107 109.094 301.459 109.867C302.811 110.639 304.344 111.038 305.902 111.022H329.806C334.202 111.022 335.575 106.625 333.103 103.052L298.208 55.511Z" fill="#FEFEFE"/>
<path d="M439.159 2.74867H418.552C414.156 2.74867 412.507 3.84788 412.507 7.96997V64.0304C410.858 73.6486 402.341 84.3661 390.801 84.3661C378.437 84.3661 371.019 75.5723 371.019 61.0076V7.96997C371.019 6.58519 370.468 5.25712 369.489 4.27793C368.51 3.29875 367.183 2.74867 365.798 2.74867H343.543C342.158 2.74867 340.83 3.29875 339.851 4.27793C338.872 5.25712 338.322 6.58519 338.322 7.96997V60.458C338.322 87.9386 350.412 113.77 383.932 113.77C405.363 113.77 415.255 102.503 420.2 98.1064L423.497 106.9C423.813 108.055 424.49 109.078 425.43 109.82C426.369 110.562 427.522 110.983 428.718 111.022H438.609C439.979 110.976 441.28 110.412 442.25 109.442C443.219 108.473 443.784 107.171 443.829 105.801V7.96997C443.914 7.3108 443.856 6.64118 443.658 6.00654C443.461 5.37191 443.13 4.78712 442.687 4.29186C442.244 3.7966 441.699 3.40243 441.091 3.13617C440.482 2.8699 439.823 2.73777 439.159 2.74867Z" fill="#FEFEFE"/>
<path d="M587.805 0.000437595C573.368 0.356974 559.65 6.37801 549.613 16.7636C545.497 11.3834 540.163 7.0581 534.048 4.14371C527.934 1.22931 521.215 -0.190751 514.444 0.000437595C507.624 -0.00621687 500.877 1.40752 494.633 4.15163C488.389 6.89574 482.784 10.9101 478.176 15.9392L474.33 5.77134C473.978 4.83312 473.334 4.03282 472.493 3.48852C471.652 2.94422 470.658 2.68478 469.659 2.7485H459.767C459.082 2.7485 458.403 2.88354 457.77 3.14593C457.136 3.40833 456.561 3.79292 456.076 4.27776C455.591 4.76261 455.207 5.33821 454.944 5.97169C454.682 6.60517 454.547 7.28413 454.547 7.9698V105.801C454.593 107.171 455.158 108.473 456.127 109.442C457.096 110.411 458.397 110.976 459.767 111.022H481.748C483.118 110.976 484.419 110.411 485.388 109.442C486.358 108.473 486.922 107.171 486.968 105.801V46.4427C489.716 39.0229 496.035 29.4047 509.773 29.4047C523.511 29.4047 529.831 38.1985 529.831 52.4884V106.076C529.831 107.46 530.381 108.788 531.36 109.768C532.339 110.747 533.667 111.297 535.051 111.297H555.383C556.753 111.251 558.055 110.686 559.024 109.717C559.993 108.747 560.558 107.446 560.604 106.076V51.1144C560.604 46.1678 560.329 40.9465 560.329 40.9465C562.946 37.3751 566.385 34.4866 570.355 32.5254C574.324 30.5642 578.707 29.5881 583.134 29.6795C596.597 29.6795 603.466 38.4733 603.466 52.7632V106.35C603.466 107.735 604.016 109.063 604.995 110.042C605.974 111.022 607.302 111.572 608.686 111.572H630.667C632.052 111.572 633.379 111.022 634.358 110.042C635.337 109.063 635.887 107.735 635.887 106.35V54.6868C635.338 25.8322 622.424 0.000437595 587.805 0.000437595Z" fill="#FEFEFE"/>
<path d="M692.213 70.9004H662.539C661.169 70.9463 659.867 71.5112 658.898 72.4806C657.929 73.45 657.364 74.7516 657.318 76.1217V105.801C657.364 107.171 657.929 108.473 658.898 109.442C659.867 110.411 661.169 110.976 662.539 111.022H692.213C693.583 110.976 694.884 110.411 695.853 109.442C696.822 108.473 697.387 107.171 697.433 105.801V76.1217C697.387 74.7516 696.822 73.45 695.853 72.4806C694.884 71.5112 693.583 70.9463 692.213 70.9004Z" fill="#FEFEFE"/>
</g>
<defs>
<clipPath id="clip0_124_63">
<rect width="700" height="113.77" fill="white"/>
</clipPath>
</defs>
</svg>
