<svg width="1038" height="333" viewBox="0 0 1038 333" fill="none" xmlns="http://www.w3.org/2000/svg">
<g clip-path="url(#clip0_124_32)">
<path d="M237.112 213.992C167.294 233.177 97.8904 252.311 28.4762 271.406C23.8339 272.683 19.1409 273.825 14.4153 274.74C4.67836 276.625 -2.46708 268.61 1.01653 259.254C8.21251 239.928 15.8424 220.763 23.2969 201.533C25.1607 196.726 27.0099 191.912 28.9221 187.123C29.4942 185.69 30.2571 184.334 30.9326 182.943C31.5923 183.173 32.252 183.402 32.9117 183.632C24.6395 209.768 16.3673 235.904 8.09513 262.039C8.5832 262.467 9.07127 262.894 9.55935 263.322C12.0007 262.657 14.4626 262.059 16.8805 261.317C73.0176 244.1 129.089 226.666 185.303 209.704C225.027 197.717 265.833 190.563 306.736 184.055C330.575 180.263 354.491 176.914 378.736 177.37C381.375 177.419 384.008 177.839 386.643 178.087C386.715 178.536 386.786 178.986 386.857 179.435C337.08 190.934 287.302 202.433 237.112 213.992Z" fill="#FEFEFE"/>
<path d="M197.256 122.179C203.196 107.127 209.001 92.4349 214.79 77.7359C215.665 75.5144 215.976 72.0008 219.28 73.3449C220.718 73.93 221.185 77.2937 221.734 79.4853C221.968 80.4172 221.283 81.5795 221.833 83.313C223.077 82.2476 224.409 81.2678 225.551 80.1025C232.144 73.3767 239.088 67.3313 248.785 65.4139C256.353 63.9176 262.158 66.8838 264.031 74.4153C265.377 79.8262 265.774 85.4731 266.539 90.6463C272.508 85.296 278.225 78.9091 285.148 74.3547C290.937 70.5463 297.958 68.1802 304.759 66.4598C311.92 64.6483 317.737 69.6438 318.834 77.0415C320.645 89.2536 317.774 100.892 314.261 112.378C311.49 121.439 308.37 130.404 305.059 139.282C304.02 142.068 303.664 146.651 298.923 145.607C294.089 144.543 290.085 137.54 291.457 133.37C293.795 126.261 296.468 119.255 298.609 112.088C301.079 103.82 303.261 95.4565 305.252 87.0593C305.693 85.1961 304.812 83.0193 304.54 80.9869C302.452 81.2901 300.183 81.1698 298.305 81.9683C289.125 85.8722 283.249 93.5365 278.236 101.552C270.401 114.083 263.228 127.041 256.077 139.984C251.79 147.745 250.541 147.779 245.047 140.566C241.893 136.424 242.171 132.873 243.552 128.14C247.171 115.735 250.319 103.161 252.869 90.4964C253.549 87.1176 251.404 83.1697 250.556 79.4831C246.856 80.9935 242.486 81.7123 239.583 84.1656C231.498 90.9966 225.523 99.6482 221.042 109.268C214.72 122.841 208.449 136.436 202.123 150.006C199.619 155.377 197.673 155.653 193.31 151.594C189.346 147.907 187.964 143.915 190.449 138.676C192.94 133.423 194.915 127.926 197.256 122.179Z" fill="#FEFEFE"/>
<path d="M153.407 102.42C164.793 98.527 176.18 94.6341 188.377 90.4639C186.467 98.4481 184.565 105.427 177.072 108.912C171.815 111.357 166.537 113.862 161.05 115.684C153.088 118.327 152.093 117.754 147.344 110.605C140.131 125.974 132.957 141.069 125.95 156.242C117.253 175.074 108.721 193.982 100.026 212.815C99.3177 214.35 97.9075 215.561 96.8233 216.922C95.541 215.743 94.1678 214.647 92.9917 213.37C87.2027 207.084 86.904 200.884 90.7758 192.842C114.611 143.338 136.442 92.8393 164.179 45.2894C173.746 28.8902 185.238 14.1194 203.161 5.79933C211.116 2.10644 219.357 -0.186181 228.179 0.0229599C229.95 0.0649519 231.712 0.47702 233.717 1.68384C231.765 2.70397 229.884 3.90398 227.848 4.71643C207.324 12.908 192.479 27.4105 181.943 46.4729C171.984 64.4893 162.404 82.715 152.375 101.41C152.53 102.121 152.968 102.27 153.407 102.42Z" fill="#FEFEFE"/>
<path d="M717.409 292.217C712.094 296.29 710.056 301.451 710.148 307.689C710.26 315.324 710.174 322.962 710.174 330.886C706.798 330.886 703.706 330.886 699.992 330.886C699.992 322.755 700.033 314.484 699.98 306.213C699.933 298.761 696.184 293.513 689.611 290.518C683.237 287.614 677.205 289.098 671.95 293.469C667.695 297.007 666.147 301.828 666.167 307.256C666.196 315.204 666.174 323.153 666.174 331.285C662.563 331.285 659.469 331.285 656.186 331.285C656.186 314.456 656.186 297.867 656.186 280.792C659.977 281.893 664.712 278.077 666.941 283.995C683.133 276.102 693.393 277.632 704.257 289.226C708.888 286.333 713.115 282.696 718.016 280.813C734.335 274.543 752.339 285.833 753.734 303.266C754.46 312.34 753.862 321.52 753.862 330.913C750.62 330.913 747.556 330.913 743.991 330.913C743.991 322.92 744.133 314.965 743.96 307.017C743.641 292.357 730.661 284.988 717.409 292.217Z" fill="#FEFEFE"/>
<path d="M882.549 276.006C882.549 294.48 882.549 312.456 882.549 331.333C878.644 329.996 873.932 334.11 871.381 328.085C857.464 335.81 843.685 334.07 834.846 323.471C826.358 313.295 826.327 298.761 834.771 288.629C843.638 277.988 857.571 276.177 871.804 284.19C871.804 276.089 871.804 268.259 871.804 260.121C875.567 260.121 878.796 260.121 882.548 260.121C882.548 265.295 882.548 270.401 882.549 276.006ZM863.836 291.403C856.734 287.841 849.936 288.196 844.034 293.693C838.861 298.511 837.322 304.615 839.593 311.406C841.958 318.477 848.144 322.845 855.417 322.822C862.638 322.8 868.828 318.337 871.258 311.401C873.826 304.069 871.486 297.329 863.836 291.403Z" fill="#FEFEFE"/>
<path d="M789.377 332.882C768.591 330.455 756.908 305.736 772.092 287.991C779.569 279.253 792.932 276.554 803.538 281.524C814.343 286.588 820.545 297.917 818.577 309.522C804.571 309.522 790.49 309.522 776.344 309.522C778.303 320.595 790.803 326.582 800.222 320.487C805.427 317.119 810.357 317.554 815.817 317.58C812.618 327.309 802.293 333.29 789.377 332.882ZM806.544 297.485C802.849 291.618 797.46 288.698 790.626 289.354C784.597 289.932 779.791 292.8 777.119 299.155C785.36 299.155 793.145 299.217 800.929 299.113C802.917 299.086 804.899 298.537 806.544 297.485Z" fill="#FEFEFE"/>
<path d="M612.413 330.549C599.21 335.457 586.422 331.928 579.158 321.655C571.987 311.513 572.627 298.078 580.744 288.349C588.235 279.37 601.638 276.495 612.563 281.526C623.271 286.456 629.488 297.901 627.482 309.567C613.462 309.567 599.359 309.567 585.184 309.567C587.248 320.758 599.29 326.053 609.302 320.577C615.786 317.03 616.818 316.852 625.031 317.979C622.566 323.872 618.107 327.548 612.413 330.549ZM612.999 299.158C613.916 299.114 614.833 299.069 615.902 299.018C612.854 292.449 607.007 288.835 600.453 289.193C593.832 289.555 588.401 293.439 586.71 299.157C595.205 299.157 603.648 299.157 612.999 299.158Z" fill="#FEFEFE"/>
<path d="M931.352 284.287C949.746 272.15 968.596 282.809 973.128 297.698C974.168 301.114 974.333 304.798 975.011 309.048C960.073 309.048 945.88 309.048 931.604 309.048C933.407 320.417 945.419 326.422 955.287 320.525C960.524 317.396 965.501 317.47 970.915 317.565C970.579 324.363 958.35 332.43 949.76 332.926C938.212 333.592 927.309 327.25 922.859 316.824C917.868 305.135 920.889 293.244 931.352 284.287ZM936.772 299.165C945.168 299.165 953.564 299.165 962.202 299.165C959.403 292.645 953.538 288.874 947.161 289.068C940.706 289.264 935.177 293.033 932.939 298.99C933.971 299.052 934.91 299.108 936.772 299.165Z" fill="#FEFEFE"/>
<path d="M353.98 309.18C342.839 309.18 332.194 309.18 321.539 309.18C322.411 319.993 335.292 326.549 345.173 320.524C350.377 317.351 355.312 317.494 360.746 317.581C358.225 327.963 344.115 334.975 331.609 332.275C317.442 329.217 308.311 315.587 310.835 301.264C313.338 287.054 326.699 277.268 341.022 279.153C355.274 281.029 365.373 294.118 363.686 309.18C360.674 309.18 357.575 309.18 353.98 309.18ZM323.663 296.267C323.24 297.084 322.817 297.901 322.303 298.892C332.4 298.892 342.074 298.892 351.871 298.892C346.519 287.324 333.675 285.931 323.663 296.267Z" fill="#FEFEFE"/>
<path d="M488.518 283.369C497.068 289.434 500.805 297.562 500.845 307.527C500.876 315.17 500.851 322.812 500.851 330.384C493.701 332.121 491.613 331.642 489.987 327.821C479.46 334.626 468.706 335.027 458.266 327.965C446.616 320.084 443.535 304.457 450.776 292.065C457.645 280.308 472.538 275.736 485.132 281.532C486.187 282.017 487.191 282.611 488.518 283.369ZM490.815 306.398C490.201 303.835 489.964 301.104 488.907 298.739C485.007 290.013 474.162 286.605 465.707 291.228C457.38 295.781 454.516 306.927 459.622 314.907C463.437 320.87 470.052 323.899 476.687 322.547C485.046 320.843 489.45 315.423 490.815 306.398Z" fill="#FEFEFE"/>
<path d="M247.291 279.361C262.442 284.044 269.086 293.008 269.173 308.524C269.214 315.835 269.18 323.147 269.18 330.82C265.827 330.82 262.635 330.82 258.99 330.82C258.99 323.022 259.009 315.243 258.986 307.463C258.954 296.859 252.351 289.434 242.704 289.11C233.343 288.796 225.766 296.093 225.291 306.49C224.927 314.453 225.218 322.446 225.218 330.802C221.988 330.802 218.926 330.802 215.504 330.802C215.504 314.396 215.504 297.842 215.504 281.243C222.044 279.41 224.507 280.034 225.649 284.33C232.159 280.084 239.179 278.091 247.291 279.361Z" fill="#FEFEFE"/>
<path d="M983.996 294.011C983.996 289.362 983.996 285.21 983.996 280.775C987.336 280.775 990.437 280.775 993.695 280.775C993.88 281.841 994.069 282.931 994.304 284.285C995.034 283.929 995.627 283.697 996.163 283.371C1014.32 272.327 1036.14 283.118 1037.74 304.26C1038.41 313.004 1037.85 321.84 1037.85 330.902C1034.62 330.902 1031.54 330.902 1027.83 330.902C1027.83 323.031 1028.22 315.079 1027.66 307.194C1027.38 303.251 1026.11 298.937 1023.95 295.667C1020.07 289.775 1012.83 287.911 1006.28 289.969C998.899 292.288 994.342 297.925 994.11 305.799C993.865 314.086 994.055 322.385 994.055 330.922C990.599 330.922 987.537 330.922 983.996 330.922C983.996 318.728 983.996 306.618 983.996 294.011Z" fill="#FEFEFE"/>
<path d="M535.408 279.125C550.163 278.619 560.208 285.122 564.022 297.624C561.035 298.459 558.052 299.293 555.132 300.11C547.119 289.952 540.689 287.113 532.683 290.105C525.999 292.604 521.498 299.685 521.941 307.004C522.385 314.335 527.625 320.513 534.837 322.21C543.146 324.166 549.188 321.061 554.557 311.777C557.573 312.508 560.727 313.272 563.894 314.04C561.044 324.443 552.717 331.668 541.549 332.687C530.78 333.669 521.931 329.592 516.018 320.351C509.936 310.846 510.501 298.902 517.039 289.872C521.481 283.737 527.67 280.519 535.408 279.125Z" fill="#FEFEFE"/>
<path d="M100.121 99.9621C88.9294 123.701 76.7892 146.485 64.51 169.064C55.5545 165.329 52.9109 159.365 56.8484 152.073C66.712 133.804 76.8012 115.654 87.0837 97.6189C88.3248 95.442 91.1067 93.7169 93.5558 92.7915C95.4807 92.0641 98.6952 92.1023 100.026 93.2807C101.105 94.2367 100.236 97.3931 100.121 99.9621Z" fill="#FEFEFE"/>
<path d="M414.135 287.043C414.047 279.673 414.348 272.916 419.043 267.228C424.763 260.297 432.307 259.072 440.817 260.061C440.817 263.221 440.817 266.302 440.817 267.928C435.602 270.185 429.402 270.954 427.079 274.363C424.248 278.517 424.678 284.893 423.582 290.947C429.255 290.947 433.674 290.947 438.32 290.947C438.32 294.493 438.32 297.591 438.32 301.054C433.944 301.054 429.662 301.054 424.858 301.054C424.858 311.123 424.858 320.854 424.858 330.891C421.091 330.891 417.842 330.891 414.134 330.891C414.134 316.392 414.134 301.963 414.135 287.043Z" fill="#FEFEFE"/>
<path d="M281.409 277.004C281.409 271.542 281.409 266.578 281.409 261.368C285.008 261.368 288.1 261.368 291.807 261.368C291.807 267.305 291.807 273.196 291.807 279.381C296.538 279.381 300.66 279.381 305.184 279.381C305.184 282.737 305.184 285.795 305.184 289.333C301.016 289.333 296.762 289.333 291.979 289.333C291.979 303.532 291.979 317.274 291.979 331.298C288.357 331.298 285.257 331.298 281.408 331.298C281.408 313.352 281.408 295.428 281.409 277.004Z" fill="#FEFEFE"/>
<path d="M375.988 281.162C378.332 280.871 380.378 280.548 382.309 280.884C383.795 281.143 385.136 282.232 387.42 283.402C391.646 282.101 397.226 280.384 403.504 278.451C403.504 282.773 403.504 285.825 403.504 289.248C402.01 289.48 400.389 289.678 398.791 289.992C391.63 291.402 386.024 298.116 385.907 305.72C385.778 314.041 385.877 322.366 385.877 331.13C382.493 331.13 379.297 331.13 375.641 331.13C375.641 314.589 375.641 298.001 375.988 281.162Z" fill="#FEFEFE"/>
<path d="M898.56 331.149C897.796 330.432 897.17 329.769 897.167 329.104C897.111 314.292 897.124 299.479 897.124 284.317C900.584 284.317 903.816 284.317 907.317 284.317C907.317 299.723 907.317 315.167 907.317 331.202C904.552 331.202 901.77 331.202 898.56 331.149Z" fill="#FEFEFE"/>
<path d="M190.811 312C190.811 302.543 190.811 293.586 190.811 284.307C194.04 284.307 197.115 284.307 200.527 284.307C200.527 299.716 200.527 315.247 200.527 331.162C197.595 331.162 194.542 331.162 190.811 331.162C190.811 324.972 190.811 318.736 190.811 312Z" fill="#FEFEFE"/>
<path d="M107.467 80.4688C105.43 82.4346 102.869 85.8403 101.93 85.4403C99.1883 84.2713 94.4402 86.5532 93.6939 81.4377C93.5754 80.6253 93.1206 79.8165 93.1766 79.0314C93.555 73.7266 101.504 67.1743 106.715 67.7938C111.313 68.3404 112.564 70.3005 110.769 74.4785C109.921 76.4529 108.724 78.2775 107.467 80.4688Z" fill="#FEFEFE"/>
<path d="M897.195 268.35C900.477 267.531 903.672 267.156 907.272 266.733C907.272 270.222 907.272 273.1 907.272 276.31C903.987 276.31 900.784 276.31 897.107 276.31C897.107 273.666 897.107 271.231 897.195 268.35Z" fill="#FEFEFE"/>
<path d="M195.142 267.114C197.192 267.114 198.797 267.114 200.633 267.114C200.633 270.348 200.633 273.089 200.633 276.21C197.61 276.21 194.564 276.21 191.143 276.21C191.143 273.534 191.143 270.673 191.143 267.361C192.241 267.285 193.47 267.199 195.142 267.114Z" fill="#FEFEFE"/>
</g>
<defs>
<clipPath id="clip0_124_32">
<rect width="1038" height="333" fill="white"/>
</clipPath>
</defs>
</svg>
