<svg width="1275" height="181" viewBox="0 0 1275 181" fill="none" xmlns="http://www.w3.org/2000/svg">
<g clip-path="url(#clip0_124_108)">
<path d="M147.018 109.583C143.573 120.256 140.215 130.601 136.832 140.939C134.713 147.415 131.826 149.492 124.961 149.493C98.0592 149.499 71.1577 149.5 44.2562 149.492C37.6694 149.491 34.6244 147.354 32.6172 141.185C24.268 115.522 15.9381 89.8531 7.63534 64.1754C5.54526 57.7115 6.69997 54.3519 12.2855 50.2916C34.0239 34.4891 55.7693 18.6962 77.5221 2.9134C82.938 -1.01612 86.432 -1.03911 91.8076 2.8622C113.787 18.814 135.758 34.7787 157.715 50.7614C162.594 54.3132 163.792 57.9011 161.921 63.7035C157.021 78.9005 152.042 94.0717 147.018 109.583Z" fill="#FEFEFE"/>
<path d="M277.129 147.064C266.155 148.439 255.824 147.644 246.16 142.705C233.247 136.105 227.312 125.066 226.174 110.751C234.437 110.751 242.469 110.751 250.618 110.751C251.444 113.068 252.259 115.462 253.147 117.828C257.97 130.671 276.974 129.628 282.991 120.467C288.821 111.588 288.822 96.4265 282.392 87.9792C276.034 79.6261 260.58 79.7102 254.036 88.3269C252.537 90.3017 251.141 90.8885 248.794 90.7087C242.753 90.2461 236.693 90.0494 230.062 89.7175C233.009 66.5365 235.925 43.5989 238.862 20.498C262.032 20.498 285.032 20.498 308.211 20.498C308.211 27.4467 308.211 34.1734 308.211 41.2689C291.126 41.2689 274.199 41.2689 256.93 41.2689C255.436 50.292 253.992 59.0143 252.399 68.6401C259.586 63.3098 267.094 61.3917 275.187 61.701C296.92 62.5315 311.291 76.3613 313.011 98.0649C314.566 117.691 305.358 136.103 290.021 143.249C286.11 145.071 281.687 145.795 277.129 147.064Z" fill="#FEFEFE"/>
<path d="M419.682 107.92C419.682 77.4843 419.682 47.4735 419.682 17.1719C427.781 17.1719 435.779 17.1719 444.219 17.1719C444.219 31.5864 444.219 46.0703 444.219 61.4629C456.108 46.2734 470.824 44.3601 486.929 50.2789C497.075 54.0078 503.441 61.7258 504.199 72.8905C504.802 81.7735 504.84 90.7025 504.904 99.6127C505.009 114.328 504.932 129.045 504.932 144.05C496.5 144.05 488.243 144.05 479.53 144.05C479.53 142.616 479.53 141.244 479.53 139.873C479.53 122.883 479.534 105.893 479.524 88.9031C479.524 87.2055 479.507 85.5041 479.397 83.811C478.828 75.0612 475.24 69.9643 468.614 68.43C460.039 66.4442 451.222 69.5346 447.99 77.0667C445.724 82.3491 444.638 88.4632 444.457 94.2507C443.984 109.385 444.296 124.544 444.296 139.693C444.296 141.081 444.296 142.469 444.296 144.096C435.974 144.096 428 144.096 419.682 144.096C419.682 132.07 419.682 120.208 419.682 107.92Z" fill="#FEFEFE"/>
<path d="M389.439 62.0201C389.439 64.2534 389.439 66.0625 389.439 68.2594C384.239 68.2594 379.356 68.2594 374.048 68.2594C374.048 72.8434 374.048 77.0468 374.048 81.2501C374.048 93.5673 374.007 105.885 374.065 118.202C374.099 125.622 375.058 126.553 382.331 126.725C384.563 126.778 386.798 126.733 389.22 126.733C389.22 132.933 389.22 138.926 389.22 145.838C380.557 145.41 372.049 145.647 363.762 144.411C353.82 142.928 349.562 137.08 349.532 126.926C349.48 109.088 349.518 91.2489 349.518 73.4102C349.518 71.863 349.518 70.3157 349.518 68.3496C345.124 68.3496 340.961 68.3496 336.615 68.3496C336.615 62.3318 336.615 56.7354 336.615 50.6972C340.869 50.6972 345.031 50.6972 349.441 50.6972C349.441 41.7985 349.441 33.3336 349.441 24.583C357.692 24.583 365.685 24.583 373.946 24.583C373.946 33.0809 373.946 41.5356 373.946 50.3824C379.061 50.3824 383.938 50.3824 389.439 50.3824C389.439 54.3683 389.439 57.9821 389.439 62.0201Z" fill="#FEFEFE"/>
<path d="M758.881 49.8036C771.872 50.408 782.432 55.1492 790.765 66.1544C790.765 49.1129 790.765 32.9541 790.765 16.5566C794.517 16.5566 797.83 16.5566 801.424 16.5566C801.424 58.9866 801.424 101.384 801.424 144.063C798.198 144.063 794.867 144.063 791.091 144.063C791.091 139.341 791.091 134.46 791.091 129.25C787.622 132.773 784.86 136.325 781.402 138.968C761.511 154.17 725.699 148.106 718.973 116.106C716.335 103.555 716.129 91.1072 719.896 78.78C725.603 60.1037 738.953 50.1612 758.881 49.8036ZM777.19 65.4847C760.039 53.3907 738.784 59.9605 731.61 79.712C727.484 91.07 727.229 102.782 730.254 114.365C734.692 131.357 751.446 140.758 768.205 135.966C778.606 132.992 785.103 125.787 788.008 115.652C793.251 97.3532 792.501 80.0961 777.19 65.4847Z" fill="#FEFEFE"/>
<path d="M967.222 83.2195C973.682 89.1659 981.735 90.4801 989.47 92.6593C996.247 94.5686 1003.15 96.2929 1009.59 99.0565C1017.92 102.632 1023.2 108.945 1023.46 118.621C1023.73 128.609 1019.81 136.464 1011.01 141.054C998.157 147.756 984.512 149.105 970.764 144.082C958.831 139.722 951.473 128.734 951.062 115.725C954.543 115.725 958.02 115.725 961.485 115.725C961.674 115.951 961.938 116.13 962.002 116.364C967.055 134.863 984.732 142.841 1002.23 134.508C1009.14 131.219 1012.68 124.762 1011.75 117.691C1011.12 112.922 1008.3 109.685 1004.21 108.212C997.343 105.735 990.192 104.035 983.155 102.018C978.005 100.541 972.688 99.4883 967.734 97.5198C959.104 94.0901 953.452 88.052 953.003 78.1751C952.539 67.9807 955.998 59.3398 965.132 54.6711C980.023 47.0605 995.217 47.563 1009.51 56.59C1017.29 61.5078 1019.71 69.727 1020.94 78.6588C1017.23 78.6588 1013.77 78.6588 1010.32 78.6588C1005.48 62.3958 992.125 55.5091 975.763 60.7964C965.441 64.1317 961.527 74.0472 967.222 83.2195Z" fill="#FEFEFE"/>
<path d="M1221.48 136.859C1210.63 108.646 1199.89 80.7481 1188.94 52.3191C1192.77 52.3191 1196.15 52.0249 1199.43 52.4822C1200.54 52.6376 1201.79 54.5367 1202.3 55.8937C1211.02 79.0246 1219.64 102.196 1228.28 125.356C1228.87 126.933 1229.51 128.489 1230.44 130.83C1234.35 120.429 1238.03 110.724 1241.67 101.001C1247.25 86.0491 1252.91 71.1226 1258.28 56.0946C1259.4 52.974 1260.91 51.8776 1264.08 52.2608C1266.3 52.5294 1268.58 52.3126 1271.46 52.3126C1269.76 56.8368 1268.22 60.9885 1266.64 65.1264C1254.73 96.4063 1242.85 127.701 1230.82 158.938C1229.37 162.728 1227.35 166.373 1225.13 169.788C1218.36 180.227 1210.11 182.964 1197.94 179.08C1197.94 175.9 1197.94 172.692 1197.94 169.539C1198.28 169.453 1198.42 169.375 1198.54 169.393C1210.38 171.194 1214.26 171.707 1220.47 156.28C1221.79 153.012 1223.53 149.682 1223.78 146.286C1224 143.318 1222.39 140.217 1221.48 136.859Z" fill="#FEFEFE"/>
<path d="M638.063 60.5615C624.717 65.1383 618.503 74.8022 618.115 88.0158C617.614 105.132 617.862 122.271 617.789 139.4C617.782 140.919 617.788 142.438 617.788 144.151C614.052 144.151 610.735 144.151 607.203 144.151C607.203 113.581 607.203 83.1925 607.203 52.5537C610.536 52.5537 613.875 52.5537 617.681 52.5537C617.681 56.2692 617.681 59.9872 617.681 64.3629C621.829 61.003 625.226 57.922 628.946 55.2997C639.691 47.7259 658.008 47.9822 668.623 55.7485C676.238 61.3208 679.948 68.9266 679.953 78.339C679.963 100.137 679.956 121.936 679.956 144.042C676.597 144.042 673.274 144.042 669.343 144.042C669.343 142.689 669.343 141.189 669.343 139.689C669.343 121.567 669.246 103.443 669.37 85.3218C669.489 67.9073 662.532 56.1967 638.063 60.5615Z" fill="#FEFEFE"/>
<path d="M915.648 100.272C915.648 115.105 915.648 129.513 915.648 144.131C912.129 144.131 908.93 144.131 905.188 144.131C905.188 140.394 905.188 136.572 905.188 132.751C904.87 132.612 904.552 132.473 904.235 132.334C903.044 133.639 901.904 134.995 900.656 136.242C890.067 146.819 873.019 150.149 859.39 144.117C847.567 138.884 843.023 128.787 842.811 116.741C842.441 95.6612 842.707 74.5707 842.722 53.4848C842.722 53.2383 842.929 52.992 843.136 52.5318C846.379 52.5318 849.708 52.5318 853.395 52.5318C853.395 54.0701 853.395 55.4504 853.395 56.8307C853.396 74.3806 853.396 91.9305 853.396 109.48C853.396 110.471 853.389 111.462 853.398 112.453C853.52 126.293 858.273 133.681 868.676 136.206C882.234 139.496 894.069 134.578 900.181 123.178C904.044 115.974 905.027 108.172 905.051 100.18C905.094 85.7442 905.063 71.3079 905.063 56.8717C905.063 55.4763 905.063 54.0809 905.063 52.5C908.596 52.5 911.81 52.5 915.648 52.5C915.648 68.3029 915.648 84.075 915.648 100.272Z" fill="#FEFEFE"/>
<path d="M1072.94 48.3136C1072.55 51.367 1073.35 52.5713 1076.35 52.3887C1080.84 52.1161 1085.35 52.3179 1090.06 52.3179C1090.06 55.3183 1090.06 57.9456 1090.06 61.03C1084.52 61.03 1078.95 61.03 1073.2 61.03C1073.09 62.417 1072.94 63.3701 1072.94 64.3233C1072.93 84.6994 1072.9 105.076 1072.95 125.452C1072.97 135.919 1075.31 137.958 1085.66 136.832C1087.32 136.651 1088.96 136.328 1090.61 136.07C1091.64 145 1091.66 145.107 1083.08 146.414C1080.33 146.833 1077.41 146.889 1074.66 146.479C1066.83 145.307 1063.32 141.469 1062.52 133.572C1062.26 131.045 1062.23 128.488 1062.22 125.945C1062.2 105.993 1062.21 86.0412 1062.21 66.0895C1062.21 64.5642 1062.21 63.0389 1062.21 61.2269C1057.82 61.2269 1053.76 61.2269 1049.46 61.2269C1049.46 58.1983 1049.46 55.4581 1049.46 52.2993C1053.69 52.2993 1057.73 52.2993 1062.13 52.2993C1062.13 43.6068 1062.13 35.3218 1062.13 26.7959C1065.8 26.7959 1069.1 26.7959 1072.93 26.7959C1072.93 33.8574 1072.93 40.879 1072.94 48.3136Z" fill="#FEFEFE"/>
<path d="M549.24 24.6871C549.24 21.7563 549.24 19.2425 549.24 16.5186C553.391 16.5186 557.159 16.5186 561.235 16.5186C561.235 58.9623 561.235 101.455 561.235 144.155C557.37 144.155 553.609 144.155 549.24 144.155C549.24 104.475 549.24 64.7894 549.24 24.6871Z" fill="#FEFEFE"/>
<path d="M1137.22 76.5496C1135.86 84.4749 1133.83 92.0649 1133.54 99.7223C1132.96 114.402 1133.37 129.119 1133.37 144.078C1129.8 144.078 1126.5 144.078 1122.89 144.078C1122.89 113.632 1122.89 83.1583 1122.89 52.5032C1126.29 52.5032 1129.63 52.5032 1133.38 52.5032C1133.38 57.5309 1133.38 62.395 1133.38 67.2591C1133.67 67.5084 1133.96 67.7576 1134.25 68.0069C1139.73 54.7791 1149.79 49.4439 1163.56 49.9552C1163.56 53.7115 1163.56 57.326 1163.56 61.3329C1152.06 61.3475 1142.61 65.2292 1137.22 76.5496ZM1133.36 68.3037C1133.49 68.3174 1133.62 68.3311 1133.74 68.3448C1133.69 68.2628 1133.63 68.1807 1133.36 68.3037Z" fill="#FEFEFE"/>
</g>
<defs>
<clipPath id="clip0_124_108">
<rect width="1275" height="181" fill="white"/>
</clipPath>
</defs>
</svg>
