<svg width="128" height="128" viewBox="0 0 128 128" fill="none" xmlns="http://www.w3.org/2000/svg">
<g clip-path="url(#clip0_361_26)">
<path d="M32.24 39.96H49.712C50.0107 40.856 50.8853 41.624 52.336 42.264C53.7867 42.8613 55.728 43.3307 58.16 43.672C60.6347 43.9707 63.4933 44.12 66.736 44.12C69.936 44.12 72.4533 44.0347 74.288 43.864C76.1653 43.6507 77.488 43.3093 78.256 42.84C79.024 42.328 79.408 41.6453 79.408 40.792C79.408 39.9813 78.7893 39.3627 77.552 38.936C76.3147 38.4667 74.1173 38.1467 70.96 37.976C67.8027 37.8053 63.3653 37.72 57.648 37.72C53.3813 37.72 49.6907 37.528 46.576 37.144C43.504 36.7173 40.9653 36.0773 38.96 35.224C36.9973 34.328 35.5467 33.2187 34.608 31.896C33.6693 30.5307 33.2 28.9093 33.2 27.032C33.2 23.7893 34.288 21.1227 36.464 19.032C38.6827 16.8987 42.0107 15.32 46.448 14.296C50.928 13.2293 56.5173 12.696 63.216 12.696C73.0293 12.696 80.5173 14.1253 85.68 16.984C90.8853 19.8 93.488 23.8747 93.488 29.208H76.912C76.6987 27.8 75.376 26.7333 72.944 26.008C70.512 25.24 67.056 24.856 62.576 24.856C58.1387 24.856 54.832 25.112 52.656 25.624C50.5227 26.136 49.456 27.0107 49.456 28.248C49.456 28.888 49.7547 29.4 50.352 29.784C50.9493 30.168 51.9733 30.488 53.424 30.744C54.9173 30.9573 57.008 31.1067 59.696 31.192C62.384 31.2773 65.7973 31.32 69.936 31.32C74.5013 31.32 78.384 31.5547 81.584 32.024C84.784 32.4507 87.3653 33.112 89.328 34.008C91.3333 34.904 92.784 36.056 93.68 37.464C94.576 38.8293 95.024 40.4507 95.024 42.328C95.024 45.5707 94 48.216 91.952 50.264C89.904 52.312 86.6613 53.8267 82.224 54.808C77.7867 55.7893 71.984 56.28 64.816 56.28C60.7627 56.28 57.0293 56.0453 53.616 55.576C50.2453 55.1067 47.2373 54.424 44.592 53.528C41.9467 52.5893 39.7067 51.4587 37.872 50.136C36.0373 48.7707 34.6293 47.256 33.648 45.592C32.7093 43.8853 32.24 42.008 32.24 39.96Z" fill="#101418"/>
<path d="M95.992 73.04V85.2H47.48V90.64H87.16V101.52H47.48V114H31.48V73.04H95.992Z" fill="#101418"/>
</g>
<defs>
<clipPath id="clip0_361_26">
<rect width="128" height="128" fill="white"/>
</clipPath>
</defs>
<style>
    path { fill: #101418; }
    @media (prefers-color-scheme: dark) {
        path { fill: #f2f6f9; }
    }
</style>
</svg>
