<svg width="10" height="334" viewBox="0 0 10 334" fill="none" xmlns="http://www.w3.org/2000/svg">
<path d="M3 3C3 5.58471 3 8.16942 3 10.7541C3 12.4733 4 14.2006 4 15.9882C4 20.0874 5.33333 24.1232 5.33333 28.3948C5.33333 33.5283 5.33333 38.6619 5.33333 43.7954C5.33333 45.1005 5.55416 46.6745 4.81481 47.7801C4.15348 48.7691 4.33333 49.8755 4.33333 51.0972C4.33333 53.5527 4.33333 56.0081 4.33333 58.4636C4.33333 63.2669 4.33333 68.0701 4.33333 72.8734C4.33333 79.308 4 85.6035 4 91.9787C4 96.6134 5.33333 100.972 5.33333 105.548C5.33333 107.968 5.66667 110.172 5.66667 112.549C5.66667 116.797 5.66667 121.556 5.66667 125.989C5.66667 134.339 6 142.633 6 151.018C6 153.603 6 156.187 6 158.772C6 163.409 4.66667 167.853 4.66667 172.406C4.66667 182.042 4.66667 191.677 4.66667 201.312C4.66667 209.962 5.66667 218.583 5.66667 227.267C5.66667 234.834 5.66667 242.402 5.66667 249.969C5.66667 267.142 5.66667 284.386 5.66667 301.534C5.66667 307.221 5.66667 312.907 5.66667 318.593C5.66667 322.865 5 326.748 5 331" stroke="white" stroke-width="5" stroke-linecap="round"/>
</svg>
