<svg width="11" height="334" viewBox="0 0 11 334" fill="none" xmlns="http://www.w3.org/2000/svg">
<path d="M3 3C3 5.75591 3.28145 7.98399 3.76356 10.6356C4.08929 12.4271 4.57076 14.0904 4.57076 15.9587C4.57076 20.7217 5.74882 25.3437 5.74882 30.0955C5.74882 35.694 4.57076 41.1016 4.57076 46.5885C4.57076 50.9953 4.57076 55.4021 4.57076 59.809C4.57076 65.4801 5.74882 71.0867 5.74882 76.7382C5.74882 78.4525 6.14151 79.9948 6.14151 81.7123C6.14151 83.1202 6.23885 85.2163 6.62146 86.5555C7.68664 90.2836 7.31958 94.9129 7.31958 98.8161C7.31958 101.43 7.39676 103.998 6.92689 106.583C6.62025 108.269 5.87177 109.966 5.74882 111.688C5.56928 114.201 4.57076 116.5 4.57076 119.061C4.57076 121.679 4.57076 124.297 4.57076 126.915C4.57076 136.745 6.14151 146.391 6.14151 156.149C6.14151 173.031 5.74882 189.515 5.74882 206.413C5.74882 214.892 5.74882 223.371 5.74882 231.85C5.74882 234.564 5.35613 237.367 5.35613 239.879C5.35613 241.544 5.50793 243.035 5.72701 244.678C5.9372 246.255 5.78252 248.19 6.22877 249.696C7.25334 253.154 6.92689 257.056 6.92689 260.647C6.92689 265.308 6.5342 269.927 6.5342 274.544C6.5342 281.096 6.5342 287.649 6.5342 294.201C6.5342 306.357 6.5342 318.945 6.5342 330.895" stroke="white" stroke-width="5" stroke-linecap="round"/>
</svg>
