<svg width="11" height="335" viewBox="0 0 11 335" fill="none" xmlns="http://www.w3.org/2000/svg">
<path d="M3 3C3 6.00856 4.73541 8.71543 4.73541 11.7263C4.73541 13.8649 4.73541 16.0035 4.73541 18.1421C4.73541 23.8015 4.73541 29.4608 4.73541 35.1202C4.73541 45.6662 5.42957 55.9096 5.42957 66.4977C5.42957 74.9929 5.08249 83.3146 5.08249 91.8308C5.08249 98.3465 4.32826 105.64 5.41029 112.007C6.168 116.465 6.47082 121.364 6.47082 125.911C6.47082 131.554 5.08249 136.8 5.08249 142.456C5.08249 158.98 5.42957 175.47 5.42957 192.008C5.42957 201.549 6.12373 211.355 6.12373 220.889C6.12373 224.321 6.12373 227.752 6.12373 231.183C6.12373 232.758 6.12373 234.333 6.12373 235.908C6.12373 237.232 6.04031 238.406 5.85378 239.703C5.70817 240.716 6.07896 242.15 5.60311 243.066C4.98452 244.257 5.42957 246.701 5.42957 248.079C5.42957 249.908 5.42957 251.737 5.42957 253.566C5.42957 256.957 5.08249 260.315 5.08249 263.675C5.08249 273.818 4.93465 284.064 5.42957 294.124C5.63804 298.362 6.60879 302.485 6.79861 306.749C6.94153 309.96 7.30173 314.035 6.47082 317.147C5.81289 319.61 5.77665 322.991 5.77665 325.522C5.77665 327.682 5.77665 329.841 5.77665 332" stroke="white" stroke-width="5" stroke-linecap="round"/>
</svg>
