<svg width="12" height="335" viewBox="0 0 12 335" fill="none" xmlns="http://www.w3.org/2000/svg">
<path d="M4.82985 3C4.82985 6.30722 4.4409 9.59019 4.4409 12.9287C4.4409 14.6116 4.63494 17.672 5.30523 19.2469C6.07054 21.0451 5.60774 23.7727 5.60774 25.7457C5.60774 28.3826 5.99669 31.0762 5.99669 33.7789C5.99669 42.5689 6.12757 52.0038 4.74341 60.6765C3.71802 67.1014 4.05195 73.6432 4.05195 80.1728C4.05195 82.6818 4.34729 85.2582 4.4409 87.7999C4.53147 90.2591 5.60774 92.9281 5.60774 95.4043C5.60774 101.557 5.99669 107.847 5.99669 114.066C5.99669 124.18 4.82985 134.217 4.82985 144.348C4.82985 147.567 4.82985 150.787 4.82985 154.006C4.82985 159.256 4.82985 164.506 4.82985 169.757C4.82985 177.842 5.89906 185.732 5.58613 193.901C5.23508 203.066 4.82985 212.112 4.82985 221.318C4.82985 226.88 5.60774 232.24 5.60774 237.79C5.60774 249.412 5.46015 261.015 5.21879 272.608C4.97561 284.29 5.21879 295.878 5.21879 307.63C5.21879 310.096 5.60774 312.349 5.60774 314.85C5.60774 316.842 5.21879 318.767 5.21879 320.83C5.21879 322.352 3.71801 331.216 5.21879 332" stroke="white" stroke-width="5" stroke-linecap="round"/>
</svg>
