<svg width="1139" height="887" viewBox="0 0 1139 887" fill="none" xmlns="http://www.w3.org/2000/svg">
<path d="M908.08 0C910.68 7.35 910.46 15.31 912.72 22.75C915.76 33.05 914.71 43.9 914.98 54.47C916.9 66.91 919.09 79.49 926.2 90.19C933.26 99.89 935.36 112.25 942.31 122.01C938.48 107.05 934.72 92.05 929.98 77.36C929.75 69.68 927.37 62.41 925.46 55.03C930.3 61.68 930.98 70.17 935.41 77.03C938.56 82.19 940.49 88.93 946.58 91.45C944.63 76.11 942.4 60.8 937.92 45.97C941.45 51.16 943.19 57.22 945.33 63.05C952.61 77.46 954.35 95.11 966.8 106.52C973.02 110.63 979.81 113.82 986.46 117.19C990.62 104.42 992.04 91.04 994.49 77.89C994.7 92.21 994.88 106.53 995.43 120.84C1009.49 125.65 1023.91 129.9 1038.83 130.83C1047.03 120.25 1056.26 110.36 1066.51 101.75C1061.05 107.58 1057.84 115.02 1052.48 120.91C1049.83 124.11 1048.46 128.08 1046.73 131.79C1049.01 132.01 1051.32 132.23 1053.63 132.45C1056.66 127.98 1060.32 123.97 1064.14 120.16C1062.4 124.36 1059.34 128.09 1058.95 132.77C1064.57 127.55 1067.07 119.99 1071.94 114.15C1070.61 117.6 1069.26 121.06 1068.68 124.73C1085.46 118.89 1098.68 106.21 1114.3 98.06C1100.63 115.19 1084 129.7 1066.52 142.8C1057.52 156.27 1062.65 173.1 1061.74 188.13C1059.07 179.3 1058.92 169.84 1058.87 160.68C1056.61 158.28 1055.64 155.12 1054.86 152C1046.19 158.89 1042.16 170.07 1041.55 180.85C1039.86 194.88 1039.96 209.05 1039.41 223.14C1035.56 207.99 1040.76 191.48 1035.02 176.47C1031.48 178.5 1026.82 179.37 1024.46 182.94C1020.62 193.89 1022.47 205.61 1020.98 216.91C1017.72 206.89 1020.52 195.65 1016.11 185.93C1013.44 190.82 1013.94 197.16 1009.71 201.17C1002.21 209.93 1002.16 222.22 1001.45 233.1C999.11 229.57 998.93 225.14 997.23 221.32C995.19 225.94 993.34 230.67 990.21 234.69C986.23 239.75 986.12 246.48 983.24 252.08C982.64 244.29 983.71 236.51 984.2 228.75C982.28 231.95 980.41 235.24 977.76 237.91C981.56 229.55 985.55 220.37 983.47 210.99C982.71 206.69 981.99 201.66 977.76 199.33C973.17 208.24 971.18 218.42 971.71 228.41C971.87 240.09 970.24 252.38 974.84 263.45C986.09 258.72 999.29 254.24 1005.27 242.78C1012.3 236.63 1015.26 227.24 1022.01 220.81C1020.32 224.26 1018.2 227.45 1016.18 230.69C1013.35 235.24 1013.28 241.05 1009.81 245.26C1005.35 250.39 1003.29 257.03 999.07 262.34C1005.56 256.94 1012.36 251.75 1017.69 245.13C1021.74 239.34 1029.31 238.33 1034.65 234.1C1045.83 228 1052.88 216.93 1063.08 209.57C1074.89 199.08 1085.72 187.51 1098.07 177.61C1084.43 196.99 1065.86 212.4 1051.6 231.4C1063.76 226.55 1075.51 220.73 1086.89 214.24C1099.25 208.2 1109.7 198.73 1122.66 193.88C1112.81 201 1103.13 208.38 1094.01 216.46C1084.81 223.53 1074.79 229.72 1067.03 238.47C1062.2 244.05 1055.07 246.68 1049.89 251.8C1061.59 249.62 1072.6 244.56 1084.52 243.54C1076.11 247.29 1067.21 249.9 1059.21 254.62C1051.17 257.38 1043.24 262.05 1040.81 270.78C1050.34 269.85 1059.1 265.75 1067.95 262.41C1078.52 257.97 1084.54 247.15 1094.81 242.38C1101.9 241.71 1108.03 237.65 1115.03 236.48C1104.88 243.76 1091.85 247.46 1085.39 259.02C1098.25 260.36 1111.08 257.52 1123.92 257.95C1112.46 261.27 1100.48 262.65 1088.82 265.29C1084.32 265.45 1077.89 265.2 1076.53 270.74C1073.5 287.36 1075.91 304.35 1075.25 321.09C1072.45 305.79 1073.8 289.99 1069.38 274.96C1063.23 281.71 1064.6 291.11 1065.07 299.46C1065.04 322.62 1063.3 345.89 1066.72 368.93C1068.83 372.84 1071.67 376.29 1074.2 379.94C1071.43 377.89 1068.98 375.5 1066.62 373.02C1065.95 388.24 1068.17 403.44 1066.63 418.65C1065.37 415.38 1065.09 411.86 1065.22 408.39C1065.67 395.76 1064.72 383.11 1063.76 370.54C1060.32 364.69 1054.86 360.19 1050.79 354.73C1051.03 356.08 1051.53 358.8 1051.77 360.15C1048.46 354.22 1043.84 348.9 1037.64 345.89C1033.55 358.41 1037.52 371.59 1036.84 384.43C1036.36 389.57 1036.6 394.74 1036.21 399.88C1033.78 390.89 1034.86 381.55 1034.01 372.39C1031.55 363.05 1033.53 353.02 1029.43 344.02C1021.5 357.71 1018.92 373.88 1017.59 389.4C1021.35 395.47 1025.8 401.64 1032.27 405.06C1037.12 407.81 1042.34 410.05 1046.39 414C1060.07 425.97 1077.07 432.84 1092.61 441.85C1077.42 435.42 1061.49 429.91 1047.86 420.39C1044.61 419.6 1041.24 419.64 1037.94 419.64C1033.18 415.22 1026.64 413.63 1021.5 409.74C1024.54 415.06 1031.14 415.92 1035.22 420.09C1040.35 425.8 1048.31 427.37 1054.11 432.26C1059.29 436.76 1065.84 439.11 1071.23 443.29C1060.64 440.72 1051.92 433.57 1041.75 429.78C1045.31 434.79 1048.2 440.41 1052.74 444.63C1061.65 451.24 1072.83 453.24 1082.82 457.63C1092.17 462.55 1102.97 464.58 1111.57 470.97C1106.96 470.49 1103.08 467.8 1098.74 466.46C1090.93 463.63 1082.64 462.7 1074.6 460.77C1068.28 459.77 1061.83 457.67 1055.46 459.49C1073.22 470.94 1093.37 477.75 1111.18 489.17C1120.15 492.7 1129.9 494.55 1138.44 499.17C1124.01 498.01 1110.39 492.59 1097.11 487.26C1086.39 485.9 1076.38 480.51 1065.48 481.01C1058.23 483.3 1051.03 480.27 1043.89 479.13C1059.09 486.77 1073.93 495.3 1089.76 501.47C1078.79 500.2 1068.1 497.46 1057.67 493.92C1053.69 503.65 1056.31 514.02 1056.25 524.12C1058.85 527.56 1063.69 528.89 1066.26 532.58C1062.6 531.84 1059.49 529.75 1056.49 527.66C1056.65 549.14 1056.12 570.53 1057.22 591.99C1053.01 580.69 1056.1 567.95 1052.67 556.31C1054.96 546.05 1052.06 535.54 1052.72 525.04C1043.03 519.41 1034.19 512.55 1024.8 506.46C1023.59 511.71 1021.22 516.65 1020.52 522.03C1021.89 537.78 1018.99 553.62 1019.49 569.43C1020.6 574.76 1024.31 579.74 1022.95 585.44C1020.79 596.67 1023.02 608.08 1022.2 619.39C1021.73 630.42 1023.99 641.41 1022.65 652.42C1019.16 636.04 1021.12 619.03 1019.01 602.44C1018.37 583.4 1015.46 564.48 1015.66 545.39C1015.12 534.66 1017.18 523.48 1013.27 513.18C1012.92 508.09 1015.49 502.53 1012.62 497.76C1011.18 493.87 1008.07 491.05 1004.79 488.7C1002.83 496.2 1003.95 504.05 1002.41 511.62C1001.97 520.89 1004.81 530.25 1002.37 539.46C1001.25 527.58 1000 515.69 999.36 503.77C989.58 511.67 991.6 524.79 987.95 535.5C985.8 541.17 987.23 547.3 988.2 553.07C989.99 560.04 984.81 566.74 986.57 573.75C987.43 584.57 988.54 595.5 987.14 606.33C987.96 613.4 984.66 620.42 987.09 627.35C989.95 644.95 988.54 663.31 993.79 680.5C992.94 687.99 993.31 695.57 992.37 703.06C990.78 696.12 990.64 688.92 987.98 682.21C988.78 665.77 987.02 649.04 985.63 632.51C981.97 621.85 982.25 610.16 984.7 599.3C985.02 588.55 983.38 577.82 980.79 567.43C982.74 559.23 981.43 550.71 980.19 542.6C984 533.38 979.68 523.8 979.53 514.39C979.65 508.18 979.81 501.82 977.92 495.82C972.46 508.29 977.4 522.33 973.74 535.09C972.49 523.84 972.25 512.46 970.16 501.27C966.24 503.99 962.68 507.54 962.07 512.51C958.47 522.22 953.95 533.2 957.98 543.45C958.51 545.29 957.88 547.17 957.49 548.98C954.48 561.97 957.74 575.4 955.67 588.45C952.87 570.91 954.44 553.04 952.06 535.45C950.7 527.78 951.76 519.86 949.41 512.35C945.53 515.38 942.57 519.34 938.96 522.64C940.45 527.1 937.71 530.89 936.71 535.05C935.03 558.3 935.11 581.66 934.16 604.94C929.17 580.86 936.92 555.14 927.58 532.03C923.95 534.84 920.75 538.13 917.57 541.42C917.59 548.85 920.36 556.25 918.49 563.61C916.92 572.96 920.94 582.07 920.97 591.32C912.62 621.93 920.39 653.31 919.48 684.36C919.79 692.33 927.25 699.86 923.45 707.85C920.51 714.64 923.97 722.06 921.51 729.06C921.77 741.64 923.03 754.35 921.57 766.96C920.26 756.81 920.16 746.53 918.81 736.38C917.36 729.36 919.92 722.09 917.25 715.24C917.11 689.28 916.97 663.14 914.43 637.22C912.02 629.05 914.73 620.6 913.7 612.31C913.62 600.96 912.37 589.59 913.25 578.24C911.74 575.83 910.3 573.38 908.74 571.01C904.63 589.39 905.89 608.15 905.67 626.8C902.77 613.59 904.21 599.71 902.14 586.31C901.56 572.87 900.72 559.46 898.2 546.25C898.14 539.69 898.44 533.05 897.23 526.57C892.3 530.7 890.86 537.16 888.32 542.76C886.02 548.04 883.33 553.42 883.22 559.3C882.09 572.95 878.99 587.34 883.84 600.56C876.64 620.31 881.48 641.8 881 662.38C880.87 670.09 882.22 677.74 882.25 685.45C879.49 680.61 879.93 674.77 878.92 669.43C877.71 648.77 876.23 627.99 873.19 607.57C873.96 597.42 875.41 586.17 870.59 576.82C865.59 583.14 860.45 589.59 858.3 597.52C857.66 604 859.46 610.36 860.98 616.6C857.25 624.28 857.19 633.02 856.31 641.35C855.58 649.77 858.59 658.14 856.56 666.47C856.61 681.12 856.47 695.78 856.48 710.44C853.03 703.32 855.26 695.14 854.46 687.57C854.5 680.09 851.52 672.74 853.56 665.32C853.44 654.88 849.91 644.54 852 634.04C849.69 639.49 848.32 645.29 848.53 651.23C844.79 662.66 849.48 674.58 848.4 686.37C846.57 699.47 848.53 712.85 851.9 725.37C850.05 741.02 852.63 756.75 851.43 772.43C847.1 758.98 850.05 744.1 845.74 730.59C841.66 724.4 846.98 717.42 845.42 710.81C845.03 691.76 842.13 672.8 841.85 653.75C838.38 659.43 837.79 666.19 836 672.48C834.11 686.72 830.3 700.91 831.92 715.38C831.24 724.75 834.45 734.46 830.95 743.48C828.46 759.67 827.5 776.07 826.76 792.43C828.55 799.31 833.16 806.02 831.07 813.41C831.58 819.07 831.07 824.69 830.31 830.3C832.8 842.52 831.19 855.02 831.37 867.37C830.9 873.75 832.41 880.23 830.63 886.52C828.53 875.88 829.6 864.96 827.37 854.35C827.79 834.81 823.96 815.67 822.44 796.24C818.6 778.19 822.9 759.69 820.78 741.54C818.26 731.37 817.67 720.88 817.51 710.45C815.71 695.28 819.1 679.73 815.7 664.72C814.1 666.74 812.12 668.7 811.81 671.4C809.47 683.28 807.46 695.92 811.45 707.68C811.03 714.66 808.91 721.81 810.37 728.86C811.06 732.19 810.31 735.55 809.65 738.83C808.02 745.94 809.89 753.24 808.93 760.42C808.55 773.07 807.36 785.7 807.82 798.39C807.54 805.2 810.62 812.4 807.15 818.85C802.46 811.46 805.49 802.53 804.97 794.41C805.71 778.09 802.48 761.73 804.89 745.47C806.17 734.36 802.64 723.51 803.8 712.41C803.86 703.2 803.34 693.88 800.88 684.96C794.56 695.7 794.71 708.79 789.99 720.15C789.85 713.45 792.63 706.99 791.26 700.24C783.32 710.49 780.51 723.38 776.44 735.37C775.72 730.18 777.57 725.17 777.95 720.04C775.04 724.94 772.78 730.22 769.36 734.81C763.55 742.25 761.41 751.69 756.69 759.74C759.23 745.61 766.25 732.77 770.7 719.2C775.57 705.17 784.33 692.61 787.66 678.05C800.26 662.65 804.02 642.64 809.41 624.01C800.94 629.31 794.7 637.16 787.42 643.82C793.8 630.45 807.52 621.77 811.85 607.29C814.26 603.85 812.95 599.71 811.77 596.1C807.12 599.81 803.52 604.64 798.67 608.11C792.36 615.77 783.55 622.54 782.71 633.23C778.94 644.26 777.79 655.89 775.24 667.21C775.33 654.97 777.4 642.81 779.4 630.77C779.79 626.88 779.78 622.8 781.88 619.36C786.16 611.94 786.08 602.98 785.75 594.69C773.78 604.45 764.5 617.72 758.67 632.04C760.73 617.19 769.95 604.91 779.65 594.05C785.41 586.56 790.18 578.38 794.64 570.07C797.22 562.62 797.31 554.62 798.22 546.86C794.09 550.85 788.96 554.56 788.21 560.7C783.74 570.69 780.65 581.2 776.79 591.43C777.85 583.83 779.52 576.31 779.94 568.64C770.94 574.64 769.03 585.58 766.03 595.14C766.16 590.48 766.85 585.86 767.99 581.35C760.09 590.34 752.62 599.71 745.25 609.12C750.72 596.52 759.36 585.59 766.47 573.91C769.2 564.46 777.98 557.93 779.8 548.1C784.73 540.54 789.66 532.89 795.43 525.9C799.5 519.4 799.82 511.45 802.21 504.31C793.49 512.53 786.87 522.58 780.12 532.35C783.83 523.26 789.72 515.24 793.9 506.35C797.07 501.22 798.39 495.07 802.43 490.49C802.05 487.42 802.77 483.52 799.6 481.73C793.63 477.7 787.55 473.78 781.27 470.25C778.36 483.7 776.54 497.62 777.94 511.38C777.92 521.06 779.09 530.84 777.67 540.47C775.3 513.16 772.88 485.67 765.02 459.3C757.54 479.41 762.79 501.45 759.73 522.14C756.94 511.65 759.02 500.7 757.11 490.1C756.36 486.22 756.22 482.26 755.9 478.34C751.77 484.21 750.89 491.43 750.72 498.42C750.25 527.43 753.75 556.68 749.24 585.47C748.73 578.77 748.91 572.03 748.67 565.32C745.75 540.61 747.53 515.52 743.28 490.93C741.28 497.28 738.3 503.57 738.41 510.36C737.84 523.72 737.33 537.08 738.35 550.42C737.27 566.38 737.51 582.42 738.7 598.37C738.2 612.81 742.3 626.82 742.49 641.21C743.62 652.34 741.52 663.73 744.68 674.64C746.27 679.29 744.41 683.87 743.28 688.35C742.99 696.75 739.93 704.91 740.9 713.37C741.07 718.75 742.45 724.43 740.32 729.6C744.54 738.31 742.84 748.07 743.16 757.38C742.78 764.96 744.34 772.51 743.45 780.08C739.73 765.18 739.73 749.62 738.78 734.37C736.48 719.17 737 703.74 736.94 688.43C738.24 684.24 735.62 680.52 735.45 676.48C739.46 652.74 740.67 627.66 733.67 604.37C733.29 594.42 730.13 584.92 726.74 575.67C724.91 570.73 718.82 570.59 714.47 569.49C715.03 579.52 711.36 589.77 714.68 599.5C715.91 606.77 714.41 614.08 714.52 621.38C715.83 631.93 714.81 642.58 715.62 653.16C716.51 658.56 718.19 663.9 718.03 669.43C716.59 684.38 718.07 699.53 715.69 714.42C713.03 699.87 716.44 684.37 711.26 670.36C710.48 665.54 714.6 661.27 713.15 656.48C710.32 644.99 712.77 633.08 710.86 621.48C711.47 614.12 711.2 606.79 709.27 599.64C707.09 592.98 710.44 586.22 709.28 579.46C707.7 568.03 710.54 556.15 707.04 544.98C700.93 555.28 701.21 567.81 701.17 579.4C700.09 594.92 702.85 610.4 702.33 625.94C698.47 616.56 700.57 606.17 698.59 596.42C696.96 589.02 696.67 581.4 696.35 573.86C694.2 580.24 692.78 586.83 690.79 593.25C687.95 620.38 692.92 647.56 691.03 674.72C691.09 657.24 684.08 640.76 683.81 623.31C683.05 610.56 681.54 597.87 678.75 585.4C676.07 574.5 677.08 562.92 672.99 552.35C671.69 549.35 671.6 546.05 671.23 542.86C669.99 551.63 667.18 561.06 670.86 569.6C673.16 583.47 667.24 598.01 671.82 611.56C668.52 633.58 675.22 655.96 671.05 677.99C670.27 675 670.3 671.88 670.53 668.83C672.51 648.78 664.19 629.39 666.88 609.31C663.84 599.7 660.79 589.61 655.5 580.84C650.85 576.32 645.85 571.79 639.95 569C636.07 568.94 632.03 569.21 628.51 570.97C628.95 580.07 628.91 589.19 628.67 598.29C627.2 612.61 629.02 627.01 628.1 641.36C627.29 654.33 628.9 667.29 628.25 680.24C624.59 657.1 626.8 633.39 624.25 610.13C621.53 598.34 627.1 585.19 619.81 574.49C616.13 566.1 605.81 566.51 598.37 563.95C584.32 561.35 570.95 555.8 556.81 553.87C552.3 560.68 553.58 570.36 552.01 578.37C550.13 570.22 549.48 561.74 546.06 553.97C544.45 554.37 542.84 554.78 541.24 555.19C539.95 560.1 541.09 565.2 540.39 570.18C538.39 583.28 541.13 596.7 538.31 609.74C536.36 600.33 538.36 590.41 535.32 581.19C533.63 575.12 536.2 568.19 532.77 562.57C531.67 560.57 530.82 558.45 529.98 556.35C525.57 569.95 528.33 584.4 527.24 598.39C526.27 615.08 529.57 631.89 526.29 648.38C528.91 661.65 527.83 675.27 526.54 688.63C526.09 700.5 527.14 712.45 525.72 724.27C523.9 712.87 524.62 700.97 524.22 689.36C525.59 673.06 521.64 656.73 523.67 640.58C522.7 637.71 520.21 635.43 520.05 632.3C520.07 629.02 523.47 626.81 523.23 623.47C522.57 605.01 523.18 585.99 515.59 568.69C510.71 575.55 511.84 584.46 511.53 592.42C510.98 603.11 512.2 613.76 512.77 624.41C509.69 618.58 510.24 611.49 509.3 605.08C509.79 596.43 507.39 588.16 505.15 579.91C501.22 584.32 501.38 590.51 499.48 595.82C495.74 607.83 495 620.75 489.95 632.31C489.35 620.71 494.78 609.57 495.29 597.93C495.3 590.93 497.62 584.23 498.22 577.3C498.59 574.55 494.77 571.69 492.55 573.97C488.25 578.65 488.75 585.51 489.35 591.37C487.86 597.1 486.55 602.87 486 608.79C485.58 604.39 485.34 599.92 483.5 595.83C482.01 603.93 484.53 612.05 483.68 620.2C481.55 615.56 482.64 610.16 480.28 605.64C476.57 623.73 478.58 642.17 477.27 660.45C477.74 667.77 478.76 675.15 477.59 682.46C476.74 685.72 479.05 688.51 479.56 691.61C480.32 695.43 477.91 698.88 477.56 702.6C477.03 709.56 477.56 716.58 476.55 723.51C478.35 734.37 476.06 745.44 475.75 756.41C475.68 759.7 475.8 763.15 474.27 766.18C473.82 756.23 475.35 746.28 474.69 736.32C471.28 720.91 476.52 704.71 471.84 689.41C476.68 678.3 473.45 666.17 473.76 654.54C470.66 644.48 473.61 633.85 470.16 623.86C466.29 631.08 462.77 638.49 459.51 645.99C455.98 656.49 453.26 667.45 447.64 677.1C449.45 668.61 453.24 660.64 454.82 652.07C455.88 644.6 460.38 638.05 460.94 630.47C461.26 616.31 469.49 603.4 466.67 588.97C463.57 593.88 460.02 598.55 457.41 603.75C456.26 613.36 452.47 622.62 452.93 632.42C452.67 638.38 452.19 644.34 451.78 650.3C448.57 639.03 452.6 626.59 447.38 615.59C443.76 618.73 445.61 623.75 443.1 627.46C439 638.5 440.43 650.56 439.62 662.09C437.35 683.06 438.49 704.26 436.9 725.24C434.34 714.08 437.28 702.5 434.58 691.31C434.93 673.03 434.9 654.66 432.54 636.48C427.22 652.43 425.54 669.62 427.8 686.26C426.26 703.94 427.01 721.65 426.89 739.37C428.68 751.36 426.41 763.33 427.07 775.41C425.9 788.78 431.54 801.97 428.7 815.25C427.79 821.27 428.06 827.47 426.39 833.39C426.96 810.27 421.6 787.45 420.35 764.48C422.18 754.24 422.85 743.6 420.69 733.37C420.19 726.16 420.65 718.88 419.74 711.7C417.71 702.47 421.54 693.09 420.39 683.83C418.41 677.44 418.14 670.71 416.74 664.21C413.89 686.85 416.78 709.77 414.96 732.46C416.66 742.39 414.88 752.39 415.67 762.39C415.32 774.55 416.9 786.79 414.94 798.86C413.56 783.42 413.64 767.83 411.14 752.48C410.53 742.45 413.8 732.34 410.97 722.4C409.69 707.38 410.63 692.18 409.19 677.16C408.49 674.95 407.5 672.84 406.62 670.71C402.89 690.42 402.77 710.52 402.12 730.49C398.06 714.31 401.55 697.26 397.37 681.14C390.63 691.12 385.73 702.19 379.54 712.5C381.26 718.58 382.13 724.96 384.53 730.83C389.92 737.94 391.55 746.87 395.74 754.63C392.04 750.47 388.97 745.82 385.82 741.24C387.3 763.95 386.17 786.76 388.97 809.38C385.32 800.43 385.85 790.53 383.04 781.38C378.38 763.08 376.67 744.19 372.52 725.79C365.86 738.62 358.78 751.23 351.33 763.6C356.87 747.71 367.69 733.67 370.57 716.86C367.84 706.5 367.48 695.68 364.19 685.53C364.23 675.58 361.12 666.33 356.7 657.59C350.56 672.75 347.1 688.86 345.09 705.04C344.48 693.5 346.32 681.95 346.22 670.4C345.8 660.49 351.05 650.58 347.32 640.83C344.55 632.34 342.25 621.28 332.74 617.98C329.59 629.79 336.96 640.66 337.82 652.23C334.61 645.42 332.41 638.17 328.68 631.6C326.65 641.73 325.9 652.07 325.95 662.4C327.04 685.39 325.08 708.38 326.03 731.37C324.99 737.25 329.18 742.52 327.74 748.41C325.42 759.4 328.59 770.38 328.12 781.44C327.96 799.45 328.61 817.68 325.46 835.48C325.1 813.79 325.81 792 323.76 770.36C322.13 763.33 321.44 756 322.58 748.85C323.76 742.89 320.01 737.25 321.61 731.26C321.49 710.66 321.58 690.02 321 669.42C319.77 658.39 322.6 647.23 319.75 636.37C319.68 629.1 319.53 621.87 317.53 614.8C316.77 614.53 315.26 614 314.5 613.74C311.39 632.7 312.75 651.94 312.36 671.06C310.02 655.34 309.53 639.35 307.07 623.62C301.99 632.32 299.26 642.45 298.84 652.51C298.92 654.39 297.87 655.95 296.79 657.38C295.99 668.75 297.84 680.05 297.98 691.4C296.96 708.07 295.81 724.7 295.2 741.4C295.33 751 296.9 760.59 296.09 770.21C293.29 761.27 294.06 751.65 293 742.42C294.22 726.08 292.64 709.75 293.25 693.4C293.87 683.23 289.62 673.28 291.71 663.11C293.53 655.7 288.86 648.8 289.57 641.37C290.39 625.75 281.77 611.82 279.92 596.63C277.82 591.69 277.08 585.94 273 582.1C280.53 605.05 276.32 629.73 277.72 653.44C276.89 651.89 276.06 650.31 275.82 648.56C272.76 629.37 272.86 609.6 266.02 591.25C265.04 591.79 264.06 592.34 263.08 592.89C257.67 583.96 252.33 574.98 246.69 566.19C247.31 578.91 252.23 590.62 259.17 601.12C260.92 616.24 261.17 632.03 266.85 646.44C268.51 649.89 270.01 653.43 271.08 657.12C266.55 650.1 261.5 643.43 256.96 636.42C254.98 631.36 253.5 625.98 249.83 621.79C246.57 633.07 248.26 645.23 252.22 656.1C255.59 662.99 258.52 670.11 260.89 677.41C257.48 673.19 255.76 667.97 252.96 663.37C253.25 668.68 253.72 674.03 255.2 679.17C258.33 689.12 254.15 699.32 254.14 709.39C255.15 720.7 258.2 731.74 261.93 742.44C265.57 750.89 270.98 758.6 273.39 767.57C270.68 763.89 268.81 759.71 266.79 755.65C266.39 755.72 265.6 755.85 265.2 755.91C259.69 743.19 252.61 731.26 247.12 718.51C238.95 727.27 238.31 739.74 235.54 750.78C234.19 759.78 235.91 768.9 235.61 777.97C241.29 802.8 237.29 828.3 236.69 853.43C236.43 858.78 236.51 864.18 235.5 869.47C232.39 853.26 236.5 836.69 234.09 820.4C232.35 811.77 234.76 803 232.79 794.39C231.87 774.71 233.64 754.7 229.06 735.36C228.64 726.16 224.89 717.55 220.76 709.47C219.83 722.99 220.8 736.54 220.16 750.06C218.57 745.71 218.37 741.03 218.18 736.46C217.21 713.1 214.28 689.88 214.13 666.48C210.64 652.86 210.07 637.41 200.88 626.11C210.39 645.48 206.66 667.92 202.86 688.27C205.24 692.65 205.86 697.46 205.01 702.38C205.44 717.38 202.81 732.57 206.19 747.39C205.64 755.53 209.1 763.47 207.42 771.58C206.17 778.8 207.97 786.09 207.19 793.35C205.83 810.35 209.3 827.24 208.89 844.22C205.67 834.62 207.19 824.24 205.91 814.34C203.23 802.83 206.15 790.95 203.8 779.39C204.39 770.58 202.18 762.06 201.42 753.36C203.15 734.21 201.07 714.98 199.16 695.92C196.73 691.85 196.15 687.29 198.26 682.94C199.38 665.31 197.64 647.16 191.31 630.48C190.45 649.95 189.24 669.43 190.29 688.91C182.52 667.69 185.43 644.43 180.51 622.56C174.69 608.56 186.2 590.88 174.24 578.87C174.74 587.85 171.87 596.5 171.8 605.45C171.44 611.24 172.58 617.07 171.39 622.82C167.62 613.79 170.12 603.82 169.15 594.4C167.82 587.09 166.18 579.79 165.83 572.34C165.75 569.84 164.13 567.84 162.85 565.83C161.53 575.31 162.68 584.9 161.54 594.35C160.94 585.05 158.48 575.94 158.39 566.6C158.09 564.13 156.82 561.94 155.78 559.74C150.96 577.84 154.79 596.64 158.71 614.49C156.33 634.6 153.55 655.23 157.73 675.31C157.02 683.66 157.24 692.04 156.53 700.38C158.51 710.99 156.25 721.74 155.93 732.41C155.38 744.43 155.9 756.47 155.83 768.49C151.75 746.37 154.61 723.59 150.78 701.4C151.58 687.81 151.83 674.18 151.51 660.58C149.68 648.9 153.45 637.1 151.2 625.5C150.73 620.32 150.61 615.07 149.23 610.03C147.18 603.48 150.66 596.81 149.46 590.19C149.02 579.52 147.91 568.73 144.7 558.53C142.62 563.56 142.33 569.06 141.59 574.39C138.94 593.49 136.34 612.64 135.92 631.94C133.91 619.91 135.05 607.64 133.77 595.52C132.76 589.73 134.39 583.59 131.74 578.12C128.25 588.28 123.76 598.12 120.7 608.41C120.72 622.1 120.45 635.83 118.73 649.44C123.38 673.93 116.88 698.8 117.13 723.44C117.28 732.33 118.63 741.14 118.81 750.02C110.96 726.42 118.01 701.51 114.8 677.36C115.56 665.02 113.37 652.69 115.19 640.41C113.26 624.77 116.41 608.63 111.99 593.4C103.87 605.06 96.83 617.45 88.61 629.05C83.97 635.34 81.83 642.97 77.58 649.46C83.82 623.99 97.75 601.43 108.01 577.52C109.64 569.01 115.07 562.14 118.19 554.26C115.01 557.59 112.21 561.35 108.4 564.02C115.42 552.63 123.48 541.66 128.77 529.28C129.66 525.04 132.56 521.86 134.95 518.43C138.77 510.34 142.34 501.96 143.58 493.02C144.53 486.09 147.66 479.39 146.58 472.29C148.91 460.84 154.63 450.15 157 438.8C152.72 447.43 148.88 456.27 144.66 464.93C143.61 460.82 142.1 456.86 140.16 453.1C134.9 466.27 128.48 478.91 122.76 491.9C123.8 480.76 128.54 470.45 129.97 459.42C130.76 449.8 133.18 439.64 129.47 430.45C129.85 421.81 129.7 413.21 128.83 404.59C124.95 413.95 124.97 424.19 126.02 434.09C125.11 432.17 124.02 430.35 122.73 428.67C117.86 447.22 119.27 467.13 112.76 485.25C112.6 479.19 114.31 473.33 115.07 467.37C117 451.73 116.36 436.01 116.67 420.33C112.21 432.99 111.33 446.59 108.4 459.65C108.18 448.18 110.15 436.84 110.45 425.4C108.88 408.29 112.05 390.52 105.8 374.06C109.01 364.24 113.53 354.86 115.29 344.62C116.91 336.65 121.41 329.74 124.55 322.34C120.5 327.26 114.43 331.27 113.36 338C110.71 345.74 107.58 353.36 106.19 361.47C105.61 361.78 104.45 362.4 103.87 362.71C101.83 379.9 98.75 397.05 99.54 414.45C97.88 430.51 101.73 446.35 100.42 462.4C99.34 473.13 101.81 483.75 101.23 494.49C101.26 497.59 102.35 500.52 103.08 503.5C105.22 509.79 99.11 515.03 99.94 521.36C100.75 539.57 101.86 557.98 98.47 576.02C97.51 567.18 99.08 558.28 98.05 549.42C98.94 537.96 95.28 526.79 95.66 515.36C95.75 512.3 92.57 509.71 94.07 506.64C96.38 500.79 95.09 494.47 95.4 488.38C95.27 479.69 98.33 471.03 96.21 462.38C93.53 448.72 95.77 434.73 93.39 421.05C91.72 406.77 94.2 392.47 93.67 378.19C89.95 387.89 82.2 396.58 82.75 407.46C83.65 434.44 84.01 461.47 81.93 488.41C80.77 499.01 82.57 509.71 80.94 520.26C77.17 502.25 80.69 483.7 79 465.55C77.01 460.2 79.71 454.76 78.74 449.32C77.82 436.38 79.65 423.41 78.59 410.46C77.08 414.01 75.99 417.75 74.01 421.07C74.15 416.47 76.02 412.25 77.64 408.04C78.86 402.15 76.61 396.33 76.24 390.49C75.71 384.17 78.32 377.53 74.99 371.63C63.24 384.73 52.67 398.89 40.78 411.89C51.05 395.35 64.93 381.08 74.91 364.42C76.58 339.67 76.02 314.72 73.19 290.07C70.73 281.91 73.43 273.29 70.58 265.22C70.7 260.24 66.55 256.45 67.02 251.49C65.74 249.98 64.43 248.49 63.1 247.04C63.71 256.82 63.43 266.62 63.03 276.4C63.36 285.6 65.05 294.75 64.7 303.98C61.82 295.04 62.7 285.38 60.12 276.34C55.68 262.75 61.05 246.81 51.64 234.8C51.14 250.56 53.84 266.36 52.91 282.04C50.96 266.29 48.43 250.56 45.42 234.94C44.05 230.16 43.46 224.47 38.96 221.45C24.76 214.27 11.51 204.27 2.48001 191.1C12.51 199 21.28 208.55 32.63 214.7C37.78 219 45 217.81 50.44 221.44C51.82 225.62 55.04 228.94 58.85 231.06C61.6 226.05 63.28 220.55 65.83 215.44C58.86 208.5 51.45 201.9 45.58 193.96C53.48 199.09 59.12 206.94 66.9 212.24C71.18 202.94 74.49 193.32 76.43 183.25C69.78 176.43 63.62 169.17 57.27 162.08C51.77 152.66 48.35 142.11 42.44 132.91C26.23 110.62 11.7 87.02 0 62.06C6.1 67.87 8.12001 76.51 13.6 82.79C27.67 101.01 41.93 119.05 56.28 137.03C61.88 143.49 65.59 152.02 73.65 155.94C68.68 140.96 60.38 127.4 54.89 112.65C60.93 119.79 63.11 129.28 68.61 136.79C73.88 143.18 76.31 151.38 81.68 157.71C86.09 150.99 90.3 140.46 83.29 134.08C76.1 118.16 67.13 102.98 59.54 87.23C68.13 97.1 75.94 107.77 82.06 119.38C87.05 129.5 95.67 137.57 105.72 142.58C109.5 144.35 111.51 148.19 114.57 150.83C119.72 154.37 126.21 153.52 132.1 153.91C129.56 148.61 125.61 144.07 123.65 138.49C126.22 140.52 128.54 142.85 131 145.01C131.42 130.62 126.02 117.22 121.98 103.7C127.97 115.49 134.32 127.55 136.29 140.85C137.6 151.21 144.69 162.53 155.89 163.76C159.68 164.23 164.66 166.6 167.57 162.99C179.28 151.12 188.61 137.16 199 124.17C195.49 135.66 184.29 144.45 186.35 157.54C196.38 153.15 208.17 150.7 215.09 141.51C219.53 138.02 221.73 132.79 224.85 128.25C230.69 120.63 235.56 112.34 241.21 104.58C237.95 114.63 230.26 122.75 227.99 133.3C243.38 123.41 257.21 110.77 274.27 103.69C280.45 100.47 286.15 96.32 292.7 93.86C290.15 96.08 287.6 98.32 284.78 100.19C273.31 107.18 263.32 116.24 252.06 123.52C240.55 133.32 229.4 143.56 217.73 153.15C236.14 150.28 251.91 139.59 267.21 129.65C271.77 126.79 275.79 122.84 281.27 121.77C268.05 131.97 253.66 140.77 241.72 152.57C253.24 154.52 265.77 154.42 276.28 148.71C287.84 142.2 300.22 135.38 307.17 123.57C310.86 119.17 313.19 113.67 317.6 109.9C314.87 115.56 311.29 120.75 308.38 126.31C316.4 120.91 323.73 114.53 331.51 108.85C327.18 115.51 319.8 119.16 314.64 125.07C307.32 131.57 302.28 140.03 296.73 147.98C306.49 145.77 314.44 139.29 323.94 136.44C336.91 132.19 348.66 124.66 362 121.43C366.67 120.31 369.28 115.74 373.22 113.32C369.08 118.26 365.14 123.46 359.85 127.25C351.02 135.7 344.26 146.13 334.52 153.66C347.84 152.32 359.93 145.95 370.23 137.66C380.06 130.11 390.41 123.34 401.56 117.92C409.01 111.97 409.11 100.89 415.86 94.33C419.85 90.17 422.73 85.15 426.41 80.75C423.3 87.68 417.58 93.13 414.8 100.25C413.1 104.72 411.12 109.08 409.55 113.59C415.8 109.82 419.46 102.96 426.03 99.57C432.88 96.06 438.29 90.27 445.34 87.1C436.73 95.84 425.66 101.73 417.29 110.73C414.53 113.78 410.57 115.27 407.54 117.96C402.8 125.1 400.49 133.5 396.66 141.1C391.71 147.2 386.42 153.04 381.31 159.02C391.1 154.5 399.09 147.02 408.56 141.94C402.67 148.4 395.16 153.21 389.96 160.37C393.75 158.4 397.54 156.37 401.64 155.12C410.31 151.2 417.54 144.86 425.29 139.47C416.71 150.34 403.8 156.35 392.86 164.33C402.36 162.15 411 157.46 420.33 154.72C434.92 145.85 448.25 135.03 462.84 126.13C456.28 107.7 446.64 90.33 442.22 71.2C451.73 87.99 456.61 107.12 466.95 123.55C472.84 120.76 476.11 114.75 481.67 111.59C477.75 116.95 473.1 121.72 468.23 126.21C472.92 133.54 475.78 141.5 476.06 150.25C478.6 149.12 481.15 148.02 483.71 146.91C483.59 132.51 483.47 117.99 485.68 103.74C486.21 117.59 486.75 131.51 487.46 145.4C490.46 144.06 493.48 142.75 496.45 141.34C497.67 132.95 495.05 124.66 495.95 116.28C496.49 116.78 497.59 117.8 498.13 118.3C501.91 107.98 501.38 96.91 503.16 86.24C504.9 92.88 503.25 99.68 503.15 106.39C502.79 113.47 505.37 120.64 503.28 127.62C501.19 136.71 502.72 146.05 501.45 155.23C500.57 165.48 500.37 175.77 499.53 186.02C506.37 175.72 510.86 164.08 516.76 153.23C518.41 145.94 521.94 139.11 522.59 131.59C523.46 122.37 530.07 115.35 533.76 107.19C538.91 99.2 540.32 89.45 545.57 81.53C542.24 94.16 537.47 106.37 531.46 117.96C527.15 126.29 529.48 136.54 523.99 144.44C518.82 156.42 514.06 168.84 511.9 181.76C515.33 176.33 517.81 170.31 522.03 165.4C527.28 157.35 531.39 148.59 536.87 140.66C533.18 158.08 522.51 172.75 515.98 189.01C518.69 187.24 520.88 184.85 522.83 182.3C533.1 170.5 546.52 162.27 559.14 153.27C554.77 157.71 551.83 163.44 546.76 167.18C539.66 172.98 535.18 181.06 529.93 188.4C534.94 194.99 542.54 198.53 550.73 199.07C553.88 194.74 556.26 189.94 559.05 185.39C557.84 184.49 556.65 183.58 555.47 182.67C556.67 182.93 559.08 183.45 560.28 183.71C564.4 177.09 567.53 169.86 572.24 163.62C570.03 170.98 565.85 177.55 563.54 184.9C573.87 187.57 583.78 192.47 594.55 192.98C600.83 194.75 607.22 196.38 613.75 196.89C610.67 192.58 605.14 191.31 601.01 188.3C592.23 182.42 582.82 177.28 574.92 170.21C582.14 174.36 589.45 178.25 597.3 181.09C605.68 186.46 615.21 189.34 624.36 193.05C631.93 196.13 639.37 190.84 647.1 190.8C642.42 186.48 637.31 182.92 631.14 181.23C622.44 172.77 611.67 166.7 603.53 157.68C612.48 164.47 622.7 169.18 632.5 174.58C639.14 174.52 645.05 177.6 651.23 179.6C653.37 178.13 655.29 176.34 656.7 174.15C664.66 163.37 673.3 151.92 675.28 138.32C674.23 130.29 668.59 123.89 664.54 117.16C669.53 120.98 672.65 126.52 675.35 132.08C678.75 137.31 681.75 142.79 684.21 148.54C689.67 149.68 695.35 149.23 700.75 147.93C700.57 136.25 698.19 124.39 692.07 114.32C683.09 103.23 683.2 88.1 679.85 74.8C684.34 83.62 686.77 93.2 689.9 102.52C693.31 111.78 702.73 117.55 704.93 127.4C706.19 133.44 708.94 138.99 711 144.77C712.47 139.66 714.15 134.63 716.39 129.8C719.36 123.55 719.09 116.2 722.69 110.2C722.63 117.46 719.69 124.31 719.46 131.57C719.03 139.12 715.1 146.54 717.14 154.14C722.18 158.91 727.7 163.53 734.21 166.24C735.06 155.04 741.73 144.88 740.37 133.46C740.02 127.86 737.44 122.75 736.6 117.25C739.81 124.25 743.07 131.35 744.71 138.93C746.38 145.5 742.28 151.8 743.23 158.42C744.04 166.54 742.72 174.95 745.44 182.8C746.95 187.22 745.77 191.88 746.07 196.41C746.73 200.67 749.33 204.23 751.3 207.96C756.43 195.82 761.07 183.42 763.73 170.44C759.43 165.77 753.06 163.8 748.96 158.95C754.36 161.42 759.57 164.25 764.64 167.36C765.88 162.67 767.17 157.98 768.91 153.45C768.82 158.5 767.81 163.47 767.37 168.49C771.46 171.11 775.45 174.07 780.27 175.21C785.61 177.54 791.24 180.63 797.27 178.8C793.74 172.08 787.44 167.49 782.33 162.04C773.9 154.53 766.14 146 755.73 141.17C761.92 141.46 766.65 145.79 772.01 148.3C776.61 150.66 781.8 151.37 786.77 152.66C781.08 133.05 765.34 118.15 759.79 98.53C756.13 87.79 746.09 81.3 740.47 71.76C746.21 76.7 750.69 82.94 756.57 87.75C761.29 91.47 763.69 97.37 768.79 100.68C771.87 102.75 769.89 107.05 771.44 109.96C774.36 115.69 776.88 121.66 780.25 127.16C786.93 136.72 790.34 148.33 798.28 157.05C802.9 162.06 806.04 168.34 811.34 172.73C809.03 156.73 802.4 141.73 800.73 125.58C805.86 135.93 808.76 147.26 813.49 157.83C816.9 166.72 818.33 176.62 824.83 184C823.82 179.42 825.48 174.95 825.53 170.39C824.32 148.87 813.13 129.45 811.05 108.13C817.88 122.63 823.96 137.51 831.6 151.58C837.27 135.22 832.75 117.28 836.63 100.61C836.73 115.83 836.89 131.07 838.04 146.25C847.48 142.43 851.55 132.41 855.18 123.67C858.58 117.31 859.81 109.99 863.66 103.86C862.55 108.84 861.84 113.89 861.19 118.95C858.73 124.85 857.24 131.64 858.88 137.94C863.88 132.05 870.11 127.25 874.36 120.75C876.74 119.26 879.6 118.79 882.22 117.83C884.47 113 889.28 109.17 889.18 103.46C889.18 95.13 891.01 86.53 888.1 78.46C883.05 66.39 880.51 53.48 875.63 41.34C884.36 52.42 887.05 66.8 895.04 78.29C896.15 80.2 898.06 81.34 899.92 82.44C901.5 76.23 902.62 69.82 901.3 63.45C908.26 43.25 908.19 21.23 908.08 0ZM975.3 114.06C977.79 117.77 980.45 121.4 983.85 124.34C984.61 122.79 985.35 121.23 986.09 119.67C982.44 117.91 978.87 115.97 975.3 114.06ZM381.34 141.77C371.63 148.59 361.66 155.12 352.7 162.95C368.41 161.17 379.94 148.64 391.07 138.51C395.99 134.47 397.59 128.12 400.38 122.67C393.51 128.51 387.57 135.3 381.34 141.77ZM996.06 123.54C994.28 132.9 1006.37 133.27 1012.7 132.32C1008.67 126.96 1002.04 125.58 996.06 123.54ZM326.88 137.4C326.71 137.92 326.39 138.95 326.22 139.46C328.76 141.87 332.14 143.2 335.58 141.84C342.84 138.79 348.66 133.25 355.14 128.91C344.74 127.35 336.47 134.97 326.88 137.4ZM464.43 130.2C453.93 139.16 443 147.77 433.89 158.17C425.72 166.68 413.44 166.99 402.99 170.65C407.29 171.34 411.64 171.34 415.98 171.19C430.4 172.77 442.78 163.44 455.18 157.52C454.25 155.06 453.43 152.57 452.8 150.03C454.31 152.46 455.62 155.01 456.93 157.56C460.28 156.26 463.58 154.83 466.99 153.7C467.38 145.79 468.06 137.53 464.43 130.2ZM1014 129.61C1016.53 135.18 1021.98 138.44 1027.58 140.28C1029.57 138.71 1031.53 137.09 1033.46 135.43C1027.53 131.93 1020.52 131.42 1014 129.61ZM1045.13 134.59C1044.27 136.84 1043.5 139.13 1042.85 141.45C1045.94 139.69 1048.75 137.49 1051.46 135.19C1049.34 134.97 1047.23 134.77 1045.13 134.59ZM1004.27 137.71C1007.9 142.78 1014.03 147.76 1020.62 145.06C1018.59 141.81 1017.52 137.09 1013.31 136.03C1010.23 134.65 1007.14 136.8 1004.27 137.71ZM319.44 140.99C312.86 142.82 307.27 146.86 301.12 149.68C297.33 151.93 293 154.09 291.05 158.3C294.47 156.51 297.56 154.15 300.94 152.28C310.31 149.53 321.28 151.42 329.57 145.45C326.6 143.41 323.41 139.74 319.44 140.99ZM487.4 148.41C490.05 160.42 488.98 172.88 492.17 184.81C492.97 171.13 494.96 157.62 496.59 144.01C493.49 145.41 490.44 146.9 487.4 148.41ZM92.12 144.82C89.75 150.95 89.21 157.6 89.8 164.1C97.75 169.21 104.08 176.94 113.38 179.74C110.94 175.62 106.25 173.01 105.24 168.07C102.73 159.4 97.94 151.65 92.12 144.82ZM661.27 176.65C668.17 175.19 674.13 170.12 677.17 163.85C678.02 157.85 679.38 151.57 677.43 145.62C671.94 155.88 665.67 165.83 661.27 176.65ZM476.85 153.9C478.28 159.93 480.61 165.68 483.16 171.31C483.85 164.37 485 157.33 483.57 150.4C481.32 151.55 479.07 152.7 476.85 153.9ZM910.07 150.03C908.75 152.23 907.51 157.74 911.84 156.5C916.05 154.96 913.9 150.07 910.07 150.03ZM686.16 152.34C688.66 156.15 691.66 159.62 695.22 162.5C698.31 160.58 700.38 157.55 700.96 153.93C696.12 152.73 691.15 151.99 686.16 152.34ZM119.62 156.72C125.51 161.46 132.21 165 138.89 168.48C138.41 158.46 127.99 155.45 119.62 156.72ZM236.39 156.88C233.07 158.98 230.48 162.02 227.42 164.46C236.64 164.34 245.97 162.93 254.45 159.17C248.55 157.86 242.47 155.89 236.39 156.88ZM459.57 166.73C463.2 166.77 466.7 165.69 470.27 165.17C469.79 163.5 469.33 161.83 468.87 160.16C465.42 161.8 462.09 163.81 459.57 166.73ZM717.88 160.68C717.19 168.43 723.44 173.59 728.11 178.77C735.27 171.29 724.57 163.34 717.88 160.68ZM921.95 164.58C920.02 176.85 920.49 189.39 920.62 201.78C924.18 199.63 927.77 197.45 931.73 196.08C928.48 199.56 924.44 202.18 921.11 205.55C919.64 219.23 921.62 233.17 919.51 246.86C922.83 242.7 926.26 238.61 930.18 235C924.5 245.95 916.63 255.59 910.88 266.53C910.97 296.82 911.34 327.21 910.16 357.48C907.61 346.91 909.25 335.93 908.56 325.19C907.65 307.89 906.74 290.67 906.96 273.33C902.31 278.92 901.05 286.28 896.21 291.66C889.43 302.15 890.81 314.93 891.37 326.8C896.59 323.18 900.12 317.71 905.35 314.09C900.58 321.85 898.28 330.69 895.74 339.34C895.12 345.56 899.7 350.35 901.39 355.99C903.08 361.33 906.48 366.14 911.25 369.16C913.06 362.83 913.11 356.17 914.44 349.75C918.1 341.84 921.64 333.68 922.54 324.96C929.76 317.26 934.84 307.15 935.15 296.45C936.9 292.15 940.54 288.47 940.19 283.41C943.89 276.94 948.61 270.54 955.89 268.04C960.36 268.1 964.93 268.28 969.18 266.56C969.39 261.18 969.56 255.8 969.55 250.41C968.61 237.02 970.84 223.39 967.56 210.19C965.18 203.13 966.89 195.41 964.01 188.46C962.07 187.73 960.13 187.05 958.17 186.43C956.92 202.1 956.45 217.78 956.5 233.51C953.07 219.59 956.12 205.14 952.79 191.21C946.2 196.4 945.61 204.59 945.24 212.36C941.19 223.38 945.14 235.1 943.55 246.46C942.36 255.09 944.47 263.71 943.63 272.33C938.66 257.62 941.15 241.61 939.85 226.35C939 215.05 942.28 203.73 940.12 192.51C939 184.48 940.21 175.1 934.87 168.45C933.88 178.01 935.04 187.62 934.57 197.2C932.14 189.78 931.01 181.89 927.66 174.78C925.3 171.5 926.29 166.37 921.95 164.58ZM461.93 169.09C463.92 174.14 466.15 179.21 469.97 183.17C471.28 177.65 473.5 171.79 470.83 166.3C467.85 167.21 464.87 168.08 461.93 169.09ZM150.53 167.46C150.4 171.42 154.91 171.56 157.31 169.48C155.1 168.63 152.84 167.93 150.53 167.46ZM445.9 176.34C441.72 181.56 444.8 188.75 443.5 194.81C443.69 195.02 444.06 195.46 444.25 195.67C441.77 205.02 442.85 214.98 441.55 224.53C439.65 216.42 441.43 207.93 440.31 199.69C434.24 205.7 428.57 212.1 422.42 218.04C422.7 221.48 422.9 224.94 422.86 228.4C424.86 231.45 426.4 234.76 427.96 238.05C434.4 241.59 441.05 244.69 448.05 246.97C446.04 240.72 442.99 234.8 441.78 228.32C445.73 234.3 447.74 241.27 450.67 247.77C453.54 247.57 456.42 247.38 459.3 247.13C458.8 230.08 450.04 215.28 444.5 199.65C450.32 206.61 452.91 215.86 459.75 222.08C464.96 217.37 462.23 210.33 461.77 204.36C462.44 199.02 464.26 193.84 464.33 188.42C463.83 182.24 460.99 176.61 459.8 170.57C455.28 172.76 450.07 173.48 445.9 176.34ZM892.73 171.13C888.51 174.97 893.02 180.27 894.59 184.36C896.42 180.58 897.46 176.5 898.07 172.36C896.49 171.33 894.52 169.31 892.73 171.13ZM910.6 205.52C912.67 204.89 914.74 204.26 916.84 203.66C916.31 193.07 917.01 182.34 915.32 171.86C911.38 182.68 911.1 194.16 910.6 205.52ZM767.12 173.08C766.43 179.82 765.45 186.55 765.2 193.33C765.14 201.81 761.93 210.25 764.28 218.69C767.37 215.77 769.87 212.3 772.96 209.38C778.67 205.07 775 197.29 775.78 191.29C773.63 185.03 772.77 177.25 767.12 173.08ZM947.05 178.4C945.66 183.7 942.85 189.27 944.89 194.77C948.08 191.62 950.25 187.62 951.58 183.36C950.04 181.72 948.55 180.06 947.05 178.4ZM423.58 197.7C426.49 196.26 429.42 194.78 432.62 194.06C429.53 196.36 426.23 198.34 423.2 200.72C422.93 204.44 423.06 208.17 422.94 211.91C429.27 207.77 434.01 201.71 440.37 197.63C439.54 191.6 439.78 185.45 438.47 179.49C431.23 183.25 421.88 187.82 423.58 197.7ZM876.03 185.33C879.01 187.33 880.67 183.47 879.85 180.95C877.94 181.64 875.11 182.72 876.03 185.33ZM782.22 205.01C788.1 211.06 788.02 220.27 793.63 226.49C796 221.77 795.9 216.57 796.05 211.45C797.7 205.4 799.01 199.29 798.84 192.96C794.86 190.46 791.04 187.66 786.79 185.6C782.31 190.88 780.23 198.38 782.22 205.01ZM557.15 200.36C565.13 204.18 573.96 206.03 582.68 207.25C582.07 204.48 581.29 201.75 580.4 199.05C574.7 194.72 568.48 191.18 562.47 187.3C560.44 191.55 558.62 195.89 557.15 200.36ZM878.78 199.43C883.27 196.2 891.19 193.92 889.57 186.87C882.46 186.95 878.64 192.82 878.78 199.43ZM79.98 221.45C87.24 226.37 92.8 233.84 101.37 236.71C99.98 230.28 99.93 223.43 96.86 217.48C94.08 213.67 90.9 210.12 88.39 206.13C86.33 200.36 84.19 194.6 81.31 189.17C76.63 199.42 77.22 210.77 79.98 221.45ZM412.6 200.57C415.26 200.21 417.9 199.75 420.54 199.23C420.46 196.75 420.26 194.27 419.96 191.81C417.28 194.53 414.8 197.45 412.6 200.57ZM891.31 210.55C895.85 210.42 900.32 209.44 904.62 207.99C904.62 202.67 904.52 197.34 903.7 192.07C899.57 198.27 892.93 202.93 891.31 210.55ZM504.2 196.75C502.7 205.66 503.24 214.84 501.92 223.85C504.6 218.16 505.23 211.62 508.97 206.41C511.68 202.81 511.69 197.5 508.43 194.24C507.01 195.07 505.6 195.91 504.2 196.75ZM520.84 196.29C522.85 206.37 520.86 216.99 524.76 226.79C529.44 222.6 535.46 218.33 535.95 211.48C535.76 205.86 535.69 199.92 533.19 194.74C529.02 194.13 524.42 193.55 520.84 196.29ZM969.8 194.22C969.71 197.95 969.42 201.72 969.97 205.44C972.8 204.76 973 200.78 974.74 198.69C973.02 197.27 971.39 195.76 969.8 194.22ZM485.95 206.39C487.94 203.19 488.48 199.21 487.13 195.65C484.3 198.41 482.7 203.28 485.95 206.39ZM804.33 196.87C801.06 203.49 798.78 210.89 799.79 218.34C802.11 219.83 804.57 221.12 807.09 222.28C808.68 214.09 811.84 203.05 804.33 196.87ZM538.87 201.52C538.01 204.74 538.44 208.13 539.62 211.21C542.58 208.51 545.73 206 548.32 202.93C545.54 201.11 542.02 199.5 538.87 201.52ZM584.75 200.63C585.11 203.1 585.58 205.57 586.22 207.99C588.98 208.16 591.76 208.16 594.54 208.06C592.13 204.61 589.25 201.07 584.75 200.63ZM298.96 206.36C303.42 211.43 310.76 209.18 315.11 205.22C309.99 202.61 303.37 202.04 298.96 206.36ZM404.81 215.21C398.57 219.88 395.82 227.5 391.53 233.75C399.59 226.46 409.44 221.84 418.32 215.73C422.94 213.25 420.79 207.45 420.92 203.27C415.26 206.85 410 210.98 404.81 215.21ZM496.49 218.5C498.03 213.84 501.31 208.97 499.6 203.95C494.18 206.72 495.42 213.61 496.49 218.5ZM877.89 214.45C880.67 212.1 882.92 208.96 883.34 205.25C877.48 202.14 871.31 211.34 877.89 214.45ZM555.35 206.01C555.29 208.27 555.85 210.82 554.3 212.74C550.19 218.77 549.05 226.13 546.34 232.79C542.29 242.31 539.93 252.41 536.93 262.28C550.91 249.65 560.78 233.44 572.92 219.26C565.47 237.48 553.28 252.95 542.13 268.96C545.85 270.46 549.85 270.97 553.81 271.41C566.51 262.23 575.8 249.02 583.86 235.75C576.45 241.65 570.12 248.98 561.73 253.62C568.32 245.93 576.88 240 582.15 231.21C576.85 223.59 574.94 212.86 566.12 208.28C562.81 206.58 558.94 206.61 555.35 206.01ZM71.83 207.08C70.91 209.52 70.02 211.97 69.21 214.46C71.03 215.09 72.87 215.67 74.71 216.23C73.73 213.18 72.75 210.14 71.83 207.08ZM574.33 208.51C576.27 214.84 579.55 220.92 585 224.9C588.75 217.36 583.38 207.02 574.33 208.51ZM910.9 211.41C911.04 226.6 910.18 241.75 910.21 256.93C913.25 253.77 916.11 250.46 918.93 247.11C918.09 234.16 917.98 221.04 917.51 208.03C915.32 209.19 913.11 210.31 910.9 211.41ZM771.92 246.04C780.35 243.61 788.57 239.68 792.23 231.14C788.29 223.54 784.38 215.9 779.68 208.73C768.05 217.05 768.84 233.65 771.92 246.04ZM281.53 216.26C289.1 225.98 304.44 219.56 309.51 210.61C299.98 211.34 291.03 215.28 281.53 216.26ZM484.57 210.38C484.55 211.91 484.59 213.43 484.72 214.96C485.68 213.87 486.63 212.76 487.52 211.6C486.78 211.3 485.3 210.69 484.57 210.38ZM587.68 210.63C588.05 213.91 588.9 217.17 590.88 219.86C593.3 218.13 595.58 216.23 597.85 214.29C594.62 212.66 591.19 211.47 587.68 210.63ZM386.85 223.18C389.53 221.07 392.48 218.01 391.87 214.3C386.91 213.42 384.34 219.28 386.85 223.18ZM886.07 231.41C886.37 236.1 889.28 241.21 886.01 245.45C882.27 251.12 885.03 258.08 884.17 264.3C881.77 271.82 881.09 279.77 880.71 287.62C882.86 285.09 883.53 281.62 885.48 279.07C893.72 275.4 894.69 265.53 897.89 258.16C897.97 263.63 896.41 268.83 894.92 274.03C898.63 269.64 902.42 265.31 906.48 261.23C905.53 245.81 906.21 230.38 904.52 215.05C898.13 220.24 891 224.66 886.07 231.41ZM657.67 222.08C662.31 228.54 669.34 224.24 673.64 219.82C668.18 217.17 662.43 218.89 657.67 222.08ZM678.25 218.63C673.91 222.21 683.99 223.18 682.58 218.82C681.26 218 679.61 217.92 678.25 218.63ZM415.45 224.01C419.98 229.71 422.74 236.54 427.26 242.23C426.06 234.1 418.9 228 420.7 219.36C418.97 220.94 417.21 222.48 415.45 224.01ZM63.93 236.99C68.81 241.51 74.84 244.54 80.83 247.29C80.81 241.03 79.72 234.7 77.68 228.79C75.09 225.76 72.41 222.79 70.13 219.51C66.85 224.65 62.41 230.59 63.93 236.99ZM369.49 235.14C375.71 232.8 380.82 227.55 381.28 220.66C374.05 221.9 370.13 228.26 369.49 235.14ZM311.34 227.78C307.47 232.44 299.58 231.29 296.35 236.7C294.61 248.09 293.41 260.46 298.07 271.33C298.95 274.56 303.53 273.82 304.46 270.98C308.26 262.93 312.2 254.89 314.95 246.39C317.55 238.71 322.24 231.99 325.02 224.38C324.69 223.81 324.04 222.66 323.72 222.08C319.36 223.33 314.43 224.13 311.34 227.78ZM671.57 226.52C673.95 226.67 675.3 225.65 674.84 223.17C673.58 224.11 672.46 225.22 671.57 226.52ZM495.76 223.61C495.12 226.53 495.29 229.52 495.75 232.46C497.6 230 499.29 225.42 495.76 223.61ZM399.18 240.57C397.41 254.1 397.77 267.95 395.75 281.43C393.85 269.14 395.18 256.49 392.91 244.17C382.53 258.24 387.92 277.11 385.42 293.18C383.04 282.66 385.36 271.26 380.92 261.27C375.18 264.74 374.31 271.71 371.99 277.39C368.56 282.06 363.64 285.45 360.34 290.25C367.26 289.89 373.14 286.08 379.6 284.11C367.87 290.79 360.94 302.63 352.19 312.51C362.8 309.4 373.06 305.3 382.91 300.29C397.41 294.97 409.79 285.46 423.72 278.96C420.12 281.74 416.45 284.45 413.25 287.7C404.99 295.61 393.7 299.44 385.52 307.36C388.94 305.98 392.24 304.29 395.52 302.59C400.92 304.48 406.38 301.27 411.55 299.88C423.65 288.4 427.29 271.24 429.29 255.33C429.15 252.7 426.85 250.94 425.47 248.91C419.66 242 417.79 232.97 413.98 225C408.83 229.9 401.72 233.58 399.18 240.57ZM680.2 225.1C679.11 226.25 678.03 227.4 676.97 228.56C681.08 232.56 690.7 231.67 691.34 225.29C687.62 225.21 683.91 225.1 680.2 225.1ZM646.62 233.71C652.74 234.52 660.36 233.85 662.48 226.94C660.35 226.59 658.24 226.31 656.12 226.06C652.79 228.4 649.15 230.43 646.62 233.71ZM263.9 227.97C264.47 234.79 268.17 240.76 271.26 246.7C269.7 245.35 268.13 244.01 266.53 242.73C267.21 246.57 267.68 250.45 268.58 254.25C274.5 256.47 281.05 256.9 286.68 260C281.1 259.94 275.54 259.38 270.04 258.47C270.44 260.56 270.82 262.66 271.15 264.77C274.98 272.03 283.63 273.03 290.73 275.04C291.91 262.58 292.98 249.54 288.87 237.48C283.37 238.84 279.15 242.87 275.41 246.9C276.76 238.77 267.81 234.16 263.9 227.97ZM693.51 228.47C691.86 229.79 694.28 231.97 695.59 230.47C697.2 229.12 694.82 226.9 693.51 228.47ZM671.04 229.72C669.36 230.14 669.99 233.09 671.73 232.54C673.37 232.08 672.79 229.16 671.04 229.72ZM793.39 240.78C788.95 250.13 787.67 260.6 785.14 270.54C788.4 272.53 792.27 272.97 795.95 273.68C803.24 274.01 805.69 265.77 809.91 261.34C814.5 256.95 812.48 250.25 814.49 244.79C816.28 239.87 814.07 234.76 812.8 230C806.06 232.82 796.77 233.26 793.39 240.78ZM519.88 234.57C519.1 238.68 518.22 242.78 517.82 246.94C520.45 242.45 524.61 238.17 524.69 232.7C523.37 230.55 520.6 233.02 519.88 234.57ZM82.63 231.52C83.69 237.49 84.79 243.45 85.65 249.46C88.79 250.94 92 252.27 95.26 253.46C91.65 245.85 89.14 237.28 82.63 231.52ZM205.62 238.46C210.18 242.44 218.69 239.33 217.09 232.76C212.32 230.62 205.72 232.47 205.62 238.46ZM482.77 233.22C480.16 236.5 482.58 240.28 484.27 243.33C486.33 240.57 485.9 237.02 485.95 233.79C485.15 233.64 483.56 233.36 482.77 233.22ZM667.73 235.32C671.96 239.2 677.24 241.55 682.71 243.11C682.61 240.4 682.93 237.4 681.25 235.08C677.07 232.54 671.85 232.73 667.73 235.32ZM235.14 234.9C239.61 244.36 251.84 242.25 260.23 245.2C254.37 245.68 248.47 245.08 242.63 245.92C250.39 248.64 258.04 251.73 265.94 254.02C264.68 248.89 264.27 239.46 256.96 240.31C249.19 240.71 242.63 235.75 235.14 234.9ZM686.31 235.75C686.92 238.86 687.79 241.92 688.94 244.88C694.87 246.71 701.61 247.08 706.83 243.16C700.47 239.84 693.73 235.23 686.31 235.75ZM183.12 245.76C189.25 246.43 195.5 243.2 198.55 237.85C192.18 236.74 185.54 239.48 183.12 245.76ZM655.07 243.32C657.92 244.41 660.86 245.3 663.87 245.86C665.25 244.23 666.6 242.57 667.92 240.88C666.47 239.76 664.96 238.71 663.39 237.8C660.6 239.62 657.8 241.43 655.07 243.32ZM376.32 239.75C372.61 241.12 372.54 245.79 373.73 248.94C376.25 247.63 379 246.37 380.75 244.03C382.86 241.41 378.7 238.33 376.32 239.75ZM430.91 243.87C432.97 249.08 438.29 252.6 443.74 249.65C440.12 246.49 435.39 245.27 430.91 243.87ZM646.56 253.7C651.62 253.21 656.12 250.62 660.26 247.84C654.78 243.78 647.64 247.22 646.56 253.7ZM774 250.71C775.55 254.85 777.35 258.92 779.67 262.69C782.03 257.71 786.22 251.02 781.94 245.96C778.53 245.82 776.15 248.48 774 250.71ZM675.81 248.12C672.91 257.97 675.39 268.36 673.96 278.4C672.96 285 673.8 291.67 673.39 298.3C668.97 282.58 671.87 265.71 667.03 250C657.34 252.76 661.2 265.63 659.61 273.12C657.67 266.94 657.72 260.35 656.35 254.04C653.54 255.86 651.77 258.89 652.03 262.3C651.47 281.62 653.72 300.89 654.1 320.18C664.78 329.54 671.55 342.24 678.49 354.4C673.41 347.32 665.95 341.36 656.68 342.3C656.25 349.84 659.62 356.85 663.07 363.32C670.19 368.1 678.82 369.48 686.85 372.12C684.94 372.29 683.04 372.47 681.15 372.65C685.79 375.3 691.06 376.39 696.03 378.24C692.36 378.09 688.69 377.71 685.04 378.16C679.21 378.84 672.75 376.56 667.58 380.3C668.72 385.6 669.16 393.66 675.93 394.62C683.84 395.88 692.68 396.41 699.94 392.43C709.13 384.91 717.95 376.44 724.19 366.28C724.56 355.79 716 348.26 711.53 339.54C716.54 343.25 719.95 348.55 723.94 353.25C726.18 340.99 717.99 330.68 713.12 320.28C708.85 313.37 701.31 309.64 696.58 303.17C703.81 305.51 709.71 310.67 716.91 313.02C712.69 290.15 702.7 268.1 687.04 250.76C687.96 278.29 684.8 305.87 687.07 333.44C686.84 345.34 689.87 357.3 687.4 369.12C686.25 361.22 686.82 353.13 685.27 345.26C682.22 322.89 684.96 300.28 683.38 277.83C681.02 267.87 684.12 257.25 679.59 247.69C678.65 247.8 676.75 248.01 675.81 248.12ZM693.38 249.11C694.3 252.35 696.05 255.23 697.9 258.02C700.37 257.14 702.72 255.94 704.79 254.3C701.63 251.42 697.68 249.4 693.38 249.11ZM1017.22 249.86C1014.36 254.39 1016.84 259.05 1019.21 263.11C1019.71 258.78 1023.08 251.96 1017.22 249.86ZM199.46 251.89C195.13 253.32 191.11 255.54 186.99 257.47C186.76 259.33 186.55 261.19 186.37 263.06C195.16 265.67 203.17 259.69 211.53 258.19C205.73 262.36 198.21 264.24 193.55 269.93C183.21 284.28 173.17 298.84 165.68 314.92C174.19 305.34 182.04 295.18 189.16 284.53C192.93 282.66 197.34 281.96 200.6 279.08C208.78 272.16 217.16 265.44 224.65 257.76C213.15 275.94 198.31 293.36 194.86 315.22C189.71 328.19 183.87 340.94 180.8 354.63C190.96 341.99 199.35 327.63 202.84 311.62C203.25 318.99 200.36 326 200.61 333.37C205.01 327.25 209.87 321.24 212.16 313.92C212.92 310.94 214.92 308.57 216.63 306.09C225.43 291.91 230.61 275.84 239.4 261.67C238.59 269.13 235.12 275.87 232.29 282.71C226.91 296.2 221.27 309.64 218.52 323.97C217.75 329.76 214.59 335.25 215.61 341.2C222.09 339.59 225.97 334 230.63 329.75C228.31 336.4 222.49 340.92 218.52 346.56C219.36 353.99 227.08 357.99 229.08 365.12C226.32 363.3 224.11 360.83 221.63 358.7C216.39 355.88 209.83 358.78 206.06 353.08C200.52 357.75 198.51 364.93 195.99 371.43C192.36 379.59 190.65 388.4 188.46 397.02C194.95 386.39 199.57 374.79 205.74 364C200.56 381.23 200.61 399.34 201.11 417.12C203.42 411.07 204.86 404.7 205.33 398.25C217.95 389.75 228.86 377.43 233.3 362.61C235.38 356.62 233.64 349.95 236.72 344.26C242.85 322.27 245.2 299.4 246.17 276.66C247.25 281.45 247.28 286.41 248.46 291.18C248.27 282.94 249.22 274.71 249.18 266.47C254.35 289.95 244.7 313.58 247.93 337.08C253.67 324.67 258.41 311.73 260.71 298.2C262.72 287.72 268.22 276.39 263.52 265.91C260.33 261.95 257.63 255.91 251.87 255.66C241.04 253.48 230.04 254.32 219.12 254.67C212.34 256.73 206.27 250.7 199.46 251.89ZM439.75 253.03C446.47 262.45 453.86 271.68 457.23 282.89C458.43 278.85 456.16 274.91 455.21 271.05C452.62 264.62 451.98 257.66 449.57 251.17C446.25 251.55 442.99 252.26 439.75 253.03ZM452.3 251.17C454.9 255.87 457.11 260.81 460.27 265.2C462.13 261.5 463.97 257.79 465.79 254.08C462.82 249.29 456.92 251.34 452.3 251.17ZM263.2 258C264.75 260.65 266.42 263.23 268.07 265.83C267.48 263.17 266.92 260.5 266.38 257.83C265.32 257.88 264.26 257.93 263.2 258ZM562.67 270.9C565.07 270.88 567.49 270.8 569.91 270.66C572.44 266.36 573.62 261.47 573.72 256.51C569.41 260.77 565.76 265.7 562.67 270.9ZM701.82 262.32C704.77 268.93 710.6 274.29 718.32 273.31C717.21 267.63 712.86 263.31 709.68 258.68C707.27 254.79 702.37 259.09 701.82 262.32ZM815.35 256.68C809.28 268.65 801.56 279.82 797.01 292.49C790.18 301.08 789.95 312.9 790.31 323.39C796.65 320.98 804.36 318.14 806.84 311.15C811.13 302.93 815.27 294.44 817.26 285.36C818.68 281.16 814.98 276.82 817.43 272.94C820.61 267.73 817.77 261.58 815.35 256.68ZM644.31 262.49C642.94 269.56 645.88 275.84 649.52 281.69C649.19 274.18 648.98 266.65 648.23 259.16C646.91 260.26 645.6 261.37 644.31 262.49ZM430.76 268.42C433.15 267.17 435.15 265.35 436.93 263.35C435.41 262.08 433.91 260.78 432.42 259.49C431.39 262.36 430.92 265.38 430.76 268.42ZM506.82 277.9C511.21 272.66 515.55 266.35 516.17 259.34C510.73 264.14 507.62 270.73 506.82 277.9ZM1011.06 260.27C1009.48 261.51 1010.39 263.54 1011.44 264.8C1014.61 265.76 1013.75 260.24 1011.06 260.27ZM169.34 286.97C173.65 278.44 181.19 270.82 181.39 260.77C173.72 267.28 171.33 277.58 169.34 286.97ZM79.32 263.39C76.82 284.63 79.35 306.06 78.9 327.38C80.73 337.38 77.34 348.24 81.68 357.65C84.57 354.38 87.73 351.2 89.8 347.33C89.89 330.97 91.86 314.35 88.15 298.23C86.11 286.41 85.18 274.11 79.32 263.39ZM1002.41 275.84C1004.23 273.67 1005.94 271.41 1007.78 269.25C1007.69 268.37 1007.52 266.6 1007.43 265.72C1003.05 267.04 1000.86 271.57 1002.41 275.84ZM983.61 270.82C986.5 272.43 988.22 270.19 989.48 267.86C987.1 267.8 985.28 269.35 983.61 270.82ZM429.44 278.52C429.99 281.76 431.21 284.87 431.96 288.07C436.35 285.01 440.83 282.07 445.14 278.89C443.68 275.02 441.85 271.33 440 267.65C435.8 270.36 430.18 272.98 429.44 278.52ZM86.89 269.83C86.77 278.38 88.53 287.3 94.49 293.79C96.04 293.95 97.59 294.12 99.15 294.29C98.32 284.7 92.62 277.12 86.89 269.83ZM647.85 297.64C644.62 296.33 641.3 295.32 637.98 294.32C638.42 303.82 645.71 311.53 651.89 318.22C652.53 308.89 651 299.66 650.41 290.38C650.29 282.43 642.63 278.19 638.65 272.19C636.18 281.46 641.5 291.16 647.85 297.64ZM538.68 276.12C535.46 283.24 531.1 290.3 530.95 298.37C530.74 309.65 529.95 321.14 532.26 332.27C535.01 338.45 537.4 344.81 539.46 351.27C535.6 343.49 529.92 337.07 525.24 329.85C528.07 341.25 521.25 353.05 526.37 364.1C536.08 358.68 543.25 349.47 548.23 339.69C551.87 332.52 552.53 324.34 555.77 317.04C555.47 327.83 550.68 337.83 548.89 348.32C550.49 366.33 548.79 384.38 548.05 402.41C547.63 410.57 548.86 418.78 547.84 426.91C547.01 423.17 547.1 419.33 546.6 415.56C546.12 414.81 544.66 413.5 544.23 415.26C542.34 417.95 539.44 419.73 537.56 422.41C536.94 431.09 538.25 439.81 537.59 448.49C535.07 441.01 535.81 433 535.04 425.26C531.88 428.11 528.69 430.97 526.02 434.3C530.88 441.24 535.95 448.26 542.71 453.51C549.38 446.29 557.05 440.11 563.53 432.71C559.29 441.03 552.66 447.76 547.64 455.58C558.76 461.51 571.5 459.56 583.12 456.56C589.63 454.28 595.07 449.95 600.93 446.45C603.49 432.25 603.37 417.68 601.76 403.38C601.62 394.55 603.24 383.51 595.08 377.51C591.01 396.04 595.26 415.48 591.39 433.96C590.71 420.78 589.75 407.6 590.08 394.4C588.18 386.8 590.29 378.13 585.22 371.54C583.16 384.01 584.58 396.67 583.53 409.2C582.09 404.69 582.61 399.94 582.29 395.3C582.06 388.2 578.97 381.52 579.23 374.37C579.17 364.88 569.42 360.46 563.94 354.17C566.88 355.77 569.54 357.84 572.35 359.68C572.44 353.28 571.55 346.89 569.44 340.84C562.98 343.78 557.02 347.97 550.07 349.69C556.16 342.13 566.86 338.5 570.3 328.75C575.88 315.75 582.48 303.23 587.93 290.17C581.72 295.3 578.17 302.58 572.9 308.49C575.56 299.45 578.04 289.76 574.26 280.59C570.41 288.22 568.4 296.57 567.47 305.03C564.33 314.41 563.37 324.33 560.64 333.81C560.23 320.81 564.71 308.35 566.08 295.54C562.42 300.62 559.49 306.23 555.39 310.99C558.11 302.98 563.58 296.08 565.11 287.59C557.72 292.51 551.68 299.28 544.69 304.8C551.36 295.09 558.28 285.55 565.43 276.18C556.84 272.99 547.45 275.01 538.68 276.12ZM268.96 274.5C265.16 288.1 268.13 304.64 279.11 314.14C281.01 311.91 282.78 309.58 284.59 307.28C281.35 295.51 276.13 284.38 268.96 274.5ZM709.61 275.2C712.66 277.85 715.76 280.52 719.53 282.12C718.91 280.05 718.25 278 717.58 275.96C714.93 275.57 712.27 275.29 709.61 275.2ZM786.26 276.69C786.24 281.09 786.01 285.48 785.93 289.88C790.15 286.63 793.51 282.47 796.78 278.31C793.49 276.72 789.85 276.43 786.26 276.69ZM279.8 278.48C279.52 286.71 285.02 293.22 289.43 299.6C291.59 295.29 293.24 290.74 294.6 286.12C295.66 285.33 296.71 284.54 297.77 283.74C293.3 278.67 286.39 275.14 279.8 278.48ZM426.61 281.3C424.59 286.3 421.46 290.77 419.74 295.89C422.63 294.25 425.83 292.87 428.13 290.4C429.18 287.23 427.87 284.16 426.61 281.3ZM712.25 282.25C713.85 292.79 716.7 303.73 724.26 311.68C724.98 308.08 724.01 304.5 722.4 301.29C724.58 293.48 719.5 285.16 712.25 282.25ZM828.14 293.18C830.53 291.05 834.03 289.12 834.07 285.49C829.64 282.44 827.33 289.8 828.14 293.18ZM1056.73 283.9C1052.87 289.75 1054.4 296.86 1053.28 303.38C1052.08 313.2 1053.25 323.11 1052.34 332.93C1049.12 319 1051.27 304.4 1048.26 290.41C1040.61 298.13 1036.34 308.61 1035.54 319.35C1038.67 327.47 1043.59 334.78 1048.24 342.08C1054.81 348.57 1057.85 357.51 1063.54 364.66C1061.97 346.93 1062.44 329.16 1060.24 311.49C1059.69 302.27 1061.54 292.34 1056.73 283.9ZM426.98 315.36C434.63 310.69 442.31 306.05 449.45 300.6C450.05 296.05 449.68 291.43 447.9 287.17C439.52 295.1 426.6 302.27 426.98 315.36ZM105.02 318.69C105.89 311.66 101.76 305.77 99.41 299.51C96.29 298.25 93.32 296.62 90.95 294.21C92.6 302.5 91.88 311.54 96.22 319.08C99.64 322.03 102.69 325.38 106.14 328.29C112.02 316.49 118.91 305.16 123.5 292.71C117.46 301.48 111.82 310.52 105.02 318.69ZM962.13 312.57C957.04 315.02 955.06 320.92 950.21 323.65C945.34 325.98 945.85 332.15 945.24 336.68C944.27 358.78 946.45 380.81 946.98 402.9C941.8 392.72 945.25 380.91 943.22 370.07C941.81 364.93 944.46 359.61 942.95 354.47C940.87 346.05 940.92 337.23 938.23 328.98C933.37 341.99 934.89 355.91 933.86 369.43C934.49 382.72 934.06 396.14 935.08 409.46C935.25 411.61 936.97 413.14 938.13 414.83C944.68 410.85 951.32 406.99 957.9 403.04C957.95 399.92 957.94 396.81 957.95 393.7C956.94 392.59 955.95 391.48 954.97 390.38C953.38 390.46 951.81 390.54 950.26 390.63C957.59 384.16 962.37 375.37 965.59 366.29C965.13 357.71 969.16 349.21 966.47 340.78C961.68 346.71 958.07 353.46 954.74 360.28C955.72 352.48 958.84 345.18 960.01 337.43C960.62 331.74 965.76 327.16 963.52 321.14C970.66 314.23 976.54 305.98 981.61 297.45C974.58 301.86 969.81 309.2 962.13 312.57ZM829.31 300.68C828.1 301.85 828.69 305.32 830.76 303.92C834.08 303.56 831.38 297.4 829.31 300.68ZM518.23 301.48C514.82 305.98 517.07 313.95 520.11 318.62C524.82 314.7 525.39 301.94 518.23 301.48ZM290.82 313.54C293.86 311.17 301.63 306.52 296.41 302.7C292.62 304.91 288 308.71 290.82 313.54ZM982.61 302.99C981.96 305.1 981.19 308.85 984.68 308.14C988.04 306.25 986.3 302.46 982.61 302.99ZM259.21 334.61C263.84 328.47 270.03 323.94 275.44 318.57C272.77 312.88 269.59 306.25 263.68 303.45C258.28 312.88 259.15 324.15 259.21 334.61ZM437.07 321.4C434.59 330.56 436.73 340.04 435.57 349.34C439.57 345.26 445.01 342.08 446.95 336.41C448.27 332.62 450.07 329.02 451.28 325.19C450.99 320.89 448.87 317.04 446.92 313.29C447.5 311.02 448.05 308.74 448.58 306.47C443.8 310.57 438.07 314.71 437.07 321.4ZM386.17 317.63C380.06 324.4 372.16 329.21 365.92 335.87C374.33 331.47 382.85 327.23 391.82 324.06C396.93 320.7 400.81 315.4 406.64 313.08C409.6 311.96 412.23 310.16 414.73 308.23C405.09 311.13 394.27 310.87 386.17 317.63ZM977.42 313.8C972.41 316.06 971.3 321.44 972.67 326.37C977.49 325.29 980.47 318.4 979.74 313.57C979.16 313.62 978 313.74 977.42 313.8ZM394.29 333.81C400.7 331.28 407.06 327.39 408.78 320.18C400.61 319.76 397.36 327.77 394.29 333.81ZM512.62 326.74C516.91 327.62 519.44 323.24 516.19 320.17C513.96 321.68 513.1 324.21 512.62 326.74ZM801.74 340.01C808 343.3 815.59 345.04 822.38 342.27C819.38 335.39 821.09 328.05 819.86 320.9C810.2 322.9 804.84 331.39 801.74 340.01ZM94.16 321.97C94.09 328.55 93.18 335.25 94.73 341.72C97.99 338.53 101.4 335.47 104.37 332C101.36 328.27 97.64 325.23 94.16 321.97ZM420.86 334.26C418.63 339.67 422.2 345.16 421.33 350.67C421.15 354.49 420.35 359.13 423.32 362.14C426.02 358.43 429.34 355.26 432.59 352.05C431.01 341.98 431.75 331.79 431.12 321.66C427.64 325.79 421.9 328.53 420.86 334.26ZM793.1 330.34C795.19 333.41 797.4 336.42 800.04 339.07C800.47 333.12 802.77 327.64 805 322.19C800.79 324.53 796.7 327.14 793.1 330.34ZM512.56 332.52C512.3 337.13 512.38 342.3 516.09 345.65C521.07 340.77 517.01 335.71 512.56 332.52ZM266.65 334.5C265.01 337.51 263.61 340.66 262.62 343.95C268.36 343.32 271.61 337.96 275.46 334.31C272.52 334.4 269.59 334.5 266.65 334.5ZM575.09 341.5C573.94 347.69 574.86 354.04 573.9 360.27C581.63 365.29 591.56 364.98 599.27 370.07C602.3 372.07 605.48 373.83 608.82 375.27C603.36 369.22 597.17 363.92 589.29 361.37C587.4 354.14 583.27 347.85 579.81 341.53C583.73 338.66 588.41 337.1 592.77 335.04C586.63 333.63 577.28 334.32 575.09 341.5ZM787.07 335.94C782.03 347.91 779.16 361.32 784.22 373.81C782.03 370.57 780.05 367.17 777.52 364.18C773.59 373.72 782.8 381.04 790.88 383.57C798.37 387.78 806.85 385.03 814.77 384.08C811.42 386.94 807.25 388.41 803.4 390.41C806.85 396.52 813.93 397.56 820.32 397.2C819.68 391.29 823.04 385.29 820.81 379.61C814.49 372.96 804.66 371.41 798.23 364.94C804.17 366.9 809.84 369.85 816.12 370.66C807.74 361.5 802.71 349.59 793.57 341.11C793.08 350.51 791.98 359.93 792.86 369.35C792.67 373.64 794.57 378.73 791.41 382.34C789.62 372.08 790.92 361.46 789.28 351.11C788.19 346.05 790.02 340.56 787.07 335.94ZM384.3 348.25C386.11 346.09 389.19 343.97 388.67 340.76C383.99 338.08 381.53 345.08 384.3 348.25ZM400.43 352.06C402.82 348.92 401.53 344.82 399.74 341.74C395.81 344.76 397.13 349.15 400.43 352.06ZM913.23 371.3C916.4 374.87 919.65 378.37 923.1 381.69C919.38 379.59 915.75 377.36 912.26 374.93C910.75 380.78 909.3 386.66 907.09 392.3C907.93 385.84 909.11 379.44 910.41 373.07C907.67 370.98 904.79 369.06 901.65 367.63C902.27 370.5 902.86 373.39 903.44 376.28C899.88 372.92 897.52 368.53 893.89 365.25C892.46 371.8 890.41 378.87 892.88 385.43C896.14 396.04 902.69 405.23 909.49 413.85C914.38 421.78 924.92 416.44 932.36 417.61C932.68 402.43 932.05 387.24 930.31 372.16C931.4 362.15 929.64 351.99 926.94 342.34C920.15 350.81 917.07 361.33 913.23 371.3ZM434.67 355.38C433.96 362.06 435.05 368.73 435.32 375.4C440.47 365.49 446.86 355.73 448.66 344.5C443.82 347.91 439.34 351.77 434.67 355.38ZM805.21 347.14C809.7 355.43 815.11 364.08 823.95 368.25C824.8 367.61 825.66 366.98 826.54 366.36C825.97 361.47 825.27 356.61 824.43 351.77C818.22 349.58 811.95 346.67 805.21 347.14ZM252.57 357.58C258.15 358.49 265.32 355.56 266.33 349.89C261.13 347.67 255.94 353.78 252.57 357.58ZM350.54 365.62C356.42 361.7 360.97 356 364.5 349.95C358.51 353.82 354.54 359.88 350.54 365.62ZM539.43 366.2C537.65 383.56 538.67 401.01 537.44 418.4C540.35 416.38 543.36 414.49 546.59 413.04C545.47 400.51 547.12 387.96 546.54 375.43C545.16 367.33 547.09 359.11 545.69 351.01C542.47 355.49 539.92 360.63 539.43 366.2ZM84.85 369.43C84.11 376.96 82.25 384.46 83 392.07C87.18 380.22 92.37 368.49 93.08 355.78C87.83 358.12 85.49 364.05 84.85 369.43ZM425.04 363.44C422.16 371 427.68 378.11 428.26 385.59C430.18 382.57 433.34 379.62 432.4 375.7C431 369.74 431.45 363.62 431.81 357.58C429.55 359.51 426.71 360.94 425.04 363.44ZM114.2 385.28C118.23 376.83 121.59 367.69 119.7 358.17C113.41 365.87 112.88 375.81 114.2 385.28ZM519.75 368.16C520.43 368.1 521.8 367.98 522.48 367.92C522.43 366.32 522.36 364.72 522.3 363.13C518.81 362.81 519.04 365.62 519.75 368.16ZM733.32 380C735.52 377.54 738.47 375.14 738.81 371.63C734.39 368.06 731.55 376.68 733.32 380ZM435.2 381.26C434.81 390.18 436.29 399.17 435.03 408.06C434.09 401.97 432.06 396.32 427.97 391.61C425.37 394.97 422.97 398.47 420.35 401.8C421.38 397.33 423.09 393.04 425.8 389.32C423.37 386.22 420.49 383.52 417.36 381.17C415.98 387.82 414.86 394.55 414.31 401.33C413.62 409.76 417.19 418.16 414.99 426.5C421.04 421.39 428.19 417.71 433.99 412.32C436.98 408.07 438.39 402.91 440.88 398.36C445.27 390.21 443.74 380.73 444.34 371.86C440.65 374.31 437.85 377.77 435.2 381.26ZM530.12 397.85C528.31 393.95 527.22 389.78 525.51 385.85C524.62 393.05 519.46 399.07 519.9 406.56C525.17 407.5 529.93 404.56 534.41 402.25C534.48 392.07 534.27 381.9 534.01 371.73C527.52 378.87 529.82 389.13 530.12 397.85ZM315.77 383.3C314.44 385.53 312.62 387.67 312.53 390.39C311.19 402.41 310.8 414.52 310.14 426.59C319.64 417.09 329.32 407.76 338.28 397.72C339.92 394.19 340.09 389.76 344.59 388.55C342.87 383.05 339.35 378.36 336.05 373.72C331.68 380.81 322.73 380.41 315.77 383.3ZM709.36 390.49C712.34 390.74 715.37 390.74 718.33 390.13C720.28 385.6 720.57 380.61 722.3 376.03C717.78 380.62 710.62 383.53 709.36 390.49ZM613.43 378.24C613.48 382 614.01 386.45 618.55 387.13C618.61 383.41 616.86 379.9 613.43 378.24ZM732.36 382.93C731.74 386.03 731.27 389.15 730.69 392.26C731.56 393.69 732.44 395.12 733.38 396.54C736.01 392.1 735.34 386.98 732.36 382.93ZM429.59 389.32C430.77 391.51 432.01 393.66 433.32 395.78C433.14 392.05 432.92 388.33 432.72 384.6C431.67 386.17 430.63 387.74 429.59 389.32ZM774.18 388.49C775.35 404.38 780.39 419.59 784.33 434.92C781.02 430.8 779.83 425.56 777.43 420.95C774.4 415.84 771.34 410.71 769.09 405.2C769.44 412.06 767.95 418.98 769.53 425.78C771.21 432.25 769.32 439.88 774.15 445.26C782.12 438.29 792.54 434.8 800.4 427.79C803.81 418.44 808.54 408.21 805.15 398.18C802.62 395.64 799.75 390.97 795.69 391.94C790.64 402.48 792.66 414.46 790.75 425.62C788.21 413.93 791.33 400.73 784.97 389.75C781.42 388.97 777.84 387.77 774.18 388.49ZM299.31 423.08C296.19 415.08 297.16 405.76 292.08 398.39C282.5 407.96 285.95 422.2 285.14 434.25C290.33 434.13 295.48 433.29 300.68 433.34C295.62 435.6 290.07 436.25 284.79 437.8C283.25 447.49 283.48 457.29 282.68 467.02C279.72 457.94 282.03 448.23 281.1 438.9C278.26 439.8 275.42 440.71 272.59 441.64C270.89 453.11 271.5 464.83 269.94 476.26C266.53 465.85 269.85 454.78 266.75 444.42C256.44 447.96 246.11 451.27 235.56 454.04C231.15 454.77 228.92 458.98 226.3 462.1C236.07 472.23 250.05 475.82 262.55 481.35C276.9 477.95 290.48 471.97 304.34 467.15C292.57 475.17 279.68 481.7 268.1 489.75C277.84 491.81 287.46 489.7 296.71 486.7C294.02 488.77 290.99 490.36 288.36 492.51C289.23 493.61 290.12 494.7 291.02 495.79C297.65 491.84 303.33 486.57 309.26 481.69C313.78 478.68 318.64 475.86 321.92 471.4C329.2 461.48 336.89 451.71 342.03 440.44C344.6 434.52 349.46 430.16 353.06 424.92C337.44 435.05 331.91 453.93 320.16 467.51C324.84 455.67 333.61 445.38 336.22 432.68C322.56 437.18 316.77 452.23 307.99 462.54C307.31 454.71 307.39 446.85 306.84 439.02C300.44 445.97 294.88 453.71 287.94 460.13C293.77 450.78 299.75 441.48 306.31 432.6C303.31 419.14 308.92 404.63 302.26 391.89C298.09 401.89 299.79 412.65 299.31 423.08ZM124.13 393.09C119.87 400.43 119.53 409.03 120.59 417.26C124.31 409.87 125.08 401.22 124.13 393.09ZM691.48 410.5C694.59 411.19 698.14 412.59 700.99 410.42C707.53 406.09 712.88 400.13 716.83 393.38C713.54 393.1 710.24 392.95 706.95 393.08C701.62 398.73 696.02 404.17 691.48 410.5ZM765.85 394.6C764.65 395.59 765.93 398.39 767.46 397.27C768.62 396.25 767.38 393.46 765.85 394.6ZM890.4 394.95C889.52 400.16 892.52 404.68 893.79 409.5C896.48 410.11 899.24 410.45 901.99 409.92C899.13 404.27 895.65 398.68 890.4 394.95ZM684.53 398.39C685.17 401.29 687.37 403.24 690.01 404.38C691.93 402.46 693.45 400.2 694.34 397.62C691.07 397.92 687.8 398.21 684.53 398.39ZM674.44 400.42C674.85 402.28 675.3 404.13 675.76 405.99C678.58 405.57 681.41 405.15 684.23 404.63C683.56 402.59 682.88 400.55 682.19 398.53C679.53 398.82 676.94 399.49 674.44 400.42ZM340.63 409.13C329.54 417.32 320.06 427.4 309.7 436.44C310.12 444.05 308.82 451.6 308.95 459.2C315.6 447.31 319.76 433.02 330.74 424.26C341.45 418.79 349.76 410.12 358.19 401.77C352.47 404.55 346.33 406.36 340.63 409.13ZM811.47 418.01C814.95 413.21 817.04 407.65 819.18 402.17C809.56 399.36 809.6 411.95 811.47 418.01ZM608.7 402.77C605.12 415.47 603.89 429.43 607.27 442.27C609.99 440.4 612.59 438.37 615.15 436.3C614.47 424.96 612.42 413.5 608.7 402.77ZM512.63 430.16C513.46 431.35 514.3 432.54 515.15 433.73C521.69 429.27 528.39 425.04 534.83 420.43C535.02 415.28 534.88 410.13 534.39 405.01C525.62 411.74 516.78 419.7 512.63 430.16ZM677.86 412.44C678.64 414.64 679.48 416.81 680.37 418.98C683.99 415.88 687.22 412.27 689.5 408.06C684.62 405.8 680.33 408.07 677.86 412.44ZM705.31 411.77C703.99 412.17 702.31 413.88 703.33 415.27C704.96 416.26 706.93 412.42 705.31 411.77ZM931.71 427.16C930.34 428.4 930.03 430.27 929.57 431.96C932.65 433.24 936.09 436.69 939.3 433.77C946.01 429.34 952.15 424.1 959.21 420.16C958.73 417.38 958.42 414.57 958.16 411.77C947.38 412.43 939.23 420.27 931.71 427.16ZM892.23 412.78C892.83 423.49 901.07 431.16 907.58 438.81C910.01 441.89 913.39 443.97 917.1 445.18C924.32 442.56 921.4 433.36 916.75 429.62C911.86 425.77 908.21 420.8 904.43 415.94C901.6 412.04 896.44 412.65 892.23 412.78ZM412.89 436.19C421.7 432.3 428.46 425.28 435.51 418.96C436.73 417.99 437.01 416.4 437.51 415.03C428.44 420.93 419.01 427.03 412.89 436.19ZM690.49 423.96C695.33 427.02 701.04 423.83 703.35 419.19C699.55 417.19 695.53 414.03 690.99 415.16C686.73 415.68 685.92 423.19 690.49 423.96ZM272.48 435.84C275.43 435.28 278.4 434.76 281.36 434.24C280.83 428.1 279.84 422.01 280.21 415.83C276.34 421.89 273.26 428.61 272.48 435.84ZM618.26 416.07C618.2 421.37 619.11 426.62 621.21 431.5C622.69 430.25 624.16 428.98 625.63 427.72C625.31 422.68 622.56 418.62 618.26 416.07ZM416.32 452.34C417.28 451.98 419.19 451.26 420.15 450.9C412.71 457.51 410.28 467.4 404.17 475.11C417.24 467.56 430.35 460.04 442.54 451.1C440.97 448.74 439.09 446.63 437.11 444.63C439.15 440.94 441.74 437.14 441.71 432.77C441.17 428.66 439.77 424.72 438.79 420.71C430.29 430.59 426.09 443.52 416.32 452.34ZM917.98 423.35C919.34 424.88 920.8 426.34 922.29 427.79C926.3 427.09 930.05 425.13 932.59 421.87C927.71 422.35 922.72 421.97 917.98 423.35ZM683.58 424.95C686.63 430.1 689.42 435.41 692.56 440.52C694.04 437.34 695.57 434.19 697.17 431.07C693.35 427.65 688.6 425.72 683.58 424.95ZM889.06 427.33C887.81 432.47 886.93 437.68 886.14 442.91C888.97 440.23 891.63 437.37 894.64 434.89C890.67 442.31 889.94 450.83 889.18 459.06C894.88 455.94 899.84 451.49 906.16 449.6C902.56 441.11 898.87 430.18 889.06 427.33ZM873.49 438.31C874.07 441.18 874.79 444.04 875.87 446.78C881.22 442.13 881.66 435.37 878.29 429.42C876.71 432.39 875.18 435.4 873.49 438.31ZM923.68 431.51C924.3 434.58 925.11 437.6 926.13 440.57C928.16 439.51 930.2 438.43 932.24 437.34C929.76 434.88 926.69 433.2 923.68 431.51ZM509.03 451.19C517.14 455.33 526.57 453.69 535.27 452.99C531.82 447.09 526.55 442.33 519.67 441.04C515.59 443.8 511.49 446.81 509.03 451.19ZM604.24 450.57C604.59 449.84 605.28 448.38 605.63 447.65C600.54 448.63 597.07 452.58 593.17 455.62C589.74 458.64 585.32 460.31 582.1 463.59C594.65 457.07 607.31 450.63 619.92 444.21C614.15 444.76 609.48 448.49 604.24 450.57ZM781.3 453.9C782.72 451.39 784.77 449.35 786.87 447.41C783.7 448.22 780.47 448.75 777.27 449.38C779.41 453.06 782.26 456.3 784.18 460.12C788.41 468.71 795.96 474.89 802.02 482.1C801.05 470.03 802.74 457.14 797.34 445.9C790.69 445.21 786.42 450.78 781.3 453.9ZM805.87 447.53C801.69 460.49 804 474.3 803.79 487.66C805.44 483.98 807.35 480.45 809.41 476.99C811.37 468.76 809.86 459.93 813.18 451.96C810.92 450.19 808.5 448.65 805.87 447.53ZM869.94 475.79C872.98 472.42 876.81 469.4 878.24 464.94C878.77 460.29 879.15 455.62 879.15 450.95C869.92 455.64 869.77 466.76 869.94 475.79ZM599.62 459.63C604.77 458.89 609.45 456.2 613.55 453.1C608.58 454.45 604.08 457.12 599.62 459.63ZM331.4 464.9C333.85 464.73 336.3 464.52 338.74 464.17C339.09 460.41 339.31 456.64 339.45 452.88C336.15 456.43 333.51 460.55 331.4 464.9ZM612.26 464.68C607.75 467.23 601.94 467.12 598.17 470.95C611.93 466.77 625.16 460.88 639.53 458.86C630.03 465.01 618.58 467.24 609.45 474.11C604.4 475.15 599.55 477.01 595.18 479.87C599.6 479.73 603.67 477.92 607.97 477.21C620.08 473.29 633.13 474.86 645.43 471.61C644.11 467.98 642.17 464.64 640.06 461.43C640.64 459.12 640.7 456.73 639.58 454.57C629.9 456.28 621.36 461.26 612.26 464.68ZM155.4 475.75C158.28 469.45 162.38 462.95 160.46 455.69C154.03 460.2 156.42 469.06 155.4 475.75ZM428.09 467.49C420.3 472.19 415.04 479.84 408.01 485.48C404.49 487.99 403.71 492.47 401.79 496.07C404.43 494.77 407.15 493.58 409.62 491.95C415.02 485.36 421.98 480.08 429.14 475.49C427.18 478.1 424.84 480.38 422.65 482.78C430.24 478.13 438.17 474.09 446.03 469.93C445.13 465.16 444.45 460.35 443.23 455.66C438.44 459.92 433.38 463.87 428.09 467.49ZM510.49 457.61C512.64 463.78 509.48 472.25 514.55 476.96C522.21 469.37 531.6 463.95 539.64 456.82C529.96 455.92 520.05 455.49 510.49 457.61ZM545.08 458.7C540.29 464.27 535.22 469.72 532.12 476.49C543.84 476.54 555.96 473.98 565.75 467.25C558.64 464.93 552 461.48 545.08 458.7ZM1001.96 463.18C999.1 467.67 1003.73 474.44 1008.49 473.93C1009.81 469.53 1007.27 463.13 1001.96 463.18ZM567.95 471.43C571.51 470.26 574.76 468.27 577.47 465.68C573.88 466.77 570.57 468.75 567.95 471.43ZM1009.82 465.76C1011.05 469.03 1011.78 472.63 1013.85 475.5C1016.88 477.99 1020.93 478.62 1024.62 479.65C1023.42 472.52 1017.71 465.18 1009.82 465.76ZM882.51 466.8C879.58 470.82 878.5 475.76 878.57 480.68C883.52 478.01 888.96 471.13 882.51 466.8ZM323.41 479.18C325.69 486.67 328.29 494.12 332.13 500.97C334.41 511.33 337.58 521.56 342.13 531.16C339.66 515.63 338.14 499.99 336.24 484.38C336.87 478.96 338.23 473.63 338.52 468.16C331 467.38 328.05 474.88 323.41 479.18ZM655.58 468.66C654.43 470.6 653.35 472.58 652.31 474.57C654 476.48 655.64 478.43 657.32 480.37C659.1 476.3 659.26 471.71 655.58 468.66ZM899.26 472.95C895.6 477.55 899.92 480.08 904.54 479.62C903.67 476.77 902.04 474.21 899.26 472.95ZM164.93 477.24C166.98 480 168.47 476.39 169.31 474.65C167.39 474.14 162.99 474.39 164.93 477.24ZM630.43 479.96C623.74 482.96 616.1 481.79 609.36 484.72C620.5 485.78 631.67 484.4 642.75 483.34C630.49 487.57 617.35 488.01 605 491.98C619.09 495.46 633.73 491.64 647.57 488.6C647.28 484.31 646.85 480.02 646.23 475.77C640.92 476.98 635.59 478.2 630.43 479.96ZM831.46 483.9C834.96 484.76 838.48 483.31 840.45 480.31C836.66 477.37 830.84 477.95 831.46 483.9ZM869.81 483.17C870.26 485.43 869.13 488.65 871.42 490.12C876.03 490.09 877.34 484.09 875.83 480.52C873.71 481.14 871.69 482.03 869.81 483.17ZM311.41 511.8C313.67 513.9 315.97 515.95 318.3 517.97C319.64 517.92 320.99 517.88 322.34 517.84C326.01 505.68 324.18 493.09 322.02 480.86C315.65 490.08 314.72 501.39 311.41 511.8ZM424.4 495.04C424.98 495.17 426.13 495.44 426.71 495.58C423.7 498.5 420.73 501.49 417.76 504.46C418.31 510.39 422.08 516.37 428.3 517.42C431.97 510.08 432.43 501.7 435.76 494.25C437.43 490.22 437.89 485.86 438.83 481.64C433.89 485.97 429.13 490.49 424.4 495.04ZM654.49 482C654.87 484.61 656.43 487.46 659.01 484.74C657.51 483.79 656.01 482.87 654.49 482ZM299.35 500.6C301.78 503.17 304.36 505.58 307.06 507.87C310.49 499.75 312.28 491.08 314.39 482.56C307.75 486.87 300.92 492.37 299.35 500.6ZM819.52 496.56C826.23 498.45 831.22 492.54 830.43 486.15C823.4 483.43 818.37 489.9 819.52 496.56ZM505.36 489.22C505.45 491.51 505.58 493.81 505.84 496.1C509.4 493.71 514.17 490.81 513.26 485.77C510.6 486.87 507.99 488.09 505.36 489.22ZM992.78 486.43C990.72 493.47 989.57 500.75 989.26 508.07C992.65 505.02 996.33 501.85 997.69 497.32C997.43 493.84 996.38 490.48 995.53 487.12C994.85 486.95 993.47 486.6 992.78 486.43ZM574.47 496.36C578.54 494.86 585.73 493.26 583.91 487.43C578.54 487.19 576.45 492.34 574.47 496.36ZM1026.09 488.1C1025.93 495.92 1032.09 500.63 1038.14 504.24C1042.86 510.03 1047.27 516.17 1052.63 521.45C1051.99 511.7 1052.5 501.35 1047.89 492.42C1045.51 487.65 1039.21 490.14 1035.1 490.59C1032.21 489.35 1029.18 488.52 1026.09 488.1ZM657.43 489.86C654.9 492.92 658.51 494.73 661.24 495C660.95 493.08 660.39 487.05 657.43 489.86ZM712.28 499.97C716.94 498.1 717.79 493.21 716.16 488.88C713.03 491.79 710.82 495.58 712.28 499.97ZM833.93 491.33C832.36 495 829.63 498.49 830.15 502.71C836.07 502.29 841.1 498.09 842.06 492.15C840.95 491.44 839.86 490.75 838.77 490.06C837.15 490.48 835.54 490.9 833.93 491.33ZM868.66 494.2C868.6 496.47 868.89 498.72 869.39 500.93C870.73 498.84 871.88 496.63 872.94 494.39C871.5 494.31 870.08 494.25 868.66 494.2ZM163.11 499.78C163.59 500.16 164.55 500.91 165.02 501.29C165.66 500.64 166.31 500 166.95 499.36C166.31 498.02 165.65 496.67 164.99 495.35C164.32 496.8 163.69 498.28 163.11 499.78ZM587.25 496.88C583.77 499.9 580.07 502.64 576.59 505.67C583.39 503.74 591.88 502.84 595.68 496.04C592.88 496.47 590.09 497.02 587.25 496.88ZM382.49 509.67C388.91 509.61 393.94 505.61 395.8 499.55C389.23 499.03 384.07 503.47 382.49 509.67ZM623.89 500.5C615.57 500.94 606.88 501.85 599.68 506.4C604.82 510.74 611.73 507.97 617.71 508.93C628.96 511.5 640.56 509.89 651.97 509.9C650.88 506.78 649.58 503.75 648.12 500.8C640.23 498.42 631.93 500.15 623.89 500.5ZM658.49 499.62C658.86 503.18 662.07 503.47 662.38 499.68C661.41 499.66 659.46 499.63 658.49 499.62ZM864.29 507.19C864.79 504.61 865.12 502 865.18 499.38C862.13 501.34 860.79 504.92 864.29 507.19ZM690.12 510.19C690.08 507.59 691.32 504.07 688.74 502.28C684.36 503.63 685.54 510.05 690.12 510.19ZM706.89 506.72C708.25 506.41 711.62 503.45 708.72 503.07C706.58 502.07 707.45 505.62 706.89 506.72ZM431.52 516.88C434.62 516.98 437.73 517.13 440.84 517.02C440.32 512.02 439.91 507 439.13 502.03C435.51 506.39 434.04 511.91 431.52 516.88ZM669.71 502.93C665.86 509.66 667.17 517.61 672.95 522.79C675.53 515.9 673.24 508.98 669.71 502.93ZM823.35 505.78C821.21 506.63 820.38 511.97 823.81 510.24C826.71 509.83 826.71 504.01 823.35 505.78ZM560.13 507.8C558.01 508.12 559.07 511.23 560.96 510.54C563.04 510.18 562.01 507.08 560.13 507.8ZM579.22 514.64C584.31 514.16 589.92 512.78 592.9 508.21C590.19 507.93 587.49 507.7 584.82 507.25C582.8 509.6 580.69 511.89 579.22 514.64ZM920.67 511.92C919.23 520.19 918.78 528.57 916.94 536.78C922.57 528.55 929.11 520.34 932.1 510.78C928.24 510.18 924.2 510.05 920.67 511.92ZM402.55 526.61C402.54 534.64 401.39 542.93 403.63 550.77C406.55 556.76 410.48 562.24 414.95 567.18C421.57 558.49 423.51 547.2 431 539.01C429.77 534.99 427.99 531.18 425.89 527.55C424.19 530.87 422.61 534.28 420.45 537.34C421 532.95 422.81 528.88 424.79 524.97C422.72 519.19 418.16 514.71 412.92 511.71C408.11 515.51 403.96 520.54 402.55 526.61ZM697.38 523.75C700.48 520.68 703.74 516.83 702.85 512.11C696.37 511.72 698.42 519.65 697.38 523.75ZM718.36 518.74C714.69 529.49 713.96 541.07 714.77 552.34C718.22 561.69 724.9 570.48 734.64 573.79C730.8 559.56 733.73 544.79 731.48 530.31C729.31 537.65 729.19 545.32 728.43 552.87C725.4 539.52 730.02 524.97 724.97 512.05C722.51 513.94 719.43 515.63 718.36 518.74ZM688.31 513.13C688.07 517.89 693.06 519.01 692.42 513.81C691.39 513.64 689.34 513.3 688.31 513.13ZM552.93 529.65C557.9 528.65 563 527.37 567.46 524.94C570.59 521.15 573.78 517.32 578.43 515.35C568.07 515.36 560.87 524.2 552.93 529.65ZM617.01 516.82C608.97 515.73 601.24 518.59 593.91 521.48C604.29 519.06 614.49 523.91 624.97 522.88C633.82 521.75 642.7 519.69 650.69 515.57C639.48 514.1 628.19 516.07 617.01 516.82ZM677.65 513.87C677.48 516.39 677.46 518.93 677.51 521.47C678.74 521.84 679.99 522.2 681.24 522.57C681.66 519.15 680.44 515.95 677.65 513.87ZM382.05 516.72C381.05 518.43 380.19 520.23 379.9 522.21C383.93 523.22 386.39 518.36 382.05 516.72ZM429.33 520.61C428.83 521.6 428.34 522.61 427.85 523.61C429.41 527.68 430.62 532.12 433.99 535.14C437.54 530.69 440.17 525.59 441.05 519.93C437.15 520.32 433.24 520.56 429.33 520.61ZM655.99 519.26C654.86 522.5 654.83 525.96 654.63 529.35C656.69 529.61 658.75 529.87 660.84 530.12C659.45 526.4 657.77 522.8 655.99 519.26ZM634.57 525.83C639.45 526.87 644.35 528 649.35 528.35C648.23 526.06 646.85 523.9 645.24 521.94C641.68 523.24 638.11 524.5 634.57 525.83ZM584.15 526.69C585.77 526.79 587.4 526.77 589.04 526.64C590.54 522.52 584.41 523.54 584.15 526.69ZM160.4 543.79C159.68 550.97 163.08 558 167.71 563.35C168.86 551.2 168.72 538.97 169.6 526.81C164.51 531.11 163.21 538.04 160.4 543.79ZM393.21 538C393.05 534.08 392.02 530.28 391.44 526.43C390.22 530.31 388.56 535.7 393.21 538ZM911.68 526.99C910.11 539.93 906.1 554.11 912.83 566.33C913.08 559.49 913.12 552.65 913.5 545.83C912.48 546.73 910.44 548.53 909.42 549.44C914.83 542.91 912.5 534.57 911.68 526.99ZM174.51 567.19C175.06 567.25 176.17 567.38 176.73 567.45C175.67 560.48 175.2 553.42 174.61 546.41C176.35 540.9 178.52 535.15 176.96 529.29C170.77 540.59 171.47 554.89 174.51 567.19ZM235.85 529.68C239.33 537.66 241.64 546.85 247.59 553.37C245.52 544.73 239.9 537.41 235.85 529.68ZM825.17 530.02C823.86 532.43 823.86 536.61 827.76 535.32C830.74 533.26 828.07 529.89 825.17 530.02ZM600.7 533.85C603.08 537.34 604.23 542.21 608.56 543.84C611.92 546.23 616.14 544.75 619.94 544.91C619.87 540.82 618.58 536.93 617.31 533.09C611.89 530.93 605.87 531.09 600.7 533.85ZM225.14 532.63C222.61 535.04 225.37 538.15 228.34 537.76C228.02 535.66 227.39 533.35 225.14 532.63ZM589.17 532.19C591.35 534.45 594.21 535.79 597.03 537.09C596.89 535.58 596.77 534.07 596.66 532.57C594.16 532.42 591.66 532.25 589.17 532.19ZM629.85 534.31C629.59 535.55 629.35 536.79 629.12 538.05C635.13 547.95 637.63 559.96 645.83 568.5C651.43 571.82 658.45 571.33 664.6 570C662.15 558.25 663.01 546.1 659.52 534.56C657.8 534.31 656.08 534.07 654.39 533.85C653.85 541.62 653.55 549.37 653.52 557.15C650.49 549.62 652.55 541.37 650.97 533.58C643.91 532.67 636.86 533.48 629.85 534.31ZM549.49 540.77C552.33 539.62 559.25 539.25 557.6 534.87C553.44 533.55 549.25 536.23 549.49 540.77ZM564.04 542.71C568.91 546.13 574.26 548.67 579.92 550.47C591.33 557.25 604.18 560.97 615.94 567.05C612.49 550.65 597.67 540.09 583.09 534.03C576.42 536.24 570.24 539.46 564.04 542.71ZM689.38 538.95C691.76 541.99 691.81 537.27 692.41 535.64C691.05 536.47 687.3 536.72 689.38 538.95ZM540.97 540.71C541.51 542.49 543.4 544.85 544.49 542.08C546.11 539.39 542.41 540.35 540.97 540.71ZM529.34 548.17C532.08 548.63 533.73 546.33 535.05 544.34C532.32 542.87 526.51 544.47 529.34 548.17ZM628.34 545.13C628.6 551.23 628.04 557.34 628.17 563.45C630.77 564.87 633.56 565.87 636.53 566.18C637.33 558.12 631.28 552.06 628.34 545.13ZM265.07 547.71C264.59 548.8 263.7 550.26 265.14 551.05C267.91 552.16 267.94 546.47 265.07 547.71ZM613.4 548.78C614.27 557.75 620.01 565.48 623.04 573.89C621.92 566.17 622.56 558.27 620.76 550.65C618.38 549.74 615.93 549.01 613.4 548.78ZM226.65 550.82C228.8 557.3 227.68 564.31 229.62 570.79C233.07 575.79 236.32 581.69 242.23 584.12C241.63 571.5 236.78 558.82 226.65 550.82ZM874.87 571.96C875.24 564.75 878.97 557.74 877.11 550.51C872.03 556.44 870.98 565.12 874.87 571.96ZM392.95 599.89C390.91 595.2 389.82 590.16 388.98 585.14C387.24 605.95 391.21 626.63 395.94 646.81C399.36 640.81 403.3 635.12 406.74 629.14C409.53 622.84 410.78 615.99 412.98 609.48C414.92 604.12 418.62 599.7 421.37 594.78C425.02 588 423.56 579.65 427.57 573.02C428.52 571.27 428.49 569.21 428.81 567.3C430.07 566.66 431.32 566.03 432.59 565.41C432.39 561.99 431.99 558.59 431.24 555.25C425.01 558.38 421.66 564.78 416.39 569.08C418.56 571.29 420.72 573.56 422.24 576.3C419.63 574.68 417.35 572.63 415.13 570.53C411.86 574.28 408.9 578.34 405.14 581.64C404.96 596.32 403.54 611.12 401.21 625.58C400.67 611.59 400.26 597.51 397.67 583.71C396.5 573.78 395.01 563.64 390.01 554.82C387.67 569.84 391.18 584.97 392.95 599.89ZM261.09 559.03C264.61 562.68 266.45 567.55 270.17 571.04C274.73 569.28 272.75 564.2 271.44 560.83C268.27 559.27 264.5 559.65 261.09 559.03ZM714.62 559.69C714.68 561.87 714.7 564.06 714.71 566.25C716.04 566.23 717.38 566.22 718.73 566.24C717.26 564.12 715.88 561.93 714.62 559.69ZM404.87 560.52C405.15 567.07 404.9 573.61 405.01 580.16C407.83 576.32 410.8 572.6 413.58 568.74C410.69 565.98 407.74 563.29 404.87 560.52ZM793.98 605.89C803.64 604.54 807.48 594.54 811.75 587.12C815.05 582.54 812.62 576.85 811.25 572.02C811.82 570.83 812.42 569.66 813.02 568.5C801.75 577.67 798.12 592.63 793.98 605.89ZM285.29 570.04C282.98 570.15 283.79 574.58 285.98 574.06C288.25 573.99 287.87 568.8 285.29 570.04ZM120.49 592.3C125.04 586.1 129.18 578.79 129.11 570.9C120.97 574.84 120.63 584.44 120.49 592.3ZM654.42 574.35C659.18 579.96 661.33 587.08 665.62 592.98C666.94 585.54 664.81 571.95 654.42 574.35ZM730.76 575.89C733.04 583.8 734.42 591.92 736.51 599.87C734.81 592.22 734.39 584.38 734.79 576.56C733.43 576.33 732.09 576.11 730.76 575.89ZM312.46 580.06C313.22 584.13 318.17 590.89 322.46 586.83C322.34 582.1 316.75 579.27 312.46 580.06ZM360.12 594.29C364.28 590.27 368.17 585.04 367.25 578.89C362.1 582.18 359.21 588.2 360.12 594.29ZM377.59 587.03C379.99 586.77 381.19 585.17 381.39 582.84C378.81 582.93 377.62 584.54 377.59 587.03ZM230.84 583.59C230.29 590.21 233.63 596.59 239.91 599.09C242.13 598.73 240.58 596.45 240.09 595.19C237.16 591.21 234.14 587.27 230.84 583.59ZM344.76 587.21C346.37 594.7 346.67 603.78 354.2 608.03C355.76 599.76 350.2 592.69 344.76 587.21ZM297.05 599.34C293.65 609.45 294.98 620.66 298.14 630.66C301.57 626.15 303.88 620.85 305.38 615.41C305.91 608.89 301.87 603.29 297.05 599.34ZM360.26 600.18C357.59 608.27 359.31 616.32 362.82 623.85C365.52 615.91 363.98 607.49 360.26 600.18ZM382.04 606.91C376.52 627.06 383.8 647.63 382.4 668.04C379.19 653.12 379.32 637.38 373.48 623.04C372.29 633.47 374.41 643.91 374.74 654.36C375.11 670.93 375.82 687.54 378.1 703.97C381.74 694.69 387.46 685.8 387.2 675.5C391.33 668.3 398.69 663.35 402.35 655.79C405.81 649.28 406.71 641.68 411.39 635.81C414.63 628.26 418.56 620.95 421.02 613.09C413.21 623.26 406.56 634.26 399.45 644.93C395.97 650.28 393.37 656.32 388.67 660.79C390.28 656.31 393.17 652.49 395.19 648.22C392.56 641.81 390.71 635.07 387.49 628.91C385.25 621.7 384.96 613.93 382.04 606.91ZM835 635.33C834.34 646.63 831.98 657.73 829.71 668.79C834.36 660.04 838.2 650.82 840.83 641.27C840.74 635.48 840.47 629.52 838.56 623.99C836.98 627.62 835.28 631.32 835 635.33ZM212.04 638.1C213.61 636.38 213.6 634.48 212.04 632.76C210.01 634.37 210.04 636.47 212.04 638.1ZM222.27 661.82C220.6 671.62 221.48 681.6 220.61 691.47C220.33 701.68 225.17 710.93 229.45 719.87C229.47 703.8 228.48 687.74 227.62 671.7C226.5 668.09 224.28 664.97 222.27 661.82ZM235.54 686.58C235.1 699.8 235.11 713.02 234.74 726.23C238.57 721.51 243.61 716.22 242.55 709.62C240.93 701.75 238.73 693.97 235.54 686.58Z" fill="#F2F6F9"/>
<path d="M200 118.19C203.62 112.51 206.21 105.98 211.61 101.64C208.89 107.73 206.9 115.59 200 118.19Z" fill="#F2F6F9"/>
<path d="M591.79 447.18C590.41 445.17 589.16 442.06 592.1 440.66C592.2 442.83 592.11 445.02 591.79 447.18Z" fill="#F2F6F9"/>
<path d="M425.7 836.81C427.31 837.42 430.11 837.9 429.57 840.3C427 848.26 432.51 856.12 428.49 863.91C427.22 859.54 426.17 855 426.85 850.44C427.67 845.77 424.65 841.45 425.7 836.81Z" fill="#F2F6F9"/>
</svg>
