<svg width="32" height="32" viewBox="0 0 32 32" fill="none" xmlns="http://www.w3.org/2000/svg">
<path d="M15.9992 3.2002C8.93042 3.2002 3.19922 8.9314 3.19922 16.0002C3.19922 23.069 8.93042 28.8002 15.9992 28.8002C23.068 28.8002 28.7992 23.069 28.7992 16.0002C28.7992 8.9314 23.068 3.2002 15.9992 3.2002ZM11.195 8.9634C12.0931 8.9634 12.6915 9.5618 12.6915 10.3597C12.6915 11.1575 12.0931 11.7559 11.0958 11.7559C10.1976 11.757 9.59922 11.1575 9.59922 10.3597C9.59922 9.5618 10.1976 8.9634 11.195 8.9634ZM12.7992 21.3335H9.59922V12.8002H12.7992V21.3335ZM23.4659 21.3335H20.4536V16.6701C20.4536 15.3805 19.6504 15.0829 19.3496 15.0829C19.0488 15.0829 18.044 15.2813 18.044 16.6701C18.044 16.8685 18.044 21.3335 18.044 21.3335H14.9326V12.8002H18.0451V13.9906C18.4462 13.2962 19.2494 12.8002 20.7555 12.8002C22.2616 12.8002 23.4659 13.9906 23.4659 16.6701V21.3335Z" fill="#FEFEFE"/>
</svg>
