<svg width="32" height="32" viewBox="0 0 32 32" fill="none" xmlns="http://www.w3.org/2000/svg">
<path d="M15.9375 4.03155C12.917 4.0438 9.91792 4.42729 8.35742 5.14679C8.35742 5.14679 5 6.67516 5 11.8812C5 18.0782 4.9955 25.8605 10.5625 27.3655C12.6945 27.9385 14.528 28.0619 16.002 27.9769C18.677 27.8259 20 27.0062 20 27.0062L19.9102 25.0296C19.9102 25.0296 18.1763 25.6406 16.0293 25.5706C13.9023 25.4956 11.6615 25.336 11.3125 22.68C11.2805 22.433 11.2646 22.1829 11.2656 21.9339C15.7726 23.0529 19.6158 22.4213 20.6738 22.2933C23.6278 21.9343 26.1993 20.082 26.5273 18.389C27.0413 15.721 26.998 11.8812 26.998 11.8812C26.998 6.67516 23.6465 5.14679 23.6465 5.14679C22.001 4.37829 18.958 4.0193 15.9375 4.03155ZM12.7051 8.00226C13.74 8.03001 14.7626 8.49301 15.3926 9.47101L16.002 10.5062L16.6094 9.47101C17.8744 7.50401 20.7096 7.62674 22.0586 9.14874C23.3026 10.5967 23.0254 11.5313 23.0254 18.0003V18.0023H20.5781V12.3734C20.5781 9.73835 17.2188 9.63658 17.2188 12.7386V16.0003H14.7871V12.7386C14.7871 9.63658 11.4297 9.7364 11.4297 12.3714V18.0003H8.97656C8.97656 11.5263 8.70436 10.5857 9.94336 9.14874C10.6229 8.38274 11.6702 7.97451 12.7051 8.00226Z" fill="#FEFEFE"/>
</svg>
